{
.appVersion = "3150";
DisplayStrings = (
E
);
classes = (
{
automatic = 1;

glyphs = (
{
glyphname = A;
lastChange = "2021-06-22 16:48:23 +0000";
layers = (
{
anchors = (
{
name = bottom;
position = "{270, 0}";
},
{
name = ogonek;
position = "{588, 0}";
},
{
name = top;
position = "{301, 587}";
}
);
background = {
anchors = (
{
name = bottom;
position = "{271, 0}";
},
{
name = ogonek;
position = "{589, 0}";
},
{
name = top;
position = "{302, 587}";
}
);
paths = (
{
closed = 1;
nodes = (
"210 0 LINE",
"214 57 LINE",
"148 76 LINE",
"190 203 LINE",
"201 233 LINE",
"272 420 LINE",
"237 442 LINE",
"332 228 LINE",
"343 191 LINE",
"392 76 LINE",
"326 57 LINE",
"330 0 LINE",
"640 0 LINE",
"643 57 LINE",
"590 76 LINE",
"352 605 LINE",
"253 550 LINE",
"51 76 LINE",
"-2 57 LINE",
"2 0 LINE"
);
},
{
closed = 1;
nodes = (
"182 161 OFFCURVE",
"206 163 OFFCURVE",
"265 163 CURVE SMOOTH",
"322 163 OFFCURVE",
"348 161 OFFCURVE",
"358 161 CURVE",
"358 238 LINE",
"334 237 OFFCURVE",
"309 233 OFFCURVE",
"265 233 CURVE SMOOTH",
"219 233 OFFCURVE",
"198 237 OFFCURVE",
"173 238 CURVE",
"173 160 LINE"
);
}
);
};
layerId = "722FC537-28B1-4F35-B842-D78FAAB5B143";
paths = (
{
closed = 1;
nodes = (
"210 0 LINE",
"213 57 LINE",
"147 76 LINE",
"191 203 LINE",
"200 233 LINE",
"270 420 LINE",
"236 442 LINE",
"331 228 LINE",
"342 191 LINE",
"391 76 LINE",
"325 57 LINE",
"330 0 LINE",
"639 0 LINE",
"642 57 LINE",
"589 76 LINE",
"351 605 LINE",
"252 550 LINE",
"50 76 LINE",
"-3 57 LINE",
"0 0 LINE"
);
},
{
closed = 1;
nodes = (
"172 161 OFFCURVE",
"199 163 OFFCURVE",
"264 163 CURVE SMOOTH",
"327 163 OFFCURVE",
"356 161 OFFCURVE",
"367 161 CURVE",
"367 238 LINE",
"340 237 OFFCURVE",
"313 233 OFFCURVE",
"264 233 CURVE SMOOTH",
"213 233 OFFCURVE",
"190 237 OFFCURVE",
"162 238 CURVE",
"162 160 LINE"
);
}
);
width = 633;
},
{
anchors = (
{
name = bottom;
position = "{274, 0}";
},
{
name = ogonek;
position = "{543, 0}";
},
{
name = top;
position = "{285, 587}";
}
);
layerId = "A0F5A844-D88E-40D3-8473-9812906C4A28";
paths = (
{
closed = 1;
nodes = (
"171 0 LINE",
"173 38 LINE",
"112 52 LINE",
"165 201 LINE",
"176 231 LINE",
"280 516 LINE",
"257 503 LINE",
"366 231 LINE",
"377 200 LINE",
"436 52 LINE",
"375 38 LINE",
"377 0 LINE",
"579 0 LINE",
"582 38 LINE",
"532 52 LINE",
"314 605 LINE",
"256 570 LINE",
"50 52 LINE",
"1 38 LINE",
"3 0 LINE"
);
},
{
closed = 1;
nodes = (
"193 186 OFFCURVE",
"236 187 OFFCURVE",
"276 187 CURVE SMOOTH",
"317 187 OFFCURVE",
"362 186 OFFCURVE",
"408 185 CURVE",
"408 238 LINE",
"384 237 OFFCURVE",
"339 235 OFFCURVE",
"276 235 CURVE SMOOTH",
"212 235 OFFCURVE",
"168 237 OFFCURVE",
"143 238 CURVE",
"143 185 LINE"
);
}
);
width = 582;
}
);
leftKerningGroup = A;
note = A;
rightKerningGroup = A;
unicode = 0041;
},
{
glyphname = Aogonek;
lastChange = "2021-06-22 16:48:23 +0000";
layers = (
{
anchors = (
{
name = bottom;
position = "{270, 0}";
},
{
name = top;
position = "{301, 587}";
}
);
background = {
anchors = (
{
name = bottom;
position = "{271, 0}";
},
{
name = top;
position = "{302, 587}";
}
);
paths = (
{
closed = 1;
nodes = (
"579 -223 OFFCURVE",
"623 -206 OFFCURVE",
"652 -173 CURVE",
"620 -127 LINE",
"595 -151 OFFCURVE",
"573 -161 OFFCURVE",
"553 -161 CURVE SMOOTH",
"523 -161 OFFCURVE",
"504 -139 OFFCURVE",
"504 -108 CURVE SMOOTH",
"504 -60 OFFCURVE",
"558 -16 OFFCURVE",
"640 0 CURVE",
"643 57 LINE",
"590 76 LINE",
"352 605 LINE",
"253 550 LINE",
"51 76 LINE",
"-2 57 LINE",
"2 0 LINE",
"207 0 LINE",
"211 57 LINE",
"148 76 LINE",
"190 203 LINE",
"201 233 LINE",
"275 433 LINE",
"237 439 LINE",
"332 228 LINE",
"343 191 LINE",
"392 76 LINE",
"330 57 LINE",
"333 0 LINE",
"549 0 LINE",
"537 9 LINE",
"462 -4 OFFCURVE",
"392 -61 OFFCURVE",
"392 -116 CURVE SMOOTH",
"392 -177 OFFCURVE",
"455 -223 OFFCURVE",
"531 -223 CURVE SMOOTH"
);
},
{
closed = 1;
nodes = (
"182 161 OFFCURVE",
"206 163 OFFCURVE",
"265 163 CURVE SMOOTH",
"322 163 OFFCURVE",
"348 161 OFFCURVE",
"358 161 CURVE",
"358 238 LINE",
"334 237 OFFCURVE",
"309 233 OFFCURVE",
"265 233 CURVE SMOOTH",
"219 233 OFFCURVE",
"198 237 OFFCURVE",
"173 238 CURVE",
"173 160 LINE"
);
}
);
};
layerId = "722FC537-28B1-4F35-B842-D78FAAB5B143";
paths = (
{
closed = 1;
nodes = (
"578 -223 OFFCURVE",
"622 -206 OFFCURVE",
"651 -173 CURVE",
"619 -127 LINE",
"594 -151 OFFCURVE",
"572 -161 OFFCURVE",
"552 -161 CURVE SMOOTH",
"522 -161 OFFCURVE",
"503 -139 OFFCURVE",
"503 -108 CURVE SMOOTH",
"503 -60 OFFCURVE",
"557 -16 OFFCURVE",
"639 0 CURVE",
"642 57 LINE",
"589 76 LINE",
"351 605 LINE",
"252 550 LINE",
"50 76 LINE",
"-3 57 LINE",
"0 0 LINE",
"210 0 LINE",
"213 57 LINE",
"147 76 LINE",
"191 203 LINE",
"200 233 LINE",
"274 433 LINE",
"236 439 LINE",
"331 228 LINE",
"342 191 LINE",
"391 76 LINE",
"325 57 LINE",
"330 0 LINE",
"548 0 LINE",
"536 9 LINE",
"461 -4 OFFCURVE",
"391 -61 OFFCURVE",
"391 -116 CURVE SMOOTH",
"391 -177 OFFCURVE",
"454 -223 OFFCURVE",
"530 -223 CURVE SMOOTH"
);
},
{
closed = 1;
nodes = (
"172 161 OFFCURVE",
"199 163 OFFCURVE",
"264 163 CURVE SMOOTH",
"327 163 OFFCURVE",
"356 161 OFFCURVE",
"367 161 CURVE",
"367 238 LINE",
"340 237 OFFCURVE",
"313 233 OFFCURVE",
"264 233 CURVE SMOOTH",
"213 233 OFFCURVE",
"190 237 OFFCURVE",
"162 238 CURVE",
"162 160 LINE"
);
}
);
width = 633;
},
{
anchors = (
{
name = bottom;
position = "{274, 0}";
},
{
name = top;
position = "{285, 587}";
}
);
layerId = "A0F5A844-D88E-40D3-8473-9812906C4A28";
paths = (
{
closed = 1;
nodes = (
"533 -223 OFFCURVE",
"569 -204 OFFCURVE",
"595 -173 CURVE",
"573 -146 LINE",
"552 -167 OFFCURVE",
"530 -181 OFFCURVE",
"504 -181 CURVE SMOOTH",
"469 -181 OFFCURVE",
"446 -158 OFFCURVE",
"446 -122 CURVE SMOOTH",
"446 -69 OFFCURVE",
"500 -21 OFFCURVE",
"579 0 CURVE",
"582 38 LINE",
"532 52 LINE",
"314 605 LINE",
"256 570 LINE",
"50 52 LINE",
"1 38 LINE",
"3 0 LINE",
"171 0 LINE",
"173 38 LINE",
"112 52 LINE",
"165 201 LINE",
"176 231 LINE",
"280 516 LINE",
"257 502 LINE",
"366 231 LINE",
"377 200 LINE",
"436 52 LINE",
"375 38 LINE",
"377 0 LINE",
"539 0 LINE",
"532 15 LINE",
"435 -18 OFFCURVE",
"376 -72 OFFCURVE",
"376 -132 CURVE SMOOTH",
"376 -183 OFFCURVE",
"420 -223 OFFCURVE",
"490 -223 CURVE SMOOTH"
);
},
{
closed = 1;
nodes = (
"193 186 OFFCURVE",
"236 187 OFFCURVE",
"276 187 CURVE SMOOTH",
"317 187 OFFCURVE",
"362 186 OFFCURVE",
"408 185 CURVE",
"408 238 LINE",
"384 237 OFFCURVE",
"339 235 OFFCURVE",
"276 235 CURVE SMOOTH",
"212 235 OFFCURVE",
"168 237 OFFCURVE",
"143 238 CURVE",
"143 185 LINE"
);
}
);
width = 582;
}
);
leftKerningGroup = A;
leftMetricsKey = A;
widthMetricsKey = A;
note = Aogonek;
rightKerningGroup = A;
unicode = 0104;
},
{
glyphname = AE;
lastChange = "2021-06-22 16:51:33 +0000";
layers = (
{
anchors = (
{
name = bottom;
position = "{450, 0}";
},
{
name = top;
position = "{450, 587}";
}
);
background = {
anchors = (
{
name = bottom;
position = "{451, 0}";
},
{
name = top;
position = "{451, 587}";
}
);
paths = (
{
closed = 1;
nodes = (
"848 166 LINE",
"784 178 LINE",
"726 75 LINE",
"708 71 OFFCURVE",
"712 71 OFFCURVE",
"658 71 CURVE SMOOTH",
"637 71 LINE SMOOTH",
"605 71 OFFCURVE",
"571 73 OFFCURVE",
"535 75 CURVE",
"533 86 OFFCURVE",
"533 84 OFFCURVE",
"533 217 CURVE SMOOTH",
"533 390 LINE SMOOTH",
"533 517 OFFCURVE",
"533 505 OFFCURVE",
"535 518 CURVE",
"546 521 OFFCURVE",
"576 522 OFFCURVE",
"604 522 CURVE SMOOTH",
"645 522 LINE SMOOTH",
"662 522 OFFCURVE",
"673 521 OFFCURVE",
"696 517 CURVE",
"737 425 LINE",
"802 434 LINE",
"771 593 LINE",
"735 593 OFFCURVE",
"632 587 OFFCURVE",
"586 587 CURVE SMOOTH",
"277 587 LINE",
"274 529 LINE",
"371 511 LINE",
"362 553 LINE",
"31 76 LINE",
"-26 58 LINE",
"-23 0 LINE",
"179 0 LINE",
"183 58 LINE",
"120 76 LINE",
"406 498 LINE",
"368 492 LINE",
"368 208 LINE SMOOTH",
"368 160 OFFCURVE",
"368 110 OFFCURVE",
"366 76 CURVE",
"303 57 LINE",
"307 0 LINE",
"633 0 LINE SMOOTH",
"685 0 OFFCURVE",
"770 -6 OFFCURVE",
"799 -7 CURVE"
);
},
{
closed = 1;
nodes = (
"171 152 OFFCURVE",
"204 154 OFFCURVE",
"257 154 CURVE SMOOTH",
"271 154 OFFCURVE",
"308 152 OFFCURVE",
"375 152 CURVE",
"375 228 LINE",
"335 224 OFFCURVE",
"301 223 OFFCURVE",
"257 223 CURVE SMOOTH",
"199 223 OFFCURVE",
"203 226 OFFCURVE",
"175 228 CURVE",
"150 150 LINE"
);
},
{
closed = 1;
nodes = (
"726 196 LINE",
"726 404 LINE",
"661 404 LINE",
"653 339 LINE",
"644 341 OFFCURVE",
"618 338 OFFCURVE",
"590 338 CURVE SMOOTH",
"562 338 LINE SMOOTH",
"535 338 OFFCURVE",
"511 341 OFFCURVE",
"507 342 CURVE",
"507 261 LINE",
"511 262 OFFCURVE",
"535 264 OFFCURVE",
"562 264 CURVE SMOOTH",
"590 264 LINE SMOOTH",
"618 264 OFFCURVE",
"644 262 OFFCURVE",
"653 263 CURVE",
"661 196 LINE"
);
}
);
};
layerId = "722FC537-28B1-4F35-B842-D78FAAB5B143";
paths = (
{
closed = 1;
nodes = (
"847 166 LINE",
"783 178 LINE",
"725 75 LINE",
"707 71 OFFCURVE",
"711 71 OFFCURVE",
"657 71 CURVE SMOOTH",
"636 71 LINE SMOOTH",
"604 71 OFFCURVE",
"570 73 OFFCURVE",
"534 75 CURVE",
"532 96 OFFCURVE",
"532 84 OFFCURVE",
"532 217 CURVE SMOOTH",
"532 390 LINE SMOOTH",
"532 487 OFFCURVE",
"533 505 OFFCURVE",
"534 518 CURVE",
"545 521 OFFCURVE",
"575 522 OFFCURVE",
"603 522 CURVE SMOOTH",
"644 522 LINE SMOOTH",
"661 522 OFFCURVE",
"672 521 OFFCURVE",
"695 517 CURVE",
"736 425 LINE",
"801 434 LINE",
"770 593 LINE",
"734 593 OFFCURVE",
"631 587 OFFCURVE",
"585 587 CURVE SMOOTH",
"276 587 LINE",
"273 529 LINE",
"370 511 LINE",
"361 553 LINE",
"30 76 LINE",
"-27 58 LINE",
"-24 0 LINE",
"180 0 LINE",
"183 58 LINE",
"119 76 LINE",
"405 498 LINE",
"367 492 LINE",
"367 208 LINE SMOOTH",
"367 160 OFFCURVE",
"367 110 OFFCURVE",
"365 76 CURVE",
"301 57 LINE",
"304 0 LINE",
"632 0 LINE SMOOTH",
"684 0 OFFCURVE",
"769 -6 OFFCURVE",
"798 -7 CURVE"
);
},
{
closed = 1;
nodes = (
"172 152 OFFCURVE",
"208 154 OFFCURVE",
"266 154 CURVE SMOOTH",
"281 154 OFFCURVE",
"331 154 OFFCURVE",
"394 152 CURVE",
"394 228 LINE",
"350 224 OFFCURVE",
"313 223 OFFCURVE",
"266 223 CURVE SMOOTH",
"202 223 OFFCURVE",
"207 226 OFFCURVE",
"176 228 CURVE",
"149 150 LINE"
);
},
{
closed = 1;
nodes = (
"725 196 LINE",
"725 404 LINE",
"660 404 LINE",
"652 340 LINE",
"643 339 OFFCURVE",
"617 338 OFFCURVE",
"589 338 CURVE SMOOTH",
"561 338 LINE SMOOTH",
"534 338 OFFCURVE",
"510 341 OFFCURVE",
"506 342 CURVE",
"506 261 LINE",
"510 262 OFFCURVE",
"534 264 OFFCURVE",
"561 264 CURVE SMOOTH",
"589 264 LINE SMOOTH",
"617 264 OFFCURVE",
"643 263 OFFCURVE",
"652 263 CURVE",
"660 196 LINE"
);
}
);
width = 857;
},
{
anchors = (
{
name = bottom;
position = "{414, 0}";
},
{
name = top;
position = "{414, 587}";
}
);
layerId = "A0F5A844-D88E-40D3-8473-9812906C4A28";
paths = (
{
closed = 1;
nodes = (
"774 141 LINE",
"729 150 LINE",
"678 55 LINE",
"666 52 OFFCURVE",
"649 51 OFFCURVE",
"606 51 CURVE SMOOTH",
"521 51 LINE SMOOTH",
"483 51 OFFCURVE",
"474 51 OFFCURVE",
"457 53 CURVE",
"456 66 OFFCURVE",
"455 114 OFFCURVE",
"455 153 CURVE SMOOTH",
"455 423 LINE SMOOTH",
"455 470 OFFCURVE",
"456 527 OFFCURVE",
"457 537 CURVE",
"479 538 OFFCURVE",
"498 539 OFFCURVE",
"518 539 CURVE SMOOTH",
"622 539 LINE SMOOTH",
"637 539 OFFCURVE",
"650 538 OFFCURVE",
"659 536 CURVE",
"693 452 LINE",
"738 459 LINE",
"718 591 LINE",
"685 588 OFFCURVE",
"654 587 OFFCURVE",
"618 587 CURVE SMOOTH",
"290 587 LINE",
"288 549 LINE",
"378 535 LINE",
"367 570 LINE",
"36 52 LINE",
"-15 38 LINE",
"-12 0 LINE",
"162 0 LINE",
"164 38 LINE",
"103 52 LINE",
"400 539 LINE",
"371 520 LINE",
"371 158 LINE SMOOTH",
"371 96 OFFCURVE",
"370 69 OFFCURVE",
"369 52 CURVE",
"308 38 LINE",
"310 0 LINE",
"640 0 LINE SMOOTH",
"666 0 OFFCURVE",
"690 -1 OFFCURVE",
"735 -5 CURVE"
);
},
{
closed = 1;
nodes = (
"196 182 OFFCURVE",
"233 182 OFFCURVE",
"286 182 CURVE SMOOTH",
"357 182 OFFCURVE",
"380 182 OFFCURVE",
"398 180 CURVE",
"398 234 LINE",
"376 232 OFFCURVE",
"339 231 OFFCURVE",
"286 231 CURVE SMOOTH",
"234 231 OFFCURVE",
"199 232 OFFCURVE",
"178 234 CURVE",
"166 180 LINE"
);
},
{
closed = 1;
nodes = (
"665 205 LINE",
"665 399 LINE",
"624 399 LINE",
"611 330 LINE",
"603 328 OFFCURVE",
"587 327 OFFCURVE",
"565 327 CURVE SMOOTH",
"498 327 LINE SMOOTH",
"480 327 OFFCURVE",
"463 328 OFFCURVE",
"440 329 CURVE",
"440 275 LINE",
"463 276 OFFCURVE",
"480 277 OFFCURVE",
"498 277 CURVE SMOOTH",
"565 277 LINE SMOOTH",
"587 277 OFFCURVE",
"603 276 OFFCURVE",
"611 274 CURVE",
"624 205 LINE"
);
}
);
width = 804;
}
);
leftKerningGroup = AE;
note = AE;
rightKerningGroup = E;
rightMetricsKey = "=E+1";
unicode = 00C6;
},
{
glyphname = B;
lastChange = "2021-06-22 16:48:23 +0000";
layers = (
{
anchors = (
{
name = bottom;
position = "{325, 0}";
},
{
name = top;
position = "{325, 587}";
}
);
background = {
anchors = (
{
name = bottom;
position = "{326, 0}";
},
{
name = top;
position = "{326, 587}";
}
);
paths = (
{
closed = 1;
nodes = (
"32 57 LINE",
"35 0 LINE",
"326 0 LINE SMOOTH",
"498 0 OFFCURVE",
"594 62 OFFCURVE",
"594 174 CURVE SMOOTH",
"594 260 OFFCURVE",
"522 315 OFFCURVE",
"400 322 CURVE",
"383 313 LINE",
"490 319 OFFCURVE",
"564 373 OFFCURVE",
"564 446 CURVE SMOOTH",
"564 542 OFFCURVE",
"495 587 OFFCURVE",
"349 587 CURVE SMOOTH",
"35 587 LINE",
"32 531 LINE",
"97 510 LINE",
"101 503 OFFCURVE",
"104 433 OFFCURVE",
"104 354 CURVE SMOOTH",
"104 234 LINE SMOOTH",
"104 152 OFFCURVE",
"101 82 OFFCURVE",
"97 76 CURVE"
);
},
{
closed = 1;
nodes = (
"270 407 LINE SMOOTH",
"270 466 OFFCURVE",
"271 511 OFFCURVE",
"272 524 CURVE",
"290 524 LINE SMOOTH",
"358 524 OFFCURVE",
"385 486 OFFCURVE",
"385 430 CURVE SMOOTH",
"385 368 OFFCURVE",
"357 334 OFFCURVE",
"300 334 CURVE SMOOTH",
"283 334 OFFCURVE",
"274 334 OFFCURVE",
"264 335 CURVE",
"264 260 LINE",
"287 262 OFFCURVE",
"306 262 OFFCURVE",
"308 262 CURVE SMOOTH",
"382 262 OFFCURVE",
"415 230 OFFCURVE",
"415 157 CURVE SMOOTH",
"415 102 OFFCURVE",
"381 66 OFFCURVE",
"333 66 CURVE SMOOTH",
"307 66 OFFCURVE",
"285 69 OFFCURVE",
"273 75 CURVE",
"271 92 OFFCURVE",
"270 127 OFFCURVE",
"270 177 CURVE SMOOTH"
);
}
);
};
layerId = "722FC537-28B1-4F35-B842-D78FAAB5B143";
paths = (
{
closed = 1;
nodes = (
"31 57 LINE",
"34 0 LINE",
"325 0 LINE SMOOTH",
"497 0 OFFCURVE",
"593 62 OFFCURVE",
"593 174 CURVE SMOOTH",
"593 260 OFFCURVE",
"521 315 OFFCURVE",
"394 322 CURVE",
"377 313 LINE",
"489 319 OFFCURVE",
"563 373 OFFCURVE",
"563 446 CURVE SMOOTH",
"563 542 OFFCURVE",
"494 587 OFFCURVE",
"348 587 CURVE SMOOTH",
"34 587 LINE",
"31 531 LINE",
"96 510 LINE",
"100 503 OFFCURVE",
"103 433 OFFCURVE",
"103 354 CURVE SMOOTH",
"103 234 LINE SMOOTH",
"103 152 OFFCURVE",
"100 82 OFFCURVE",
"96 76 CURVE"
);
},
{
closed = 1;
nodes = (
"269 407 LINE SMOOTH",
"269 466 OFFCURVE",
"270 511 OFFCURVE",
"271 524 CURVE",
"289 524 LINE SMOOTH",
"357 524 OFFCURVE",
"384 486 OFFCURVE",
"384 430 CURVE SMOOTH",
"384 368 OFFCURVE",
"356 334 OFFCURVE",
"292 334 CURVE SMOOTH",
"282 334 OFFCURVE",
"273 334 OFFCURVE",
"253 336 CURVE",
"253 259 LINE",
"271 261 OFFCURVE",
"286 262 OFFCURVE",
"297 262 CURVE SMOOTH",
"381 262 OFFCURVE",
"414 230 OFFCURVE",
"414 157 CURVE SMOOTH",
"414 102 OFFCURVE",
"379 66 OFFCURVE",
"325 66 CURVE SMOOTH",
"305 66 OFFCURVE",
"284 69 OFFCURVE",
"272 75 CURVE",
"270 92 OFFCURVE",
"269 127 OFFCURVE",
"269 177 CURVE SMOOTH"
);
}
);
width = 636;
},
{
anchors = (
{
name = bottom;
position = "{278, 0}";
},
{
name = top;
position = "{278, 587}";
}
);
layerId = "A0F5A844-D88E-40D3-8473-9812906C4A28";
paths = (
{
closed = 1;
nodes = (
"45 38 LINE",
"47 0 LINE",
"265 0 LINE SMOOTH",
"418 0 OFFCURVE",
"514 65 OFFCURVE",
"514 169 CURVE SMOOTH",
"514 260 OFFCURVE",
"444 313 OFFCURVE",
"317 317 CURVE",
"329 310 LINE",
"421 317 OFFCURVE",
"484 373 OFFCURVE",
"484 446 CURVE SMOOTH",
"484 537 OFFCURVE",
"415 587 OFFCURVE",
"285 587 CURVE SMOOTH",
"47 587 LINE",
"45 548 LINE",
"106 538 LINE",
"109 530 OFFCURVE",
"112 474 OFFCURVE",
"112 387 CURVE SMOOTH",
"112 199 LINE SMOOTH",
"112 119 OFFCURVE",
"109 62 OFFCURVE",
"106 52 CURVE"
);
},
{
closed = 1;
nodes = (
"196 413 LINE SMOOTH",
"196 475 OFFCURVE",
"197 533 OFFCURVE",
"198 543 CURVE",
"265 543 LINE SMOOTH",
"348 543 OFFCURVE",
"393 505 OFFCURVE",
"393 436 CURVE SMOOTH",
"393 365 OFFCURVE",
"344 325 OFFCURVE",
"256 325 CURVE SMOOTH",
"229 325 OFFCURVE",
"208 326 OFFCURVE",
"183 327 CURVE",
"183 275 LINE",
"198 277 OFFCURVE",
"210 277 OFFCURVE",
"261 277 CURVE SMOOTH",
"369 277 OFFCURVE",
"423 238 OFFCURVE",
"423 159 CURVE SMOOTH",
"423 83 OFFCURVE",
"372 46 OFFCURVE",
"269 46 CURVE SMOOTH",
"251 46 OFFCURVE",
"216 50 OFFCURVE",
"199 53 CURVE",
"197 65 OFFCURVE",
"196 118 OFFCURVE",
"196 177 CURVE SMOOTH"
);
}
);
width = 560;
}
);
leftKerningGroup = H;
note = B;
rightKerningGroup = B;
unicode = 0042;
},
{
glyphname = C;
lastChange = "2021-06-22 16:48:23 +0000";
layers = (
{
anchors = (
{
name = bottom;
position = "{356, 0}";
},
{
name = top;
position = "{356, 587}";
}
);
background = {
anchors = (
{
name = bottom;
position = "{357, 0}";
},
{
name = top;
position = "{357, 587}";
}
);
paths = (
{
closed = 1;
nodes = (
"464 -9 OFFCURVE",
"551 19 OFFCURVE",
"588 46 CURVE",
"617 185 LINE",
"537 193 LINE",
"507 107 LINE",
"493 83 OFFCURVE",
"439 71 OFFCURVE",
"414 71 CURVE SMOOTH",
"318 71 OFFCURVE",
"242 164 OFFCURVE",
"242 309 CURVE SMOOTH",
"242 449 OFFCURVE",
"306 520 OFFCURVE",
"399 520 CURVE SMOOTH",
"429 520 OFFCURVE",
"448 514 OFFCURVE",
"474 505 CURVE",
"514 393 LINE",
"586 397 LINE",
"579 560 LINE",
"540 580 OFFCURVE",
"475 596 OFFCURVE",
"408 596 CURVE SMOOTH",
"209 596 OFFCURVE",
"44 491 OFFCURVE",
"44 280 CURVE SMOOTH",
"44 101 OFFCURVE",
"172 -9 OFFCURVE",
"381 -9 CURVE SMOOTH"
);
}
);
};
layerId = "722FC537-28B1-4F35-B842-D78FAAB5B143";
paths = (
{
closed = 1;
nodes = (
"463 -9 OFFCURVE",
"545 15 OFFCURVE",
"587 46 CURVE",
"616 185 LINE",
"536 193 LINE",
"503 99 LINE",
"480 80 OFFCURVE",
"448 71 OFFCURVE",
"411 71 CURVE SMOOTH",
"317 71 OFFCURVE",
"241 164 OFFCURVE",
"241 309 CURVE SMOOTH",
"241 449 OFFCURVE",
"305 520 OFFCURVE",
"398 520 CURVE SMOOTH",
"424 520 OFFCURVE",
"447 516 OFFCURVE",
"473 505 CURVE",
"513 393 LINE",
"585 397 LINE",
"578 560 LINE",
"539 580 OFFCURVE",
"472 596 OFFCURVE",
"407 596 CURVE SMOOTH",
"208 596 OFFCURVE",
"43 491 OFFCURVE",
"43 280 CURVE SMOOTH",
"43 101 OFFCURVE",
"171 -9 OFFCURVE",
"380 -9 CURVE SMOOTH"
);
}
);
width = 638;
},
{
anchors = (
{
name = bottom;
position = "{349, 0}";
},
{
name = top;
position = "{349, 587}";
}
);
layerId = "A0F5A844-D88E-40D3-8473-9812906C4A28";
paths = (
{
closed = 1;
nodes = (
"437 -9 OFFCURVE",
"502 11 OFFCURVE",
"548 35 CURVE",
"576 161 LINE",
"530 166 LINE",
"486 72 LINE",
"454 53 OFFCURVE",
"420 44 OFFCURVE",
"378 44 CURVE SMOOTH",
"255 44 OFFCURVE",
"157 136 OFFCURVE",
"157 307 CURVE SMOOTH",
"157 436 OFFCURVE",
"222 545 OFFCURVE",
"372 545 CURVE SMOOTH",
"410 545 OFFCURVE",
"456 536 OFFCURVE",
"482 519 CURVE",
"512 424 LINE",
"557 428 LINE",
"550 565 LINE",
"502 585 OFFCURVE",
"435 596 OFFCURVE",
"381 596 CURVE SMOOTH",
"173 596 OFFCURVE",
"52 457 OFFCURVE",
"52 289 CURVE SMOOTH",
"52 92 OFFCURVE",
"194 -9 OFFCURVE",
"368 -9 CURVE SMOOTH"
);
}
);
width = 604;
}
);
leftKerningGroup = O;
note = C;
rightKerningGroup = C;
unicode = 0043;
},
{
glyphname = D;
lastChange = "2021-06-22 16:48:23 +0000";
layers = (
{
anchors = (
{
name = bottom;
position = "{350, 0}";
},
{
name = center;
position = "{370, 294}";
},
{
name = stroke;
position = "{225, 294}";
},
{
name = top;
position = "{360, 587}";
}
);
background = {
anchors = (
{
name = bottom;
position = "{351, 0}";
},
{
name = center;
position = "{371, 294}";
},
{
name = stroke;
position = "{226, 294}";
},
{
name = top;
position = "{361, 587}";
}
);
paths = (
{
closed = 1;
nodes = (
"32 530 LINE",
"98 513 LINE",
"102 507 OFFCURVE",
"105 438 OFFCURVE",
"105 354 CURVE SMOOTH",
"105 234 LINE SMOOTH",
"105 147 OFFCURVE",
"102 81 OFFCURVE",
"98 76 CURVE",
"32 57 LINE",
"36 0 LINE",
"341 0 LINE SMOOTH",
"538 0 OFFCURVE",
"680 127 OFFCURVE",
"680 302 CURVE SMOOTH",
"680 481 OFFCURVE",
"551 587 OFFCURVE",
"333 587 CURVE SMOOTH",
"36 587 LINE"
);
},
{
closed = 1;
nodes = (
"292 516 OFFCURVE",
"310 516 OFFCURVE",
"327 516 CURVE SMOOTH",
"400 516 OFFCURVE",
"498 465 OFFCURVE",
"498 269 CURVE SMOOTH",
"498 130 OFFCURVE",
"450 76 OFFCURVE",
"354 76 CURVE SMOOTH",
"330 76 OFFCURVE",
"298 79 OFFCURVE",
"277 85 CURVE",
"274 113 OFFCURVE",
"272 186 OFFCURVE",
"272 234 CURVE SMOOTH",
"272 354 LINE SMOOTH",
"272 438 OFFCURVE",
"274 503 OFFCURVE",
"274 514 CURVE"
);
}
);
};
layerId = "722FC537-28B1-4F35-B842-D78FAAB5B143";
paths = (
{
closed = 1;
nodes = (
"32 530 LINE",
"97 513 LINE",
"101 507 OFFCURVE",
"104 438 OFFCURVE",
"104 354 CURVE SMOOTH",
"104 234 LINE SMOOTH",
"104 147 OFFCURVE",
"101 81 OFFCURVE",
"97 76 CURVE",
"32 57 LINE",
"35 0 LINE",
"340 0 LINE SMOOTH",
"537 0 OFFCURVE",
"679 127 OFFCURVE",
"679 302 CURVE SMOOTH",
"679 481 OFFCURVE",
"550 587 OFFCURVE",
"332 587 CURVE SMOOTH",
"35 587 LINE"
);
},
{
closed = 1;
nodes = (
"289 515 OFFCURVE",
"309 516 OFFCURVE",
"325 516 CURVE SMOOTH",
"399 516 OFFCURVE",
"497 465 OFFCURVE",
"497 269 CURVE SMOOTH",
"497 130 OFFCURVE",
"449 76 OFFCURVE",
"353 76 CURVE SMOOTH",
"329 76 OFFCURVE",
"297 79 OFFCURVE",
"276 85 CURVE",
"273 113 OFFCURVE",
"271 186 OFFCURVE",
"271 234 CURVE SMOOTH",
"271 354 LINE SMOOTH",
"271 438 OFFCURVE",
"272 501 OFFCURVE",
"273 512 CURVE"
);
}
);
width = 727;
},
{
anchors = (
{
name = bottom;
position = "{324, 0}";
},
{
name = center;
position = "{344, 294}";
},
{
name = stroke;
position = "{200, 294}";
},
{
name = top;
position = "{334, 587}";
}
);
layerId = "A0F5A844-D88E-40D3-8473-9812906C4A28";
paths = (
{
closed = 1;
nodes = (
"47 549 LINE",
"108 535 LINE",
"110 526 OFFCURVE",
"113 466 OFFCURVE",
"113 387 CURVE SMOOTH",
"113 199 LINE SMOOTH",
"113 127 OFFCURVE",
"110 64 OFFCURVE",
"108 52 CURVE",
"47 38 LINE",
"49 0 LINE",
"303 0 LINE SMOOTH",
"493 0 OFFCURVE",
"626 124 OFFCURVE",
"626 300 CURVE SMOOTH",
"626 481 OFFCURVE",
"502 587 OFFCURVE",
"291 587 CURVE SMOOTH",
"49 587 LINE"
);
},
{
closed = 1;
nodes = (
"229 538 OFFCURVE",
"256 540 OFFCURVE",
"280 540 CURVE SMOOTH",
"439 540 OFFCURVE",
"526 445 OFFCURVE",
"526 271 CURVE SMOOTH",
"526 128 OFFCURVE",
"451 51 OFFCURVE",
"310 51 CURVE SMOOTH",
"278 51 OFFCURVE",
"246 54 OFFCURVE",
"203 60 CURVE",
"200 88 OFFCURVE",
"198 138 OFFCURVE",
"198 199 CURVE SMOOTH",
"198 387 LINE SMOOTH",
"198 484 OFFCURVE",
"200 514 OFFCURVE",
"200 533 CURVE"
);
}
);
width = 682;
}
);
leftKerningGroup = H;
note = D;
rightKerningGroup = O;
unicode = 0044;
},
{
glyphname = E;
lastChange = "2023-03-17 08:01:33 +0000";
layers = (
{
anchors = (
{
name = bottom;
position = "{304, 0}";
},
{
name = ogonek;
position = "{546, 0}";
},
{
name = top;
position = "{304, 587}";
},
{
name = topleft;
position = "{33, 587}";
}
);
background = {
anchors = (
{
name = bottom;
position = "{305, 0}";
},
{
name = ogonek;
position = "{547, 0}";
},
{
name = top;
position = "{305, 587}";
},
{
name = topleft;
position = "{34, 587}";
}
);
paths = (
{
closed = 1;
nodes = (
"593 166 LINE",
"529 178 LINE",
"472 75 LINE",
"453 71 OFFCURVE",
"457 71 OFFCURVE",
"401 71 CURVE SMOOTH",
"375 71 LINE SMOOTH",
"325 71 OFFCURVE",
"300 72 OFFCURVE",
"273 76 CURVE",
"271 97 OFFCURVE",
"270 137 OFFCURVE",
"270 217 CURVE SMOOTH",
"270 390 LINE SMOOTH",
"270 468 OFFCURVE",
"271 499 OFFCURVE",
"273 519 CURVE",
"285 521 OFFCURVE",
"314 522 OFFCURVE",
"340 522 CURVE SMOOTH",
"392 522 LINE SMOOTH",
"408 522 OFFCURVE",
"420 521 OFFCURVE",
"442 517 CURVE",
"482 425 LINE",
"548 434 LINE",
"517 593 LINE",
"485 593 OFFCURVE",
"382 587 OFFCURVE",
"332 587 CURVE SMOOTH",
"34 587 LINE",
"31 530 LINE",
"96 511 LINE",
"100 505 OFFCURVE",
"104 432 OFFCURVE",
"104 354 CURVE SMOOTH",
"104 234 LINE SMOOTH",
"104 157 OFFCURVE",
"100 83 OFFCURVE",
"96 76 CURVE",
"31 57 LINE",
"34 0 LINE",
"379 0 LINE",
"430 0 OFFCURVE",
"513 -6 OFFCURVE",
"545 -7 CURVE"
);
},
{
closed = 1;
nodes = (
"472 196 LINE",
"472 404 LINE",
"408 404 LINE",
"399 339 LINE",
"389 341 OFFCURVE",
"364 338 OFFCURVE",
"336 338 CURVE SMOOTH",
"297 338 LINE SMOOTH",
"270 338 OFFCURVE",
"248 341 OFFCURVE",
"244 342 CURVE",
"244 261 LINE",
"248 262 OFFCURVE",
"270 264 OFFCURVE",
"297 264 CURVE SMOOTH",
"336 264 LINE SMOOTH",
"364 264 OFFCURVE",
"389 262 OFFCURVE",
"399 263 CURVE",
"408 196 LINE"
);
}
);
};
layerId = "722FC537-28B1-4F35-B842-D78FAAB5B143";
paths = (
{
closed = 1;
nodes = (
"592 166 LINE",
"528 178 LINE",
"471 75 LINE",
"452 71 OFFCURVE",
"456 71 OFFCURVE",
"400 71 CURVE SMOOTH",
"374 71 LINE SMOOTH",
"324 71 OFFCURVE",
"299 72 OFFCURVE",
"272 76 CURVE",
"270 97 OFFCURVE",
"269 137 OFFCURVE",
"269 217 CURVE SMOOTH",
"269 390 LINE SMOOTH",
"269 468 OFFCURVE",
"270 499 OFFCURVE",
"272 519 CURVE",
"284 521 OFFCURVE",
"313 522 OFFCURVE",
"339 522 CURVE SMOOTH",
"391 522 LINE SMOOTH",
"407 522 OFFCURVE",
"419 521 OFFCURVE",
"441 517 CURVE",
"481 425 LINE",
"547 434 LINE",
"516 593 LINE",
"474 589 OFFCURVE",
"381 587 OFFCURVE",
"331 587 CURVE SMOOTH",
"33 587 LINE",
"30 530 LINE",
"95 511 LINE",
"99 505 OFFCURVE",
"103 432 OFFCURVE",
"103 354 CURVE SMOOTH",
"103 234 LINE SMOOTH",
"103 157 OFFCURVE",
"99 83 OFFCURVE",
"95 76 CURVE",
"30 57 LINE",
"33 0 LINE",
"378 0 LINE",
"429 0 OFFCURVE",
"502 -4 OFFCURVE",
"544 -7 CURVE"
);
},
{
closed = 1;
nodes = (
"471 196 LINE",
"471 404 LINE",
"407 404 LINE",
"398 339 LINE",
"388 339 OFFCURVE",
"363 338 OFFCURVE",
"335 338 CURVE SMOOTH",
"296 338 LINE SMOOTH",
"269 338 OFFCURVE",
"247 341 OFFCURVE",
"243 342 CURVE",
"243 261 LINE",
"247 262 OFFCURVE",
"269 264 OFFCURVE",
"296 264 CURVE SMOOTH",
"335 264 LINE SMOOTH",
"363 264 OFFCURVE",
"388 263 OFFCURVE",
"398 263 CURVE",
"407 196 LINE"
);
}
);
width = 601;
},
{
anchors = (
{
name = bottom;
position = "{280, 0}";
},
{
name = ogonek;
position = "{488, 0}";
},
{
name = top;
position = "{280, 587}";
},
{
name = topleft;
position = "{25, 587}";
}
);
layerId = "A0F5A844-D88E-40D3-8473-9812906C4A28";
paths = (
{
closed = 1;
nodes = (
"527 141 LINE",
"482 150 LINE",
"430 55 LINE",
"420 52 OFFCURVE",
"403 51 OFFCURVE",
"359 51 CURVE SMOOTH",
"262 51 LINE SMOOTH",
"236 51 OFFCURVE",
"217 52 OFFCURVE",
"198 54 CURVE",
"197 66 OFFCURVE",
"196 113 OFFCURVE",
"196 153 CURVE SMOOTH",
"196 423 LINE SMOOTH",
"196 470 OFFCURVE",
"197 527 OFFCURVE",
"198 536 CURVE",
"216 538 OFFCURVE",
"234 539 OFFCURVE",
"260 539 CURVE SMOOTH",
"373 539 LINE SMOOTH",
"388 539 OFFCURVE",
"401 538 OFFCURVE",
"412 536 CURVE",
"445 452 LINE",
"490 459 LINE",
"470 591 LINE",
"431 588 OFFCURVE",
"398 587 OFFCURVE",
"370 587 CURVE SMOOTH",
"49 587 LINE",
"46 549 LINE",
"108 535 LINE",
"111 527 OFFCURVE",
"112 476 OFFCURVE",
"112 387 CURVE SMOOTH",
"112 199 LINE SMOOTH",
"112 111 OFFCURVE",
"111 61 OFFCURVE",
"108 52 CURVE",
"46 38 LINE",
"49 0 LINE",
"392 0 LINE",
"418 0 OFFCURVE",
"447 -1 OFFCURVE",
"486 -5 CURVE"
);
},
{
closed = 1;
nodes = (
"418 205 LINE",
"418 399 LINE",
"375 399 LINE",
"363 330 LINE",
"356 328 OFFCURVE",
"339 327 OFFCURVE",
"317 327 CURVE SMOOTH",
"241 327 LINE SMOOTH",
"223 327 OFFCURVE",
"203 328 OFFCURVE",
"181 329 CURVE",
"181 274 LINE",
"203 275 OFFCURVE",
"223 277 OFFCURVE",
"241 277 CURVE SMOOTH",
"317 277 LINE SMOOTH",
"339 277 OFFCURVE",
"356 275 OFFCURVE",
"363 273 CURVE",
"375 205 LINE"
);
}
);
width = 556;
}
);
leftKerningGroup = H;
note = E;
rightKerningGroup = E;
unicode = 0045;
},
{
glyphname = Eogonek;
lastChange = "2021-06-22 16:48:23 +0000";
layers = (
{
anchors = (
{
name = bottom;
position = "{304, 0}";
},
{
name = top;
position = "{304, 587}";
},
{
name = topleft;
position = "{33, 587}";
}
);
background = {
anchors = (
{
name = bottom;
position = "{305, 0}";
},
{
name = top;
position = "{305, 587}";
},
{
name = topleft;
position = "{34, 587}";
}
);
paths = (
{
closed = 1;
nodes = (
"541 -223 OFFCURVE",
"581 -207 OFFCURVE",
"612 -173 CURVE",
"581 -127 LINE",
"557 -150 OFFCURVE",
"535 -161 OFFCURVE",
"514 -161 CURVE SMOOTH",
"483 -161 OFFCURVE",
"465 -139 OFFCURVE",
"465 -108 CURVE SMOOTH",
"465 -73 OFFCURVE",
"492 -36 OFFCURVE",
"547 0 CURVE",
"593 166 LINE",
"529 178 LINE",
"472 75 LINE",
"453 71 OFFCURVE",
"457 71 OFFCURVE",
"401 71 CURVE SMOOTH",
"375 71 LINE SMOOTH",
"325 71 OFFCURVE",
"300 72 OFFCURVE",
"273 76 CURVE",
"271 97 OFFCURVE",
"270 137 OFFCURVE",
"270 217 CURVE SMOOTH",
"270 390 LINE SMOOTH",
"270 468 OFFCURVE",
"271 499 OFFCURVE",
"273 519 CURVE",
"285 521 OFFCURVE",
"314 522 OFFCURVE",
"340 522 CURVE SMOOTH",
"392 522 LINE SMOOTH",
"408 522 OFFCURVE",
"420 521 OFFCURVE",
"442 517 CURVE",
"482 425 LINE",
"548 434 LINE",
"517 593 LINE",
"485 593 OFFCURVE",
"382 587 OFFCURVE",
"332 587 CURVE SMOOTH",
"34 587 LINE",
"31 530 LINE",
"96 511 LINE",
"100 505 OFFCURVE",
"104 432 OFFCURVE",
"104 354 CURVE SMOOTH",
"104 234 LINE SMOOTH",
"104 157 OFFCURVE",
"100 83 OFFCURVE",
"96 76 CURVE",
"31 57 LINE",
"34 0 LINE",
"464 0 LINE",
"390 -32 OFFCURVE",
"353 -74 OFFCURVE",
"353 -116 CURVE SMOOTH",
"353 -176 OFFCURVE",
"414 -223 OFFCURVE",
"492 -223 CURVE SMOOTH"
);
},
{
closed = 1;
nodes = (
"472 196 LINE",
"472 404 LINE",
"408 404 LINE",
"399 339 LINE",
"389 341 OFFCURVE",
"364 338 OFFCURVE",
"336 338 CURVE SMOOTH",
"297 338 LINE SMOOTH",
"270 338 OFFCURVE",
"248 341 OFFCURVE",
"244 342 CURVE",
"244 261 LINE",
"248 262 OFFCURVE",
"270 264 OFFCURVE",
"297 264 CURVE SMOOTH",
"336 264 LINE SMOOTH",
"364 264 OFFCURVE",
"389 262 OFFCURVE",
"399 263 CURVE",
"408 196 LINE"
);
}
);
};
layerId = "722FC537-28B1-4F35-B842-D78FAAB5B143";
paths = (
{
closed = 1;
nodes = (
"540 -223 OFFCURVE",
"580 -207 OFFCURVE",
"611 -173 CURVE",
"580 -127 LINE",
"556 -150 OFFCURVE",
"534 -161 OFFCURVE",
"513 -161 CURVE SMOOTH",
"482 -161 OFFCURVE",
"464 -139 OFFCURVE",
"464 -108 CURVE SMOOTH",
"464 -73 OFFCURVE",
"491 -36 OFFCURVE",
"546 0 CURVE",
"592 166 LINE",
"528 178 LINE",
"471 75 LINE",
"452 71 OFFCURVE",
"456 71 OFFCURVE",
"400 71 CURVE SMOOTH",
"374 71 LINE SMOOTH",
"324 71 OFFCURVE",
"299 72 OFFCURVE",
"272 76 CURVE",
"270 97 OFFCURVE",
"269 137 OFFCURVE",
"269 217 CURVE SMOOTH",
"269 390 LINE SMOOTH",
"269 468 OFFCURVE",
"270 499 OFFCURVE",
"272 519 CURVE",
"284 521 OFFCURVE",
"313 522 OFFCURVE",
"339 522 CURVE SMOOTH",
"391 522 LINE SMOOTH",
"407 522 OFFCURVE",
"419 521 OFFCURVE",
"441 517 CURVE",
"481 425 LINE",
"547 434 LINE",
"516 593 LINE",
"484 591 OFFCURVE",
"381 587 OFFCURVE",
"331 587 CURVE SMOOTH",
"33 587 LINE",
"30 530 LINE",
"95 511 LINE",
"99 505 OFFCURVE",
"103 432 OFFCURVE",
"103 354 CURVE SMOOTH",
"103 234 LINE SMOOTH",
"103 157 OFFCURVE",
"99 83 OFFCURVE",
"95 76 CURVE",
"30 57 LINE",
"33 0 LINE",
"463 0 LINE",
"389 -32 OFFCURVE",
"352 -74 OFFCURVE",
"352 -116 CURVE SMOOTH",
"352 -176 OFFCURVE",
"413 -223 OFFCURVE",
"491 -223 CURVE SMOOTH"
);
},
{
closed = 1;
nodes = (
"471 196 LINE",
"471 404 LINE",
"407 404 LINE",
"398 339 LINE",
"388 339 OFFCURVE",
"363 338 OFFCURVE",
"335 338 CURVE SMOOTH",
"296 338 LINE SMOOTH",
"269 338 OFFCURVE",
"247 341 OFFCURVE",
"243 342 CURVE",
"243 261 LINE",
"247 262 OFFCURVE",
"269 264 OFFCURVE",
"296 264 CURVE SMOOTH",
"335 264 LINE SMOOTH",
"363 264 OFFCURVE",
"388 263 OFFCURVE",
"398 263 CURVE",
"407 196 LINE"
);
}
);
width = 601;
},
{
anchors = (
{
name = bottom;
position = "{280, 0}";
},
{
name = top;
position = "{280, 587}";
},
{
name = topleft;
position = "{25, 587}";
}
);
layerId = "A0F5A844-D88E-40D3-8473-9812906C4A28";
paths = (
{
closed = 1;
nodes = (
"477 -223 OFFCURVE",
"515 -205 OFFCURVE",
"543 -173 CURVE",
"520 -146 LINE",
"496 -170 OFFCURVE",
"474 -181 OFFCURVE",
"451 -181 CURVE SMOOTH",
"417 -181 OFFCURVE",
"394 -158 OFFCURVE",
"394 -122 CURVE SMOOTH",
"394 -79 OFFCURVE",
"426 -38 OFFCURVE",
"488 0 CURVE",
"527 141 LINE",
"482 150 LINE",
"430 55 LINE",
"420 52 OFFCURVE",
"403 51 OFFCURVE",
"359 51 CURVE SMOOTH",
"262 51 LINE SMOOTH",
"236 51 OFFCURVE",
"217 52 OFFCURVE",
"198 54 CURVE",
"197 66 OFFCURVE",
"196 113 OFFCURVE",
"196 153 CURVE SMOOTH",
"196 423 LINE SMOOTH",
"196 470 OFFCURVE",
"197 527 OFFCURVE",
"198 536 CURVE",
"216 538 OFFCURVE",
"234 539 OFFCURVE",
"260 539 CURVE SMOOTH",
"373 539 LINE SMOOTH",
"388 539 OFFCURVE",
"401 538 OFFCURVE",
"412 536 CURVE",
"445 452 LINE",
"490 459 LINE",
"470 591 LINE",
"431 588 OFFCURVE",
"398 587 OFFCURVE",
"370 587 CURVE SMOOTH",
"49 587 LINE",
"46 549 LINE",
"108 535 LINE",
"111 527 OFFCURVE",
"112 476 OFFCURVE",
"112 387 CURVE SMOOTH",
"112 199 LINE SMOOTH",
"112 111 OFFCURVE",
"111 61 OFFCURVE",
"108 52 CURVE",
"46 38 LINE",
"49 0 LINE",
"428 0 LINE",
"363 -37 OFFCURVE",
"323 -83 OFFCURVE",
"323 -132 CURVE SMOOTH",
"323 -185 OFFCURVE",
"370 -223 OFFCURVE",
"438 -223 CURVE SMOOTH"
);
},
{
closed = 1;
nodes = (
"418 205 LINE",
"418 399 LINE",
"375 399 LINE",
"363 330 LINE",
"356 328 OFFCURVE",
"339 327 OFFCURVE",
"317 327 CURVE SMOOTH",
"241 327 LINE SMOOTH",
"223 327 OFFCURVE",
"203 328 OFFCURVE",
"181 329 CURVE",
"181 274 LINE",
"203 275 OFFCURVE",
"223 277 OFFCURVE",
"241 277 CURVE SMOOTH",
"317 277 LINE SMOOTH",
"339 277 OFFCURVE",
"356 275 OFFCURVE",
"363 273 CURVE",
"375 205 LINE"
);
}
);
width = 556;
}
);
leftKerningGroup = H;
leftMetricsKey = E;
widthMetricsKey = E;
note = Eogonek;
rightKerningGroup = E;
unicode = 0118;
},
{
glyphname = F;
lastChange = "2021-06-22 16:48:23 +0000";
layers = (
{
anchors = (
{
name = bottom;
position = "{185, 0}";
},
{
name = top;
position = "{268, 587}";
}
);
background = {
anchors = (
{
name = bottom;
position = "{186, 0}";
},
{
name = top;
position = "{269, 587}";
}
);
paths = (
{
closed = 1;
nodes = (
"355 0 LINE",
"359 59 LINE",
"278 76 LINE",
"276 84 OFFCURVE",
"271 154 OFFCURVE",
"271 156 CURVE",
"270 400 LINE",
"270 517 OFFCURVE",
"269 501 OFFCURVE",
"270 516 CURVE",
"284 520 OFFCURVE",
"306 522 OFFCURVE",
"331 522 CURVE SMOOTH",
"384 522 LINE SMOOTH",
"400 522 OFFCURVE",
"412 521 OFFCURVE",
"434 517 CURVE",
"475 425 LINE",
"540 434 LINE",
"509 593 LINE",
"477 593 OFFCURVE",
"374 587 OFFCURVE",
"323 587 CURVE SMOOTH",
"36 587 LINE",
"32 530 LINE",
"98 512 LINE",
"101 505 OFFCURVE",
"105 427 OFFCURVE",
"105 344 CURVE",
"104 236 LINE",
"104 161 OFFCURVE",
"100 84 OFFCURVE",
"97 76 CURVE",
"35 57 LINE",
"39 0 LINE"
);
},
{
closed = 1;
nodes = (
"464 184 LINE",
"464 397 LINE",
"398 397 LINE",
"389 333 LINE",
"379 335 OFFCURVE",
"354 331 OFFCURVE",
"327 331 CURVE SMOOTH",
"286 331 LINE SMOOTH",
"259 331 OFFCURVE",
"236 334 OFFCURVE",
"223 335 CURVE",
"223 253 LINE",
"233 254 OFFCURVE",
"257 257 OFFCURVE",
"286 257 CURVE SMOOTH",
"327 257 LINE SMOOTH",
"342 257 OFFCURVE",
"367 256 OFFCURVE",
"389 254 CURVE",
"398 184 LINE"
);
}
);
};
layerId = "722FC537-28B1-4F35-B842-D78FAAB5B143";
paths = (
{
closed = 1;
nodes = (
"355 0 LINE",
"358 59 LINE",
"277 76 LINE",
"275 84 OFFCURVE",
"270 154 OFFCURVE",
"270 156 CURVE",
"269 400 LINE",
"269 517 OFFCURVE",
"268 501 OFFCURVE",
"269 516 CURVE",
"283 520 OFFCURVE",
"305 522 OFFCURVE",
"330 522 CURVE SMOOTH",
"383 522 LINE SMOOTH",
"399 522 OFFCURVE",
"411 521 OFFCURVE",
"433 517 CURVE",
"474 425 LINE",
"539 434 LINE",
"508 593 LINE",
"476 591 OFFCURVE",
"373 587 OFFCURVE",
"322 587 CURVE SMOOTH",
"35 587 LINE",
"32 530 LINE",
"97 512 LINE",
"100 505 OFFCURVE",
"104 427 OFFCURVE",
"104 344 CURVE",
"103 236 LINE",
"103 161 OFFCURVE",
"99 84 OFFCURVE",
"96 76 CURVE",
"34 57 LINE",
"37 0 LINE"
);
},
{
closed = 1;
nodes = (
"463 184 LINE",
"463 397 LINE",
"397 397 LINE",
"388 333 LINE",
"378 333 OFFCURVE",
"353 331 OFFCURVE",
"326 331 CURVE SMOOTH",
"285 331 LINE SMOOTH",
"258 331 OFFCURVE",
"235 334 OFFCURVE",
"222 335 CURVE",
"222 253 LINE",
"232 254 OFFCURVE",
"256 257 OFFCURVE",
"285 257 CURVE SMOOTH",
"326 257 LINE SMOOTH",
"341 257 OFFCURVE",
"366 256 OFFCURVE",
"388 254 CURVE",
"397 184 LINE"
);
}
);
width = 566;
},
{
anchors = (
{
name = bottom;
position = "{156, 0}";
},
{
name = top;
position = "{260, 587}";
}
);
layerId = "A0F5A844-D88E-40D3-8473-9812906C4A28";
paths = (
{
closed = 1;
nodes = (
"280 0 LINE",
"282 40 LINE",
"201 52 LINE",
"199 60 OFFCURVE",
"197 98 OFFCURVE",
"197 193 CURVE",
"196 411 LINE",
"196 474 OFFCURVE",
"196 525 OFFCURVE",
"197 536 CURVE",
"211 538 OFFCURVE",
"240 539 OFFCURVE",
"260 539 CURVE SMOOTH",
"371 539 LINE SMOOTH",
"385 539 OFFCURVE",
"399 538 OFFCURVE",
"408 536 CURVE",
"442 452 LINE",
"488 459 LINE",
"467 591 LINE",
"428 588 OFFCURVE",
"396 587 OFFCURVE",
"367 587 CURVE SMOOTH",
"51 587 LINE",
"48 549 LINE",
"110 535 LINE",
"112 528 OFFCURVE",
"113 485 OFFCURVE",
"113 405 CURVE",
"112 194 LINE",
"112 103 OFFCURVE",
"111 60 OFFCURVE",
"109 52 CURVE",
"52 38 LINE",
"54 0 LINE"
);
},
{
closed = 1;
nodes = (
"415 197 LINE",
"415 395 LINE",
"372 395 LINE",
"359 327 LINE",
"352 325 OFFCURVE",
"338 323 OFFCURVE",
"311 323 CURVE SMOOTH",
"227 323 LINE SMOOTH",
"210 323 OFFCURVE",
"191 325 OFFCURVE",
"175 326 CURVE",
"175 271 LINE",
"197 272 OFFCURVE",
"213 273 OFFCURVE",
"227 273 CURVE SMOOTH",
"311 273 LINE SMOOTH",
"334 273 OFFCURVE",
"351 272 OFFCURVE",
"359 269 CURVE",
"372 197 LINE"
);
}
);
width = 506;
}
);
leftKerningGroup = H;
note = F;
rightKerningGroup = F;
unicode = 0046;
},
{
glyphname = G;
lastChange = "2021-06-22 16:48:23 +0000";
layers = (
{
anchors = (
{
name = bottom;
position = "{353, 0}";
},
{
name = top;
position = "{353, 587}";
}
);
background = {
anchors = (
{
name = bottom;
position = "{354, 0}";
},
{
name = top;
position = "{354, 587}";
}
);
paths = (
{
closed = 1;
nodes = (
"449 -9 OFFCURVE",
"526 7 OFFCURVE",
"587 44 CURVE",
"585 100 OFFCURVE",
"584 125 OFFCURVE",
"584 124 CURVE SMOOTH",
"584 150 OFFCURVE",
"582 191 OFFCURVE",
"587 201 CURVE",
"640 221 LINE",
"636 278 LINE",
"348 278 LINE",
"344 219 LINE",
"417 200 LINE",
"419 182 OFFCURVE",
"422 146 OFFCURVE",
"422 128 CURVE SMOOTH",
"422 21 LINE",
"435 74 LINE",
"423 73 OFFCURVE",
"412 70 OFFCURVE",
"407 70 CURVE SMOOTH",
"313 70 OFFCURVE",
"236 164 OFFCURVE",
"236 309 CURVE SMOOTH",
"236 449 OFFCURVE",
"303 520 OFFCURVE",
"397 520 CURVE SMOOTH",
"412 520 OFFCURVE",
"437 518 OFFCURVE",
"470 505 CURVE",
"503 410 LINE",
"577 412 LINE",
"573 560 LINE",
"536 580 OFFCURVE",
"471 596 OFFCURVE",
"409 596 CURVE SMOOTH",
"206 596 OFFCURVE",
"42 491 OFFCURVE",
"42 275 CURVE SMOOTH",
"42 101 OFFCURVE",
"173 -9 OFFCURVE",
"372 -9 CURVE SMOOTH"
);
}
);
};
layerId = "722FC537-28B1-4F35-B842-D78FAAB5B143";
paths = (
{
closed = 1;
nodes = (
"448 -9 OFFCURVE",
"525 7 OFFCURVE",
"586 44 CURVE",
"584 80 OFFCURVE",
"583 111 OFFCURVE",
"583 124 CURVE SMOOTH",
"583 149 OFFCURVE",
"582 181 OFFCURVE",
"584 201 CURVE",
"637 221 LINE",
"634 278 LINE",
"346 278 LINE",
"343 219 LINE",
"416 200 LINE",
"418 182 OFFCURVE",
"421 146 OFFCURVE",
"421 128 CURVE SMOOTH",
"421 21 LINE",
"444 74 LINE",
"432 72 OFFCURVE",
"414 70 OFFCURVE",
"406 70 CURVE SMOOTH",
"312 70 OFFCURVE",
"235 164 OFFCURVE",
"235 309 CURVE SMOOTH",
"235 449 OFFCURVE",
"302 520 OFFCURVE",
"396 520 CURVE SMOOTH",
"419 520 OFFCURVE",
"444 517 OFFCURVE",
"469 505 CURVE",
"502 410 LINE",
"576 412 LINE",
"572 560 LINE",
"535 580 OFFCURVE",
"470 596 OFFCURVE",
"406 596 CURVE SMOOTH",
"205 596 OFFCURVE",
"41 491 OFFCURVE",
"41 275 CURVE SMOOTH",
"41 101 OFFCURVE",
"172 -9 OFFCURVE",
"371 -9 CURVE SMOOTH"
);
}
);
width = 672;
},
{
anchors = (
{
name = bottom;
position = "{352, 0}";
},
{
name = top;
position = "{352, 587}";
}
);
layerId = "A0F5A844-D88E-40D3-8473-9812906C4A28";
paths = (
{
closed = 1;
nodes = (
"439 -9 OFFCURVE",
"519 12 OFFCURVE",
"571 46 CURVE",
"569 80 OFFCURVE",
"568 109 OFFCURVE",
"568 155 CURVE SMOOTH",
"568 191 OFFCURVE",
"568 218 OFFCURVE",
"568 225 CURVE",
"612 237 LINE",
"610 275 LINE",
"415 275 LINE",
"413 235 LINE",
"481 224 LINE",
"483 207 OFFCURVE",
"485 171 OFFCURVE",
"485 128 CURVE SMOOTH",
"485 23 LINE",
"509 79 LINE",
"473 53 OFFCURVE",
"423 43 OFFCURVE",
"385 43 CURVE SMOOTH",
"255 43 OFFCURVE",
"155 136 OFFCURVE",
"155 307 CURVE SMOOTH",
"155 436 OFFCURVE",
"220 545 OFFCURVE",
"375 545 CURVE SMOOTH",
"412 545 OFFCURVE",
"459 537 OFFCURVE",
"485 519 CURVE",
"514 430 LINE",
"558 434 LINE",
"552 565 LINE",
"506 585 OFFCURVE",
"438 596 OFFCURVE",
"383 596 CURVE SMOOTH",
"173 596 OFFCURVE",
"51 456 OFFCURVE",
"51 288 CURVE SMOOTH",
"51 92 OFFCURVE",
"192 -9 OFFCURVE",
"374 -9 CURVE SMOOTH"
);
}
);
width = 648;
}
);
leftKerningGroup = O;
note = G;
rightKerningGroup = G;
unicode = 0047;
},
{
glyphname = H;
lastChange = "2021-06-22 16:48:23 +0000";
layers = (
{
anchors = (
{
name = bottom;
position = "{363, 0}";
},
{
name = center;
position = "{363, 434}";
},
{
name = top;
position = "{363, 587}";
},
{
name = topleft;
position = "{33, 587}";
}
);
background = {
anchors = (
{
name = bottom;
position = "{364, 0}";
},
{
name = center;
position = "{364, 434}";
},
{
name = top;
position = "{364, 587}";
},
{
name = topleft;
position = "{34, 587}";
}
);
paths = (
{
closed = 1;
nodes = (
"695 0 LINE",
"699 57 LINE",
"633 76 LINE",
"630 87 OFFCURVE",
"625 182 OFFCURVE",
"625 234 CURVE SMOOTH",
"625 354 LINE SMOOTH",
"625 408 OFFCURVE",
"630 503 OFFCURVE",
"633 513 CURVE",
"699 530 LINE",
"695 587 LINE",
"392 587 LINE",
"388 530 LINE",
"451 513 LINE",
"454 503 OFFCURVE",
"458 422 OFFCURVE",
"458 354 CURVE SMOOTH",
"458 234 LINE SMOOTH",
"458 167 OFFCURVE",
"454 87 OFFCURVE",
"451 76 CURVE",
"388 57 LINE",
"392 0 LINE"
);
},
{
closed = 1;
nodes = (
"337 0 LINE",
"340 57 LINE",
"278 76 LINE",
"274 87 OFFCURVE",
"271 167 OFFCURVE",
"271 234 CURVE SMOOTH",
"271 354 LINE SMOOTH",
"271 422 OFFCURVE",
"274 503 OFFCURVE",
"278 513 CURVE",
"340 530 LINE",
"337 587 LINE",
"34 587 LINE",
"31 530 LINE",
"96 513 LINE",
"100 507 OFFCURVE",
"104 431 OFFCURVE",
"104 354 CURVE SMOOTH",
"104 234 LINE SMOOTH",
"104 158 OFFCURVE",
"100 83 OFFCURVE",
"96 76 CURVE",
"31 57 LINE",
"34 0 LINE"
);
},
{
closed = 1;
nodes = (
"268 255 OFFCURVE",
"304 259 OFFCURVE",
"364 259 CURVE SMOOTH",
"424 259 OFFCURVE",
"462 255 OFFCURVE",
"488 255 CURVE",
"488 342 LINE",
"451 338 OFFCURVE",
"420 337 OFFCURVE",
"364 337 CURVE SMOOTH",
"308 337 OFFCURVE",
"277 338 OFFCURVE",
"240 342 CURVE",
"240 255 LINE"
);
}
);
};
layerId = "722FC537-28B1-4F35-B842-D78FAAB5B143";
paths = (
{
closed = 1;
nodes = (
"694 0 LINE",
"697 57 LINE",
"632 76 LINE",
"629 87 OFFCURVE",
"624 182 OFFCURVE",
"624 234 CURVE SMOOTH",
"624 354 LINE SMOOTH",
"624 408 OFFCURVE",
"629 503 OFFCURVE",
"632 513 CURVE",
"697 530 LINE",
"694 587 LINE",
"391 587 LINE",
"388 530 LINE",
"450 513 LINE",
"453 503 OFFCURVE",
"457 422 OFFCURVE",
"457 354 CURVE SMOOTH",
"457 234 LINE SMOOTH",
"457 167 OFFCURVE",
"453 87 OFFCURVE",
"450 76 CURVE",
"388 57 LINE",
"391 0 LINE"
);
},
{
closed = 1;
nodes = (
"336 0 LINE",
"339 57 LINE",
"277 76 LINE",
"273 87 OFFCURVE",
"270 167 OFFCURVE",
"270 234 CURVE SMOOTH",
"270 354 LINE SMOOTH",
"270 422 OFFCURVE",
"273 503 OFFCURVE",
"277 513 CURVE",
"339 530 LINE",
"336 587 LINE",
"33 587 LINE",
"30 530 LINE",
"95 513 LINE",
"99 507 OFFCURVE",
"103 431 OFFCURVE",
"103 354 CURVE SMOOTH",
"103 234 LINE SMOOTH",
"103 158 OFFCURVE",
"99 83 OFFCURVE",
"95 76 CURVE",
"30 57 LINE",
"33 0 LINE"
);
},
{
closed = 1;
nodes = (
"267 255 OFFCURVE",
"303 259 OFFCURVE",
"363 259 CURVE SMOOTH",
"423 259 OFFCURVE",
"461 255 OFFCURVE",
"487 255 CURVE",
"487 342 LINE",
"450 338 OFFCURVE",
"419 337 OFFCURVE",
"363 337 CURVE SMOOTH",
"307 337 OFFCURVE",
"276 338 OFFCURVE",
"239 342 CURVE",
"239 255 LINE"
);
}
);
width = 728;
},
{
anchors = (
{
name = bottom;
position = "{336, 0}";
},
{
name = center;
position = "{336, 434}";
},
{
name = top;
position = "{336, 587}";
},
{
name = topleft;
position = "{25, 587}";
}
);
layerId = "A0F5A844-D88E-40D3-8473-9812906C4A28";
paths = (
{
closed = 1;
nodes = (
"624 0 LINE",
"627 38 LINE",
"565 52 LINE",
"561 60 OFFCURVE",
"559 103 OFFCURVE",
"559 199 CURVE SMOOTH",
"559 387 LINE SMOOTH",
"559 485 OFFCURVE",
"561 528 OFFCURVE",
"565 535 CURVE",
"627 549 LINE",
"624 587 LINE",
"409 587 LINE",
"407 549 LINE",
"468 535 LINE",
"472 528 OFFCURVE",
"474 485 OFFCURVE",
"474 387 CURVE SMOOTH",
"474 199 LINE SMOOTH",
"474 103 OFFCURVE",
"472 60 OFFCURVE",
"468 52 CURVE",
"407 38 LINE",
"409 0 LINE"
);
},
{
closed = 1;
nodes = (
"262 0 LINE",
"264 38 LINE",
"203 52 LINE",
"199 60 OFFCURVE",
"197 103 OFFCURVE",
"197 199 CURVE SMOOTH",
"197 387 LINE SMOOTH",
"197 485 OFFCURVE",
"199 528 OFFCURVE",
"203 535 CURVE",
"264 549 LINE",
"262 587 LINE",
"49 587 LINE",
"46 549 LINE",
"108 535 LINE",
"111 527 OFFCURVE",
"112 477 OFFCURVE",
"112 387 CURVE SMOOTH",
"112 199 LINE SMOOTH",
"112 111 OFFCURVE",
"111 61 OFFCURVE",
"108 52 CURVE",
"46 38 LINE",
"49 0 LINE"
);
},
{
closed = 1;
nodes = (
"214 275 OFFCURVE",
"260 276 OFFCURVE",
"337 276 CURVE SMOOTH",
"412 276 OFFCURVE",
"455 275 OFFCURVE",
"485 272 CURVE",
"485 331 LINE",
"461 329 OFFCURVE",
"409 328 OFFCURVE",
"337 328 CURVE SMOOTH",
"263 328 OFFCURVE",
"211 329 OFFCURVE",
"185 331 CURVE",
"185 272 LINE"
);
}
);
width = 672;
}
);
leftKerningGroup = H;
note = H;
rightKerningGroup = H;
unicode = 0048;
},
{
glyphname = I;
lastChange = "2021-06-22 16:48:23 +0000";
layers = (
{
anchors = (
{
name = bottom;
position = "{187, 0}";
},
{
name = ogonek;
position = "{270, 0}";
},
{
name = top;
position = "{187, 587}";
},
{
name = topleft;
position = "{33, 587}";
}
);
background = {
anchors = (
{
name = bottom;
position = "{188, 0}";
},
{
name = ogonek;
position = "{271, 0}";
},
{
name = top;
position = "{188, 587}";
},
{
name = topleft;
position = "{34, 587}";
}
);
paths = (
{
closed = 1;
nodes = (
"340 0 LINE",
"343 57 LINE",
"278 76 LINE",
"274 87 OFFCURVE",
"271 167 OFFCURVE",
"271 234 CURVE SMOOTH",
"271 354 LINE SMOOTH",
"271 422 OFFCURVE",
"274 503 OFFCURVE",
"278 513 CURVE",
"343 530 LINE",
"340 587 LINE",
"34 587 LINE",
"31 530 LINE",
"96 513 LINE",
"100 507 OFFCURVE",
"104 431 OFFCURVE",
"104 354 CURVE SMOOTH",
"104 234 LINE SMOOTH",
"104 158 OFFCURVE",
"100 83 OFFCURVE",
"96 76 CURVE",
"31 57 LINE",
"34 0 LINE"
);
}
);
};
layerId = "722FC537-28B1-4F35-B842-D78FAAB5B143";
paths = (
{
closed = 1;
nodes = (
"339 0 LINE",
"342 57 LINE",
"277 76 LINE",
"273 87 OFFCURVE",
"270 167 OFFCURVE",
"270 234 CURVE SMOOTH",
"270 354 LINE SMOOTH",
"270 422 OFFCURVE",
"273 503 OFFCURVE",
"277 513 CURVE",
"342 530 LINE",
"339 587 LINE",
"33 587 LINE",
"30 530 LINE",
"95 513 LINE",
"99 507 OFFCURVE",
"103 431 OFFCURVE",
"103 354 CURVE SMOOTH",
"103 234 LINE SMOOTH",
"103 158 OFFCURVE",
"99 83 OFFCURVE",
"95 76 CURVE",
"30 57 LINE",
"33 0 LINE"
);
}
);
width = 374;
},
{
anchors = (
{
name = bottom;
position = "{155, 0}";
},
{
name = ogonek;
position = "{212, 0}";
},
{
name = top;
position = "{155, 587}";
},
{
name = topleft;
position = "{25, 587}";
}
);
layerId = "A0F5A844-D88E-40D3-8473-9812906C4A28";
paths = (
{
closed = 1;
nodes = (
"262 0 LINE",
"264 38 LINE",
"203 52 LINE",
"199 60 OFFCURVE",
"197 103 OFFCURVE",
"197 199 CURVE SMOOTH",
"197 387 LINE SMOOTH",
"197 485 OFFCURVE",
"199 528 OFFCURVE",
"203 535 CURVE",
"264 549 LINE",
"262 587 LINE",
"49 587 LINE",
"47 549 LINE",
"108 535 LINE",
"111 527 OFFCURVE",
"112 477 OFFCURVE",
"112 387 CURVE SMOOTH",
"112 199 LINE SMOOTH",
"112 111 OFFCURVE",
"111 61 OFFCURVE",
"108 52 CURVE",
"47 38 LINE",
"49 0 LINE"
);
}
);
width = 310;
}
);
leftKerningGroup = H;
note = I;
rightKerningGroup = H;
unicode = 0049;
},
{
glyphname = Iogonek;
lastChange = "2021-06-22 16:48:23 +0000";
layers = (
{
anchors = (
{
name = top;
position = "{187, 587}";
},
{
name = topleft;
position = "{34, 587}";
}
);
background = {
anchors = (
{
name = top;
position = "{788, 587}";
},
{
name = topleft;
position = "{635, 587}";
}
);
paths = (
{
closed = 1;
nodes = (
"871 354 LINE SMOOTH",
"871 419 OFFCURVE",
"875 502 OFFCURVE",
"878 512 CURVE",
"944 530 LINE",
"940 587 LINE",
"635 587 LINE",
"631 530 LINE",
"697 512 LINE",
"701 506 OFFCURVE",
"704 432 OFFCURVE",
"704 354 CURVE SMOOTH",
"704 234 LINE SMOOTH",
"704 157 OFFCURVE",
"701 83 OFFCURVE",
"697 76 CURVE",
"631 57 LINE",
"635 0 LINE",
"826 0 LINE",
"838 16 LINE",
"718 -11 OFFCURVE",
"651 -59 OFFCURVE",
"651 -120 CURVE SMOOTH",
"651 -181 OFFCURVE",
"710 -223 OFFCURVE",
"790 -223 CURVE SMOOTH",
"840 -223 OFFCURVE",
"881 -207 OFFCURVE",
"913 -173 CURVE",
"883 -127 LINE",
"863 -148 OFFCURVE",
"838 -161 OFFCURVE",
"816 -161 CURVE SMOOTH",
"785 -161 OFFCURVE",
"764 -138 OFFCURVE",
"764 -106 CURVE SMOOTH",
"764 -51 OFFCURVE",
"848 0 OFFCURVE",
"940 0 CURVE",
"944 57 LINE",
"878 76 LINE",
"875 87 OFFCURVE",
"871 171 OFFCURVE",
"871 234 CURVE SMOOTH"
);
},
{
closed = 1;
nodes = (
"340 0 LINE",
"343 57 LINE",
"278 76 LINE",
"274 87 OFFCURVE",
"271 167 OFFCURVE",
"271 234 CURVE SMOOTH",
"271 354 LINE SMOOTH",
"271 422 OFFCURVE",
"274 503 OFFCURVE",
"278 513 CURVE",
"343 530 LINE",
"340 587 LINE",
"34 587 LINE",
"31 530 LINE",
"96 513 LINE",
"100 507 OFFCURVE",
"104 431 OFFCURVE",
"104 354 CURVE SMOOTH",
"104 234 LINE SMOOTH",
"104 158 OFFCURVE",
"100 83 OFFCURVE",
"96 76 CURVE",
"31 57 LINE",
"34 0 LINE"
);
}
);
};
layerId = "722FC537-28B1-4F35-B842-D78FAAB5B143";
paths = (
{
closed = 1;
nodes = (
"270 354 LINE SMOOTH",
"270 419 OFFCURVE",
"274 503 OFFCURVE",
"277 513 CURVE",
"342 530 LINE",
"339 587 LINE",
"33 587 LINE",
"30 530 LINE",
"95 513 LINE",
"99 507 OFFCURVE",
"103 432 OFFCURVE",
"103 354 CURVE SMOOTH",
"103 234 LINE SMOOTH",
"103 157 OFFCURVE",
"99 83 OFFCURVE",
"95 76 CURVE",
"30 57 LINE",
"33 0 LINE",
"225 0 LINE",
"237 16 LINE",
"117 -11 OFFCURVE",
"50 -59 OFFCURVE",
"50 -120 CURVE SMOOTH",
"50 -181 OFFCURVE",
"109 -223 OFFCURVE",
"189 -223 CURVE SMOOTH",
"239 -223 OFFCURVE",
"280 -207 OFFCURVE",
"312 -173 CURVE",
"282 -127 LINE",
"262 -148 OFFCURVE",
"237 -161 OFFCURVE",
"215 -161 CURVE SMOOTH",
"184 -161 OFFCURVE",
"163 -138 OFFCURVE",
"163 -106 CURVE SMOOTH",
"163 -51 OFFCURVE",
"247 0 OFFCURVE",
"339 0 CURVE",
"342 57 LINE",
"277 76 LINE",
"274 87 OFFCURVE",
"270 171 OFFCURVE",
"270 234 CURVE SMOOTH"
);
}
);
width = 374;
},
{
anchors = (
{
name = top;
position = "{156, 587}";
},
{
name = topleft;
position = "{26, 587}";
}
);
layerId = "A0F5A844-D88E-40D3-8473-9812906C4A28";
paths = (
{
closed = 1;
nodes = (
"197 387 LINE SMOOTH",
"197 483 OFFCURVE",
"199 528 OFFCURVE",
"203 535 CURVE",
"264 549 LINE",
"262 587 LINE",
"49 587 LINE",
"47 549 LINE",
"108 535 LINE",
"111 527 OFFCURVE",
"112 476 OFFCURVE",
"112 387 CURVE SMOOTH",
"112 199 LINE SMOOTH",
"112 111 OFFCURVE",
"111 61 OFFCURVE",
"108 52 CURVE",
"47 38 LINE",
"49 0 LINE",
"194 0 LINE",
"190 11 LINE",
"100 -6 OFFCURVE",
"43 -59 OFFCURVE",
"43 -125 CURVE SMOOTH",
"43 -181 OFFCURVE",
"92 -223 OFFCURVE",
"158 -223 CURVE SMOOTH",
"196 -223 OFFCURVE",
"233 -205 OFFCURVE",
"258 -173 CURVE",
"235 -147 LINE",
"213 -170 OFFCURVE",
"192 -181 OFFCURVE",
"170 -181 CURVE SMOOTH",
"134 -181 OFFCURVE",
"114 -157 OFFCURVE",
"114 -115 CURVE SMOOTH",
"114 -51 OFFCURVE",
"180 0 OFFCURVE",
"262 0 CURVE",
"264 38 LINE",
"204 52 LINE",
"199 60 OFFCURVE",
"197 105 OFFCURVE",
"197 199 CURVE SMOOTH"
);
}
);
width = 310;
}
);
leftKerningGroup = H;
widthMetricsKey = I;
note = Iogonek;
rightKerningGroup = H;
unicode = 012E;
},
{
glyphname = J;
lastChange = "2021-06-22 16:48:23 +0000";
layers = (
{
anchors = (
{
name = top;
position = "{187, 587}";
}
);
background = {
anchors = (
{
name = top;
position = "{188, 587}";
}
);
paths = (
{
closed = 1;
nodes = (
"343 530 LINE",
"340 587 LINE",
"27 587 LINE",
"24 530 LINE",
"96 515 LINE",
"100 504 OFFCURVE",
"104 425 OFFCURVE",
"104 360 CURVE",
"106 -18 LINE",
"106 -134 OFFCURVE",
"104 -146 OFFCURVE",
"61 -139 CURVE",
"130 -164 LINE",
"47 -88 LINE SMOOTH",
"18 -61 OFFCURVE",
"-5 -49 OFFCURVE",
"-34 -49 CURVE SMOOTH",
"-67 -49 OFFCURVE",
"-90 -74 OFFCURVE",
"-90 -112 CURVE SMOOTH",
"-90 -167 OFFCURVE",
"-27 -203 OFFCURVE",
"69 -203 CURVE SMOOTH",
"191 -203 OFFCURVE",
"273 -124 OFFCURVE",
"273 -4 CURVE",
"271 357 LINE",
"271 430 OFFCURVE",
"274 504 OFFCURVE",
"278 513 CURVE"
);
}
);
};
layerId = "722FC537-28B1-4F35-B842-D78FAAB5B143";
paths = (
{
closed = 1;
nodes = (
"342 530 LINE",
"339 587 LINE",
"26 587 LINE",
"23 530 LINE",
"95 515 LINE",
"99 504 OFFCURVE",
"103 425 OFFCURVE",
"103 360 CURVE",
"105 -18 LINE",
"105 -134 OFFCURVE",
"103 -146 OFFCURVE",
"60 -139 CURVE",
"129 -164 LINE",
"46 -88 LINE SMOOTH",
"17 -61 OFFCURVE",
"-6 -49 OFFCURVE",
"-35 -49 CURVE SMOOTH",
"-66 -49 OFFCURVE",
"-93 -74 OFFCURVE",
"-93 -111 CURVE SMOOTH",
"-93 -167 OFFCURVE",
"-28 -203 OFFCURVE",
"68 -203 CURVE SMOOTH",
"190 -203 OFFCURVE",
"272 -124 OFFCURVE",
"272 -4 CURVE",
"270 357 LINE",
"270 430 OFFCURVE",
"273 504 OFFCURVE",
"277 513 CURVE"
);
}
);
width = 374;
},
{
anchors = (
{
name = top;
position = "{155, 587}";
}
);
layerId = "A0F5A844-D88E-40D3-8473-9812906C4A28";
paths = (
{
closed = 1;
nodes = (
"264 549 LINE",
"262 587 LINE",
"42 587 LINE",
"40 549 LINE",
"108 535 LINE",
"111 524 OFFCURVE",
"112 474 OFFCURVE",
"112 387 CURVE",
"112 -27 LINE",
"112 -131 OFFCURVE",
"88 -171 OFFCURVE",
"31 -161 CURVE",
"66 -173 LINE",
"14 -121 LINE SMOOTH",
"-4 -103 OFFCURVE",
"-20 -95 OFFCURVE",
"-38 -95 CURVE SMOOTH",
"-62 -95 OFFCURVE",
"-77 -110 OFFCURVE",
"-77 -132 CURVE SMOOTH",
"-77 -170 OFFCURVE",
"-25 -203 OFFCURVE",
"37 -203 CURVE SMOOTH",
"137 -203 OFFCURVE",
"198 -125 OFFCURVE",
"198 16 CURVE",
"197 387 LINE",
"197 483 OFFCURVE",
"199 528 OFFCURVE",
"203 535 CURVE"
);
}
);
width = 310;
}
);
leftKerningGroup = J;
note = J;
rightKerningGroup = J;
unicode = 004A;
},
{
glyphname = K;
lastChange = "2021-06-22 16:48:23 +0000";
layers = (
{
anchors = (
{
name = bottom;
position = "{345, 0}";
},
{
name = top;
position = "{345, 587}";
}
);
background = {
anchors = (
{
name = bottom;
position = "{346, 0}";
},
{
name = top;
position = "{346, 587}";
}
);
paths = (
{
closed = 1;
nodes = (
"718 0 LINE",
"718 58 LINE",
"665 64 LINE",
"658 72 OFFCURVE",
"645 83 OFFCURVE",
"590 151 CURVE SMOOTH",
"396 392 LINE",
"404 340 LINE",
"609 517 LINE",
"682 528 LINE",
"679 587 LINE",
"429 587 LINE",
"426 530 LINE",
"491 519 LINE",
"285 309 LINE",
"251 303 LINE",
"251 250 LINE",
"287 250 LINE",
"392 115 LINE SMOOTH",
"412 88 OFFCURVE",
"415 82 OFFCURVE",
"422 67 CURVE",
"375 57 LINE",
"379 0 LINE"
);
},
{
closed = 1;
nodes = (
"320 0 LINE",
"323 57 LINE",
"277 76 LINE",
"274 83 OFFCURVE",
"272 152 OFFCURVE",
"272 234 CURVE SMOOTH",
"272 354 LINE SMOOTH",
"272 423 OFFCURVE",
"275 501 OFFCURVE",
"279 511 CURVE",
"344 530 LINE",
"341 587 LINE",
"35 587 LINE",
"32 530 LINE",
"97 511 LINE",
"101 505 OFFCURVE",
"105 431 OFFCURVE",
"105 354 CURVE SMOOTH",
"105 234 LINE SMOOTH",
"105 152 OFFCURVE",
"103 83 OFFCURVE",
"100 76 CURVE",
"35 57 LINE",
"38 0 LINE"
);
}
);
};
layerId = "722FC537-28B1-4F35-B842-D78FAAB5B143";
paths = (
{
closed = 1;
nodes = (
"717 0 LINE",
"717 58 LINE",
"664 64 LINE",
"657 72 OFFCURVE",
"644 83 OFFCURVE",
"589 151 CURVE SMOOTH",
"395 392 LINE",
"403 340 LINE",
"608 517 LINE",
"681 528 LINE",
"678 587 LINE",
"428 587 LINE",
"425 530 LINE",
"490 519 LINE",
"284 309 LINE",
"250 303 LINE",
"250 250 LINE",
"286 250 LINE",
"391 115 LINE SMOOTH",
"411 88 OFFCURVE",
"414 82 OFFCURVE",
"421 67 CURVE",
"374 57 LINE",
"379 0 LINE"
);
},
{
closed = 1;
nodes = (
"319 0 LINE",
"322 57 LINE",
"276 76 LINE",
"273 83 OFFCURVE",
"271 152 OFFCURVE",
"271 234 CURVE SMOOTH",
"271 354 LINE SMOOTH",
"271 423 OFFCURVE",
"274 501 OFFCURVE",
"278 511 CURVE",
"343 530 LINE",
"340 587 LINE",
"34 587 LINE",
"31 530 LINE",
"96 511 LINE",
"100 505 OFFCURVE",
"104 431 OFFCURVE",
"104 354 CURVE SMOOTH",
"104 234 LINE SMOOTH",
"104 152 OFFCURVE",
"102 83 OFFCURVE",
"99 76 CURVE",
"34 57 LINE",
"37 0 LINE"
);
}
);
width = 704;
},
{
anchors = (
{
name = bottom;
position = "{316, 0}";
},
{
name = top;
position = "{316, 587}";
}
);
layerId = "A0F5A844-D88E-40D3-8473-9812906C4A28";
paths = (
{
closed = 1;
nodes = (
"596 0 LINE",
"596 39 LINE",
"546 51 LINE",
"531 65 OFFCURVE",
"510 89 OFFCURVE",
"477 126 CURVE SMOOTH",
"286 339 LINE",
"283 309 LINE",
"524 537 LINE",
"582 547 LINE",
"580 587 LINE",
"387 587 LINE",
"385 549 LINE",
"446 536 LINE",
"240 323 LINE",
"187 309 LINE",
"187 272 LINE",
"229 272 LINE",
"382 98 LINE SMOOTH",
"399 79 OFFCURVE",
"411 62 OFFCURVE",
"421 48 CURVE",
"361 38 LINE",
"363 0 LINE"
);
},
{
closed = 1;
nodes = (
"260 0 LINE",
"263 38 LINE",
"202 52 LINE",
"200 61 OFFCURVE",
"198 111 OFFCURVE",
"198 199 CURVE SMOOTH",
"198 387 LINE SMOOTH",
"198 483 OFFCURVE",
"200 528 OFFCURVE",
"204 535 CURVE",
"265 549 LINE",
"263 587 LINE",
"50 587 LINE",
"47 549 LINE",
"109 535 LINE",
"112 527 OFFCURVE",
"113 477 OFFCURVE",
"113 387 CURVE SMOOTH",
"113 199 LINE SMOOTH",
"113 111 OFFCURVE",
"111 61 OFFCURVE",
"109 52 CURVE",
"48 38 LINE",
"51 0 LINE"
);
}
);
width = 588;
}
);
leftKerningGroup = H;
note = K;
rightKerningGroup = K;
unicode = 004B;
},
{
glyphname = L;
lastChange = "2021-06-22 16:48:23 +0000";
layers = (
{
anchors = (
{
name = bottom;
position = "{312, 0}";
},
{
name = center;
position = "{211, 303}";
},
{
name = dotacc;
position = "{415, 320}";
},
{
name = top;
position = "{186, 587}";
},
{
name = topright;
position = "{395, 587}";
}
);
background = {
anchors = (
{
name = bottom;
position = "{313, 0}";
},
{
name = center;
position = "{212, 303}";
},
{
name = dotacc;
position = "{416, 320}";
},
{
name = top;
position = "{187, 587}";
},
{
name = topright;
position = "{396, 587}";
}
);
paths = (
{
closed = 1;
nodes = (
"575 189 LINE",
"503 207 LINE",
"445 91 LINE",
"435 88 OFFCURVE",
"432 84 OFFCURVE",
"374 84 CURVE SMOOTH",
"374 84 LINE SMOOTH",
"326 84 OFFCURVE",
"302 85 OFFCURVE",
"277 89 CURVE",
"273 109 OFFCURVE",
"272 149 OFFCURVE",
"272 234 CURVE SMOOTH",
"272 354 LINE SMOOTH",
"272 428 OFFCURVE",
"276 503 OFFCURVE",
"279 510 CURVE",
"362 528 LINE",
"358 587 LINE",
"35 587 LINE",
"31 530 LINE",
"97 512 LINE",
"101 502 OFFCURVE",
"104 423 OFFCURVE",
"104 354 CURVE SMOOTH",
"104 234 LINE SMOOTH",
"104 168 OFFCURVE",
"101 86 OFFCURVE",
"97 76 CURVE",
"31 57 LINE",
"35 0 LINE",
"327 0 LINE",
"363 0 OFFCURVE",
"469 -4 OFFCURVE",
"521 -8 CURVE"
);
}
);
};
layerId = "722FC537-28B1-4F35-B842-D78FAAB5B143";
paths = (
{
closed = 1;
nodes = (
"574 189 LINE",
"502 207 LINE",
"444 91 LINE",
"434 88 OFFCURVE",
"406 84 OFFCURVE",
"383 84 CURVE SMOOTH",
"363 84 LINE SMOOTH",
"325 84 OFFCURVE",
"301 85 OFFCURVE",
"276 89 CURVE",
"272 109 OFFCURVE",
"271 149 OFFCURVE",
"271 234 CURVE SMOOTH",
"271 354 LINE SMOOTH",
"271 428 OFFCURVE",
"275 503 OFFCURVE",
"278 510 CURVE",
"361 528 LINE",
"358 587 LINE",
"34 587 LINE",
"31 530 LINE",
"96 512 LINE",
"100 502 OFFCURVE",
"103 423 OFFCURVE",
"103 354 CURVE SMOOTH",
"103 234 LINE SMOOTH",
"103 168 OFFCURVE",
"100 86 OFFCURVE",
"96 76 CURVE",
"31 57 LINE",
"34 0 LINE",
"326 0 LINE",
"362 0 OFFCURVE",
"458 -2 OFFCURVE",
"520 -8 CURVE"
);
}
);
width = 581;
},
{
anchors = (
{
name = bottom;
position = "{279, 0}";
},
{
name = center;
position = "{192, 303}";
},
{
name = dotacc;
position = "{345.99, 320}";
},
{
name = top;
position = "{156, 587}";
},
{
name = topright;
position = "{365, 587}";
}
);
layerId = "A0F5A844-D88E-40D3-8473-9812906C4A28";
paths = (
{
closed = 1;
nodes = (
"508 148 LINE",
"463 158 LINE",
"411 60 LINE",
"390 57 OFFCURVE",
"370 56 OFFCURVE",
"340 56 CURVE SMOOTH",
"265 56 LINE SMOOTH",
"239 56 OFFCURVE",
"220 57 OFFCURVE",
"202 59 CURVE",
"200 73 OFFCURVE",
"199 130 OFFCURVE",
"199 199 CURVE SMOOTH",
"199 387 LINE SMOOTH",
"199 483 OFFCURVE",
"201 527 OFFCURVE",
"205 534 CURVE",
"288 547 LINE",
"285 587 LINE",
"50 587 LINE",
"48 549 LINE",
"109 534 LINE",
"113 526 OFFCURVE",
"113 476 OFFCURVE",
"113 387 CURVE SMOOTH",
"113 199 LINE SMOOTH",
"113 111 OFFCURVE",
"111 61 OFFCURVE",
"109 52 CURVE",
"48 38 LINE",
"50 0 LINE",
"370 0 LINE",
"397 0 OFFCURVE",
"439 -2 OFFCURVE",
"467 -5 CURVE"
);
}
);
width = 511;
}
);
leftKerningGroup = H;
note = L;
rightKerningGroup = L;
unicode = 004C;
},
{
glyphname = M;
lastChange = "2021-06-22 16:48:23 +0000";
layers = (
{
anchors = (
{
name = bottom;
position = "{424, 0}";
},
{
name = top;
position = "{424, 587}";
}
);
background = {
anchors = (
{
name = bottom;
position = "{425, 0}";
},
{
name = top;
position = "{425, 587}";
}
);
paths = (
{
closed = 1;
nodes = (
"42 530 LINE",
"108 511 LINE",
"107 516 OFFCURVE",
"108 503 OFFCURVE",
"107 390 CURVE SMOOTH",
"106 203 LINE SMOOTH",
"105 160 OFFCURVE",
"101 85 OFFCURVE",
"99 76 CURVE",
"28 57 LINE",
"32 0 LINE",
"265 0 LINE",
"269 57 LINE",
"198 76 LINE",
"196 80 OFFCURVE",
"195 114 OFFCURVE",
"195 210 CURVE SMOOTH",
"194 558 LINE",
"107 558 LINE",
"387 -3 LINE",
"468 -3 LINE",
"704 558 LINE",
"645 558 LINE",
"649 231 LINE SMOOTH",
"650 155 OFFCURVE",
"649 82 OFFCURVE",
"645 76 CURVE",
"579 57 LINE",
"583 0 LINE",
"894 0 LINE",
"898 57 LINE",
"832 76 LINE",
"831 77 OFFCURVE",
"824 149 OFFCURVE",
"819 223 CURVE SMOOTH",
"812 393 LINE SMOOTH",
"808 489 OFFCURVE",
"808 505 OFFCURVE",
"810 512 CURVE",
"876 530 LINE",
"874 587 LINE",
"630 587 LINE",
"452 166 LINE",
"488 166 LINE",
"279 587 LINE",
"46 587 LINE"
);
}
);
};
layerId = "722FC537-28B1-4F35-B842-D78FAAB5B143";
paths = (
{
closed = 1;
nodes = (
"42 530 LINE",
"107 511 LINE",
"107 496 OFFCURVE",
"107 453 OFFCURVE",
"106 390 CURVE SMOOTH",
"104 213 LINE SMOOTH",
"103 160 OFFCURVE",
"102 85 OFFCURVE",
"100 76 CURVE",
"29 57 LINE",
"32 0 LINE",
"265 0 LINE",
"268 57 LINE",
"197 76 LINE",
"195 80 OFFCURVE",
"194 114 OFFCURVE",
"194 210 CURVE SMOOTH",
"193 558 LINE",
"106 558 LINE",
"386 -3 LINE",
"467 -3 LINE",
"703 558 LINE",
"644 558 LINE",
"648 231 LINE SMOOTH",
"649 155 OFFCURVE",
"648 82 OFFCURVE",
"645 76 CURVE",
"580 57 LINE",
"583 0 LINE",
"892 0 LINE",
"895 57 LINE",
"830 76 LINE",
"828 80 OFFCURVE",
"821 149 OFFCURVE",
"818 223 CURVE SMOOTH",
"811 393 LINE SMOOTH",
"809 449 OFFCURVE",
"808 485 OFFCURVE",
"809 512 CURVE",
"874 530 LINE",
"871 587 LINE",
"629 587 LINE",
"451 166 LINE",
"487 166 LINE",
"278 587 LINE",
"45 587 LINE"
);
}
);
width = 922;
},
{
anchors = (
{
name = bottom;
position = "{413, 0}";
},
{
name = top;
position = "{413, 587}";
}
);
layerId = "A0F5A844-D88E-40D3-8473-9812906C4A28";
paths = (
{
closed = 1;
nodes = (
"54 549 LINE",
"115 535 LINE",
"115 512 OFFCURVE",
"116 460 OFFCURVE",
"115 401 CURVE SMOOTH",
"112 203 LINE SMOOTH",
"111 116 OFFCURVE",
"110 66 OFFCURVE",
"108 52 CURVE",
"40 38 LINE",
"43 0 LINE",
"239 0 LINE",
"242 38 LINE",
"174 52 LINE",
"173 64 OFFCURVE",
"172 108 OFFCURVE",
"172 219 CURVE SMOOTH",
"171 559 LINE",
"145 559 LINE",
"393 -3 LINE",
"428 -3 LINE",
"670 558 LINE",
"644 558 LINE",
"646 203 LINE SMOOTH",
"647 103 OFFCURVE",
"647 74 OFFCURVE",
"646 51 CURVE",
"585 38 LINE",
"588 0 LINE",
"800 0 LINE",
"802 38 LINE",
"741 51 LINE",
"739 71 OFFCURVE",
"737 118 OFFCURVE",
"735 218 CURVE",
"731 401 LINE SMOOTH",
"730 460 OFFCURVE",
"729 517 OFFCURVE",
"730 536 CURVE",
"792 549 LINE",
"789 587 LINE",
"627 587 LINE",
"421 108 LINE",
"439 108 LINE",
"229 587 LINE",
"56 587 LINE"
);
}
);
width = 850;
}
);
leftKerningGroup = H;
note = M;
rightKerningGroup = H;
unicode = 004D;
},
{
glyphname = N;
lastChange = "2021-06-22 16:48:23 +0000";
layers = (
{
anchors = (
{
name = bottom;
position = "{358, 0}";
},
{
name = top;
position = "{358, 587}";
}
);
background = {
anchors = (
{
name = bottom;
position = "{359, 0}";
},
{
name = top;
position = "{359, 587}";
}
);
paths = (
{
closed = 1;
nodes = (
"586 210 LINE",
"208 587 LINE",
"36 587 LINE",
"32 530 LINE",
"98 511 LINE",
"100 514 OFFCURVE",
"105 417 OFFCURVE",
"105 394 CURVE SMOOTH",
"105 286 LINE SMOOTH",
"105 196 OFFCURVE",
"102 89 OFFCURVE",
"98 76 CURVE",
"32 57 LINE",
"36 0 LINE",
"269 0 LINE",
"272 57 LINE",
"201 76 LINE",
"194 90 OFFCURVE",
"193 185 OFFCURVE",
"193 286 CURVE SMOOTH",
"193 442 LINE",
"119 442 LINE",
"543 -6 LINE",
"614 -6 LINE",
"614 41 OFFCURVE",
"615 85 OFFCURVE",
"615 159 CURVE SMOOTH",
"615 320 LINE SMOOTH",
"615 405 OFFCURVE",
"617 501 OFFCURVE",
"622 511 CURVE",
"687 530 LINE",
"684 587 LINE",
"457 587 LINE",
"453 530 LINE",
"524 511 LINE",
"529 501 OFFCURVE",
"531 404 OFFCURVE",
"531 320 CURVE SMOOTH",
"531 210 LINE"
);
}
);
};
layerId = "722FC537-28B1-4F35-B842-D78FAAB5B143";
paths = (
{
closed = 1;
nodes = (
"585 210 LINE",
"207 587 LINE",
"35 587 LINE",
"32 530 LINE",
"97 511 LINE",
"99 494 OFFCURVE",
"104 417 OFFCURVE",
"104 394 CURVE SMOOTH",
"104 286 LINE SMOOTH",
"104 196 OFFCURVE",
"101 89 OFFCURVE",
"97 76 CURVE",
"32 57 LINE",
"35 0 LINE",
"268 0 LINE",
"271 57 LINE",
"200 76 LINE",
"193 90 OFFCURVE",
"192 185 OFFCURVE",
"192 286 CURVE SMOOTH",
"192 442 LINE",
"118 442 LINE",
"542 -6 LINE",
"613 -6 LINE",
"613 41 OFFCURVE",
"614 85 OFFCURVE",
"614 159 CURVE SMOOTH",
"614 320 LINE SMOOTH",
"614 405 OFFCURVE",
"616 501 OFFCURVE",
"621 511 CURVE",
"686 530 LINE",
"683 587 LINE",
"455 587 LINE",
"452 530 LINE",
"523 511 LINE",
"528 501 OFFCURVE",
"530 404 OFFCURVE",
"530 320 CURVE SMOOTH",
"530 210 LINE"
);
}
);
width = 719;
},
{
anchors = (
{
name = bottom;
position = "{338, 0}";
},
{
name = top;
position = "{338, 587}";
}
);
color = 3;
layerId = "A0F5A844-D88E-40D3-8473-9812906C4A28";
paths = (
{
closed = 1;
nodes = (
"523 143 LINE",
"187 587 LINE",
"50 587 LINE",
"47 549 LINE",
"108 535 LINE",
"111 523 OFFCURVE",
"114 484 OFFCURVE",
"114 394 CURVE SMOOTH",
"114 223 LINE SMOOTH",
"114 103 OFFCURVE",
"110 59 OFFCURVE",
"108 52 CURVE",
"47 38 LINE",
"50 0 LINE",
"242 0 LINE",
"245 38 LINE",
"177 52 LINE",
"175 59 OFFCURVE",
"171 103 OFFCURVE",
"171 223 CURVE SMOOTH",
"171 491 LINE",
"149 491 LINE",
"517 -4 LINE",
"562 -4 LINE",
"561 43 OFFCURVE",
"561 87 OFFCURVE",
"561 129 CURVE SMOOTH",
"561 367 LINE SMOOTH",
"561 484 OFFCURVE",
"565 529 OFFCURVE",
"566 535 CURVE",
"628 549 LINE",
"625 587 LINE",
"435 587 LINE",
"432 549 LINE",
"500 535 LINE",
"502 529 OFFCURVE",
"505 484 OFFCURVE",
"505 367 CURVE SMOOTH",
"505 143 LINE"
);
}
);
width = 674;
}
);
leftKerningGroup = H;
note = N;
rightKerningGroup = N;
unicode = 004E;
},
{
glyphname = Eng;
lastChange = "2021-06-22 16:48:23 +0000";
layers = (
{
background = {
paths = (
{
closed = 1;
nodes = (
"586 210 LINE",
"208 587 LINE",
"36 587 LINE",
"33 530 LINE",
"98 511 LINE",
"100 494 OFFCURVE",
"105 417 OFFCURVE",
"105 394 CURVE SMOOTH",
"105 286 LINE SMOOTH",
"105 196 OFFCURVE",
"102 89 OFFCURVE",
"98 76 CURVE",
"33 57 LINE",
"36 0 LINE",
"269 0 LINE",
"272 57 LINE",
"201 76 LINE",
"194 90 OFFCURVE",
"193 185 OFFCURVE",
"193 286 CURVE SMOOTH",
"193 442 LINE",
"119 442 LINE",
"543 -6 LINE",
"614 -6 LINE",
"614 41 OFFCURVE",
"615 85 OFFCURVE",
"615 159 CURVE SMOOTH",
"615 320 LINE SMOOTH",
"615 405 OFFCURVE",
"617 501 OFFCURVE",
"622 511 CURVE",
"687 530 LINE",
"684 587 LINE",
"456 587 LINE",
"453 530 LINE",
"524 511 LINE",
"529 501 OFFCURVE",
"531 404 OFFCURVE",
"531 320 CURVE SMOOTH",
"531 210 LINE"
);
}
);
};
layerId = "722FC537-28B1-4F35-B842-D78FAAB5B143";
paths = (
{
closed = 1;
nodes = (
"557 -203 OFFCURVE",
"614 -121 OFFCURVE",
"614 65 CURVE SMOOTH",
"614 320 LINE SMOOTH",
"614 431 OFFCURVE",
"617 502 OFFCURVE",
"621 511 CURVE",
"686 530 LINE",
"683 587 LINE",
"456 587 LINE",
"452 530 LINE",
"523 511 LINE",
"527 502 OFFCURVE",
"530 420 OFFCURVE",
"530 320 CURVE SMOOTH",
"530 210 LINE",
"585 210 LINE",
"207 587 LINE",
"35 587 LINE",
"32 530 LINE",
"97 511 LINE",
"99 495 OFFCURVE",
"104 436 OFFCURVE",
"104 394 CURVE SMOOTH",
"104 286 LINE SMOOTH",
"104 174 OFFCURVE",
"101 87 OFFCURVE",
"97 76 CURVE",
"32 57 LINE",
"35 0 LINE",
"268 0 LINE",
"271 57 LINE",
"200 76 LINE",
"193 90 OFFCURVE",
"192 178 OFFCURVE",
"192 286 CURVE SMOOTH",
"192 442 LINE",
"118 442 LINE",
"542 -6 LINE",
"530 89 LINE",
"530 -10 LINE SMOOTH",
"530 -96 OFFCURVE",
"492 -144 OFFCURVE",
"431 -134 CURVE",
"495 -162 LINE",
"409 -85 LINE SMOOTH",
"377 -56 OFFCURVE",
"355 -45 OFFCURVE",
"326 -45 CURVE SMOOTH",
"291 -45 OFFCURVE",
"267 -69 OFFCURVE",
"267 -104 CURVE SMOOTH",
"267 -162 OFFCURVE",
"335 -203 OFFCURVE",
"416 -203 CURVE SMOOTH"
);
}
);
width = 719;
},
{
color = 3;
layerId = "A0F5A844-D88E-40D3-8473-9812906C4A28";
paths = (
{
closed = 1;
nodes = (
"501 -203 OFFCURVE",
"561 -119 OFFCURVE",
"561 16 CURVE SMOOTH",
"561 367 LINE SMOOTH",
"561 485 OFFCURVE",
"565 529 OFFCURVE",
"566 535 CURVE",
"627 549 LINE",
"625 587 LINE",
"435 587 LINE",
"432 549 LINE",
"500 535 LINE",
"502 529 OFFCURVE",
"505 485 OFFCURVE",
"505 367 CURVE SMOOTH",
"505 143 LINE",
"523 143 LINE",
"187 587 LINE",
"50 587 LINE",
"47 549 LINE",
"108 535 LINE",
"111 523 OFFCURVE",
"114 485 OFFCURVE",
"114 394 CURVE SMOOTH",
"114 223 LINE SMOOTH",
"114 108 OFFCURVE",
"110 59 OFFCURVE",
"108 52 CURVE",
"47 38 LINE",
"50 0 LINE",
"242 0 LINE",
"245 38 LINE",
"177 52 LINE",
"175 60 OFFCURVE",
"171 108 OFFCURVE",
"171 223 CURVE SMOOTH",
"171 491 LINE",
"149 491 LINE",
"517 -4 LINE",
"504 80 LINE",
"504 -3 LINE SMOOTH",
"504 -102 OFFCURVE",
"458 -169 OFFCURVE",
"394 -158 CURVE",
"438 -171 LINE",
"383 -118 LINE SMOOTH",
"363 -99 OFFCURVE",
"346 -91 OFFCURVE",
"328 -91 CURVE SMOOTH",
"303 -91 OFFCURVE",
"287 -105 OFFCURVE",
"287 -128 CURVE SMOOTH",
"287 -167 OFFCURVE",
"339 -203 OFFCURVE",
"400 -203 CURVE SMOOTH"
);
}
);
width = 674;
}
);
leftKerningGroup = H;
leftMetricsKey = N;
widthMetricsKey = N;
note = Eng;
rightKerningGroup = J;
unicode = 014A;
},
{
glyphname = O;
lastChange = "2021-06-22 16:48:23 +0000";
layers = (
{
anchors = (
{
name = bottom;
position = "{363, 0}";
},
{
name = center;
position = "{363, 294}";
},
{
name = ogonek;
position = "{438, 0}";
},
{
name = top;
position = "{363, 587}";
},
{
name = topleft;
position = "{17, 587}";
},
{
name = topright;
position = "{708, 587}";
}
);
background = {
anchors = (
{
name = bottom;
position = "{364, 0}";
},
{
name = center;
position = "{364, 294}";
},
{
name = ogonek;
position = "{439, 0}";
},
{
name = top;
position = "{364, 587}";
},
{
name = topleft;
position = "{18, 587}";
},
{
name = topright;
position = "{709, 587}";
}
);
paths = (
{
closed = 1;
nodes = (
"491 -9 OFFCURVE",
"685 80 OFFCURVE",
"685 304 CURVE SMOOTH",
"685 476 OFFCURVE",
"555 596 OFFCURVE",
"370 596 CURVE SMOOTH",
"179 596 OFFCURVE",
"42 464 OFFCURVE",
"42 283 CURVE SMOOTH",
"42 114 OFFCURVE",
"181 -9 OFFCURVE",
"371 -9 CURVE SMOOTH"
);
},
{
closed = 1;
nodes = (
"292 78 OFFCURVE",
"235 177 OFFCURVE",
"235 319 CURVE SMOOTH",
"235 445 OFFCURVE",
"282 519 OFFCURVE",
"358 519 CURVE SMOOTH",
"441 519 OFFCURVE",
"493 426 OFFCURVE",
"493 277 CURVE SMOOTH",
"493 147 OFFCURVE",
"458 78 OFFCURVE",
"377 78 CURVE SMOOTH"
);
}
);
};
layerId = "722FC537-28B1-4F35-B842-D78FAAB5B143";
paths = (
{
closed = 1;
nodes = (
"490 -9 OFFCURVE",
"684 80 OFFCURVE",
"684 304 CURVE SMOOTH",
"684 476 OFFCURVE",
"554 596 OFFCURVE",
"369 596 CURVE SMOOTH",
"178 596 OFFCURVE",
"41 464 OFFCURVE",
"41 283 CURVE SMOOTH",
"41 114 OFFCURVE",
"180 -9 OFFCURVE",
"370 -9 CURVE SMOOTH"
);
},
{
closed = 1;
nodes = (
"291 78 OFFCURVE",
"234 177 OFFCURVE",
"234 319 CURVE SMOOTH",
"234 445 OFFCURVE",
"281 519 OFFCURVE",
"357 519 CURVE SMOOTH",
"440 519 OFFCURVE",
"492 426 OFFCURVE",
"492 277 CURVE SMOOTH",
"492 147 OFFCURVE",
"457 78 OFFCURVE",
"376 78 CURVE SMOOTH"
);
}
);
width = 726;
},
{
anchors = (
{
name = bottom;
position = "{343, 0}";
},
{
name = center;
position = "{343, 294}";
},
{
name = ogonek;
position = "{417, 0}";
},
{
name = top;
position = "{343, 587}";
},
{
name = topleft;
position = "{17, 587}";
},
{
name = topright;
position = "{669, 587}";
}
);
layerId = "A0F5A844-D88E-40D3-8473-9812906C4A28";
paths = (
{
closed = 1;
nodes = (
"503 -9 OFFCURVE",
"636 119 OFFCURVE",
"636 298 CURVE SMOOTH",
"636 474 OFFCURVE",
"519 596 OFFCURVE",
"351 596 CURVE SMOOTH",
"178 596 OFFCURVE",
"51 466 OFFCURVE",
"51 291 CURVE SMOOTH",
"51 114 OFFCURVE",
"174 -9 OFFCURVE",
"349 -9 CURVE SMOOTH"
);
},
{
closed = 1;
nodes = (
"240 45 OFFCURVE",
"155 155 OFFCURVE",
"155 310 CURVE SMOOTH",
"155 456 OFFCURVE",
"225 546 OFFCURVE",
"339 546 CURVE SMOOTH",
"456 546 OFFCURVE",
"535 435 OFFCURVE",
"535 274 CURVE SMOOTH",
"535 134 OFFCURVE",
"466 45 OFFCURVE",
"358 45 CURVE SMOOTH"
);
}
);
width = 686;
}
);
leftKerningGroup = O;
note = O;
rightKerningGroup = O;
unicode = 004F;
},
{
glyphname = Ohorn;
lastChange = "2021-06-22 16:48:23 +0000";
layers = (
{
anchors = (
{
name = bottom;
position = "{363, 0}";
},
{
name = center;
position = "{363, 294}";
},
{
name = top;
position = "{363, 587}";
},
{
name = topleft;
position = "{17, 587}";
}
);
background = {
anchors = (
{
name = bottom;
position = "{364, 0}";
},
{
name = center;
position = "{364, 294}";
},
{
name = top;
position = "{364, 587}";
},
{
name = topleft;
position = "{18, 587}";
}
);
paths = (
{
closed = 1;
nodes = (
"723 725 OFFCURVE",
"662 730 OFFCURVE",
"594 723 CURVE",
"592 657 LINE SMOOTH",
"590 619 OFFCURVE",
"561 581 OFFCURVE",
"515 581 CURVE SMOOTH",
"487 581 OFFCURVE",
"438 596 OFFCURVE",
"380 596 CURVE SMOOTH",
"179 596 OFFCURVE",
"42 464 OFFCURVE",
"42 283 CURVE SMOOTH",
"42 114 OFFCURVE",
"181 -9 OFFCURVE",
"371 -9 CURVE SMOOTH",
"491 -9 OFFCURVE",
"685 80 OFFCURVE",
"685 304 CURVE SMOOTH",
"685 409 OFFCURVE",
"635 493 OFFCURVE",
"559 542 CURVE",
"470 529 LINE",
"614 489 OFFCURVE",
"723 566 OFFCURVE",
"723 656 CURVE SMOOTH"
);
},
{
closed = 1;
nodes = (
"292 78 OFFCURVE",
"235 177 OFFCURVE",
"235 319 CURVE SMOOTH",
"235 445 OFFCURVE",
"282 519 OFFCURVE",
"358 519 CURVE SMOOTH",
"441 519 OFFCURVE",
"493 426 OFFCURVE",
"493 277 CURVE SMOOTH",
"493 143 OFFCURVE",
"457 78 OFFCURVE",
"377 78 CURVE SMOOTH"
);
}
);
};
layerId = "722FC537-28B1-4F35-B842-D78FAAB5B143";
paths = (
{
closed = 1;
nodes = (
"722 725 OFFCURVE",
"661 730 OFFCURVE",
"593 723 CURVE",
"591 657 LINE SMOOTH",
"590 619 OFFCURVE",
"560 581 OFFCURVE",
"514 581 CURVE SMOOTH",
"486 581 OFFCURVE",
"437 596 OFFCURVE",
"379 596 CURVE SMOOTH",
"178 596 OFFCURVE",
"41 464 OFFCURVE",
"41 283 CURVE SMOOTH",
"41 114 OFFCURVE",
"180 -9 OFFCURVE",
"370 -9 CURVE SMOOTH",
"490 -9 OFFCURVE",
"684 80 OFFCURVE",
"684 304 CURVE SMOOTH",
"684 409 OFFCURVE",
"634 493 OFFCURVE",
"558 542 CURVE",
"469 529 LINE",
"613 489 OFFCURVE",
"722 566 OFFCURVE",
"722 656 CURVE SMOOTH"
);
},
{
closed = 1;
nodes = (
"291 78 OFFCURVE",
"234 177 OFFCURVE",
"234 319 CURVE SMOOTH",
"234 445 OFFCURVE",
"281 519 OFFCURVE",
"357 519 CURVE SMOOTH",
"440 519 OFFCURVE",
"492 426 OFFCURVE",
"492 277 CURVE SMOOTH",
"492 143 OFFCURVE",
"456 78 OFFCURVE",
"376 78 CURVE SMOOTH"
);
}
);
width = 726;
},
{
anchors = (
{
name = bottom;
position = "{343, 0}";
},
{
name = center;
position = "{343, 294}";
},
{
name = top;
position = "{343, 587}";
},
{
name = topleft;
position = "{17, 587}";
}
);
layerId = "A0F5A844-D88E-40D3-8473-9812906C4A28";
paths = (
{
closed = 1;
nodes = (
"666 703 OFFCURVE",
"626 719 OFFCURVE",
"575 710 CURVE",
"573 659 LINE SMOOTH",
"571 600 OFFCURVE",
"545 579 OFFCURVE",
"501 579 CURVE SMOOTH",
"462 579 OFFCURVE",
"416 596 OFFCURVE",
"354 596 CURVE SMOOTH",
"178 596 OFFCURVE",
"51 466 OFFCURVE",
"51 291 CURVE SMOOTH",
"51 114 OFFCURVE",
"174 -9 OFFCURVE",
"349 -9 CURVE SMOOTH",
"503 -9 OFFCURVE",
"636 119 OFFCURVE",
"636 298 CURVE SMOOTH",
"636 412 OFFCURVE",
"586 504 OFFCURVE",
"505 555 CURVE",
"474 534 LINE",
"601 513 OFFCURVE",
"666 593 OFFCURVE",
"666 651 CURVE SMOOTH"
);
},
{
closed = 1;
nodes = (
"240 45 OFFCURVE",
"155 155 OFFCURVE",
"155 310 CURVE SMOOTH",
"155 456 OFFCURVE",
"225 546 OFFCURVE",
"339 546 CURVE SMOOTH",
"456 546 OFFCURVE",
"535 435 OFFCURVE",
"535 274 CURVE SMOOTH",
"535 134 OFFCURVE",
"466 45 OFFCURVE",
"358 45 CURVE SMOOTH"
);
}
);
width = 686;
}
);
leftKerningGroup = O;
leftMetricsKey = O;
widthMetricsKey = O;
note = Ohorn;
rightKerningGroup = O;
unicode = 01A0;
},
{
glyphname = Oogonek;
lastChange = "2021-06-22 16:48:23 +0000";
layers = (
{
anchors = (
{
name = center;
position = "{363, 294}";
},
{
name = top;
position = "{363, 587}";
},
{
name = topleft;
position = "{17, 587}";
},
{
name = topright;
position = "{708, 587}";
}
);
background = {
anchors = (
{
name = center;
position = "{364, 294}";
},
{
name = top;
position = "{364, 587}";
},
{
name = topleft;
position = "{18, 587}";
},
{
name = topright;
position = "{709, 587}";
}
);
paths = (
{
closed = 1;
nodes = (
"440 -223 OFFCURVE",
"484 -209 OFFCURVE",
"514 -173 CURVE",
"483 -127 LINE",
"457 -151 OFFCURVE",
"435 -161 OFFCURVE",
"415 -161 CURVE SMOOTH",
"388 -161 OFFCURVE",
"367 -142 OFFCURVE",
"367 -108 CURVE SMOOTH",
"367 -69 OFFCURVE",
"393 -21 OFFCURVE",
"487 16 CURVE SMOOTH",
"584 54 OFFCURVE",
"685 141 OFFCURVE",
"685 304 CURVE SMOOTH",
"685 476 OFFCURVE",
"555 596 OFFCURVE",
"370 596 CURVE SMOOTH",
"179 596 OFFCURVE",
"42 464 OFFCURVE",
"42 283 CURVE SMOOTH",
"42 114 OFFCURVE",
"181 -9 OFFCURVE",
"371 -9 CURVE SMOOTH",
"389 -9 LINE",
"420 27 LINE",
"314 -9 OFFCURVE",
"254 -62 OFFCURVE",
"254 -116 CURVE SMOOTH",
"254 -180 OFFCURVE",
"320 -223 OFFCURVE",
"394 -223 CURVE SMOOTH"
);
},
{
closed = 1;
nodes = (
"292 78 OFFCURVE",
"235 177 OFFCURVE",
"235 319 CURVE SMOOTH",
"235 445 OFFCURVE",
"282 519 OFFCURVE",
"358 519 CURVE SMOOTH",
"441 519 OFFCURVE",
"493 426 OFFCURVE",
"493 277 CURVE SMOOTH",
"493 143 OFFCURVE",
"457 78 OFFCURVE",
"377 78 CURVE SMOOTH"
);
}
);
};
layerId = "722FC537-28B1-4F35-B842-D78FAAB5B143";
paths = (
{
closed = 1;
nodes = (
"439 -223 OFFCURVE",
"483 -209 OFFCURVE",
"513 -173 CURVE",
"482 -127 LINE",
"456 -151 OFFCURVE",
"434 -161 OFFCURVE",
"414 -161 CURVE SMOOTH",
"387 -161 OFFCURVE",
"366 -142 OFFCURVE",
"366 -108 CURVE SMOOTH",
"366 -69 OFFCURVE",
"392 -21 OFFCURVE",
"486 16 CURVE SMOOTH",
"583 54 OFFCURVE",
"684 141 OFFCURVE",
"684 304 CURVE SMOOTH",
"684 476 OFFCURVE",
"554 596 OFFCURVE",
"369 596 CURVE SMOOTH",
"178 596 OFFCURVE",
"41 464 OFFCURVE",
"41 283 CURVE SMOOTH",
"41 114 OFFCURVE",
"180 -9 OFFCURVE",
"370 -9 CURVE SMOOTH",
"388 -9 LINE",
"419 27 LINE",
"313 -9 OFFCURVE",
"253 -62 OFFCURVE",
"253 -116 CURVE SMOOTH",
"253 -180 OFFCURVE",
"319 -223 OFFCURVE",
"393 -223 CURVE SMOOTH"
);
},
{
closed = 1;
nodes = (
"291 78 OFFCURVE",
"234 177 OFFCURVE",
"234 319 CURVE SMOOTH",
"234 445 OFFCURVE",
"281 519 OFFCURVE",
"357 519 CURVE SMOOTH",
"440 519 OFFCURVE",
"492 426 OFFCURVE",
"492 277 CURVE SMOOTH",
"492 143 OFFCURVE",
"456 78 OFFCURVE",
"376 78 CURVE SMOOTH"
);
}
);
width = 726;
},
{
anchors = (
{
name = center;
position = "{343, 294}";
},
{
name = top;
position = "{343, 587}";
},
{
name = topleft;
position = "{17, 587}";
},
{
name = topright;
position = "{669, 587}";
}
);
layerId = "A0F5A844-D88E-40D3-8473-9812906C4A28";
paths = (
{
closed = 1;
nodes = (
"419 -223 OFFCURVE",
"455 -203 OFFCURVE",
"481 -173 CURVE",
"458 -146 LINE",
"438 -167 OFFCURVE",
"416 -181 OFFCURVE",
"389 -181 CURVE SMOOTH",
"355 -181 OFFCURVE",
"332 -158 OFFCURVE",
"332 -122 CURVE SMOOTH",
"332 -74 OFFCURVE",
"371 -20 OFFCURVE",
"452 11 CURVE SMOOTH",
"555 51 OFFCURVE",
"636 158 OFFCURVE",
"636 298 CURVE SMOOTH",
"636 474 OFFCURVE",
"519 596 OFFCURVE",
"351 596 CURVE SMOOTH",
"178 596 OFFCURVE",
"51 466 OFFCURVE",
"51 291 CURVE SMOOTH",
"51 114 OFFCURVE",
"174 -9 OFFCURVE",
"349 -9 CURVE SMOOTH",
"378 -9 LINE",
"412 19 LINE",
"318 -17 OFFCURVE",
"262 -71 OFFCURVE",
"262 -132 CURVE SMOOTH",
"262 -183 OFFCURVE",
"306 -223 OFFCURVE",
"375 -223 CURVE SMOOTH"
);
},
{
closed = 1;
nodes = (
"240 45 OFFCURVE",
"155 155 OFFCURVE",
"155 310 CURVE SMOOTH",
"155 456 OFFCURVE",
"225 546 OFFCURVE",
"339 546 CURVE SMOOTH",
"456 546 OFFCURVE",
"535 435 OFFCURVE",
"535 274 CURVE SMOOTH",
"535 134 OFFCURVE",
"466 45 OFFCURVE",
"358 45 CURVE SMOOTH"
);
}
);
width = 686;
}
);
leftKerningGroup = O;
leftMetricsKey = O;
widthMetricsKey = O;
rightKerningGroup = O;
unicode = 01EA;
},
{
glyphname = OE;
lastChange = "2021-06-22 16:51:33 +0000";
layers = (
{
anchors = (
{
name = bottom;
position = "{533, 0}";
},
{
name = top;
position = "{533, 587}";
}
);
background = {
anchors = (
{
name = bottom;
position = "{534, 0}";
},
{
name = top;
position = "{534, 587}";
}
);
paths = (
{
closed = 1;
nodes = (
"420 -9 OFFCURVE",
"456 0 OFFCURVE",
"519 0 CURVE SMOOTH",
"709 0 LINE SMOOTH",
"760 0 OFFCURVE",
"845 -6 OFFCURVE",
"877 -7 CURVE",
"925 166 LINE",
"861 178 LINE",
"804 75 LINE",
"784 71 OFFCURVE",
"787 71 OFFCURVE",
"733 71 CURVE SMOOTH",
"722 71 LINE SMOOTH",
"675 71 OFFCURVE",
"649 72 OFFCURVE",
"621 77 CURVE",
"618 97 OFFCURVE",
"617 135 OFFCURVE",
"617 217 CURVE SMOOTH",
"617 390 LINE SMOOTH",
"617 468 OFFCURVE",
"618 499 OFFCURVE",
"621 518 CURVE",
"629 521 OFFCURVE",
"653 522 OFFCURVE",
"688 522 CURVE SMOOTH",
"723 522 LINE SMOOTH",
"740 522 OFFCURVE",
"751 521 OFFCURVE",
"774 517 CURVE",
"814 425 LINE",
"880 434 LINE",
"849 593 LINE",
"816 593 OFFCURVE",
"714 587 OFFCURVE",
"664 587 CURVE SMOOTH",
"530 587 LINE SMOOTH",
"478 587 OFFCURVE",
"436 592 OFFCURVE",
"406 592 CURVE SMOOTH",
"135 592 OFFCURVE",
"43 431 OFFCURVE",
"43 286 CURVE SMOOTH",
"43 111 OFFCURVE",
"178 -9 OFFCURVE",
"375 -9 CURVE SMOOTH"
);
},
{
closed = 1;
nodes = (
"297 76 OFFCURVE",
"237 166 OFFCURVE",
"237 309 CURVE SMOOTH",
"237 436 OFFCURVE",
"302 517 OFFCURVE",
"398 517 CURVE SMOOTH",
"415 517 OFFCURVE",
"437 513 OFFCURVE",
"445 509 CURVE",
"448 496 OFFCURVE",
"451 417 OFFCURVE",
"451 363 CURVE SMOOTH",
"451 238 LINE SMOOTH",
"451 200 OFFCURVE",
"449 109 OFFCURVE",
"447 84 CURVE",
"425 80 OFFCURVE",
"402 76 OFFCURVE",
"394 76 CURVE SMOOTH"
);
},
{
closed = 1;
nodes = (
"803 196 LINE",
"803 404 LINE",
"739 404 LINE",
"731 339 LINE",
"721 341 OFFCURVE",
"696 338 OFFCURVE",
"667 338 CURVE SMOOTH",
"645 338 LINE SMOOTH",
"617 338 OFFCURVE",
"596 341 OFFCURVE",
"591 342 CURVE",
"591 261 LINE",
"596 262 OFFCURVE",
"617 264 OFFCURVE",
"645 264 CURVE SMOOTH",
"667 264 LINE SMOOTH",
"696 264 OFFCURVE",
"721 262 OFFCURVE",
"731 263 CURVE",
"739 196 LINE"
);
}
);
};
layerId = "722FC537-28B1-4F35-B842-D78FAAB5B143";
paths = (
{
closed = 1;
nodes = (
"419 -9 OFFCURVE",
"455 0 OFFCURVE",
"518 0 CURVE SMOOTH",
"708 0 LINE SMOOTH",
"759 0 OFFCURVE",
"844 -4 OFFCURVE",
"876 -7 CURVE",
"924 166 LINE",
"860 178 LINE",
"803 75 LINE",
"783 71 OFFCURVE",
"786 71 OFFCURVE",
"732 71 CURVE SMOOTH",
"721 71 LINE SMOOTH",
"674 71 OFFCURVE",
"648 72 OFFCURVE",
"620 77 CURVE",
"617 97 OFFCURVE",
"616 135 OFFCURVE",
"616 217 CURVE SMOOTH",
"616 390 LINE SMOOTH",
"616 468 OFFCURVE",
"617 499 OFFCURVE",
"620 518 CURVE",
"628 521 OFFCURVE",
"652 522 OFFCURVE",
"687 522 CURVE SMOOTH",
"722 522 LINE SMOOTH",
"739 522 OFFCURVE",
"750 521 OFFCURVE",
"773 517 CURVE",
"813 425 LINE",
"879 434 LINE",
"848 593 LINE",
"815 591 OFFCURVE",
"713 587 OFFCURVE",
"663 587 CURVE SMOOTH",
"529 587 LINE SMOOTH",
"477 587 OFFCURVE",
"435 592 OFFCURVE",
"405 592 CURVE SMOOTH",
"134 592 OFFCURVE",
"42 431 OFFCURVE",
"42 286 CURVE SMOOTH",
"42 111 OFFCURVE",
"177 -9 OFFCURVE",
"374 -9 CURVE SMOOTH"
);
},
{
closed = 1;
nodes = (
"296 76 OFFCURVE",
"236 166 OFFCURVE",
"236 309 CURVE SMOOTH",
"236 436 OFFCURVE",
"301 517 OFFCURVE",
"397 517 CURVE SMOOTH",
"414 517 OFFCURVE",
"436 515 OFFCURVE",
"444 512 CURVE",
"447 498 OFFCURVE",
"450 417 OFFCURVE",
"450 363 CURVE SMOOTH",
"450 238 LINE SMOOTH",
"450 200 OFFCURVE",
"448 109 OFFCURVE",
"446 84 CURVE",
"427 78 OFFCURVE",
"408 76 OFFCURVE",
"393 76 CURVE SMOOTH"
);
},
{
closed = 1;
nodes = (
"802 196 LINE",
"802 404 LINE",
"738 404 LINE",
"730 339 LINE",
"720 341 OFFCURVE",
"695 338 OFFCURVE",
"666 338 CURVE SMOOTH",
"644 338 LINE SMOOTH",
"616 338 OFFCURVE",
"595 341 OFFCURVE",
"590 342 CURVE",
"590 261 LINE",
"595 262 OFFCURVE",
"616 264 OFFCURVE",
"644 264 CURVE SMOOTH",
"666 264 LINE SMOOTH",
"695 264 OFFCURVE",
"720 262 OFFCURVE",
"730 263 CURVE",
"738 196 LINE"
);
}
);
width = 934;
},
{
anchors = (
{
name = bottom;
position = "{523, 0}";
},
{
name = top;
position = "{523, 587}";
}
);
layerId = "A0F5A844-D88E-40D3-8473-9812906C4A28";
paths = (
{
closed = 1;
nodes = (
"440 -9 OFFCURVE",
"489 0 OFFCURVE",
"528 0 CURVE SMOOTH",
"753 0 LINE SMOOTH",
"779 0 OFFCURVE",
"804 0 OFFCURVE",
"848 -5 CURVE",
"887 141 LINE",
"842 150 LINE",
"790 55 LINE",
"779 52 OFFCURVE",
"762 51 OFFCURVE",
"719 51 CURVE SMOOTH",
"631 51 LINE SMOOTH",
"610 51 OFFCURVE",
"591 52 OFFCURVE",
"567 55 CURVE",
"566 67 OFFCURVE",
"565 113 OFFCURVE",
"565 153 CURVE SMOOTH",
"565 423 LINE SMOOTH",
"565 470 OFFCURVE",
"566 526 OFFCURVE",
"567 535 CURVE",
"583 538 OFFCURVE",
"606 539 OFFCURVE",
"628 539 CURVE SMOOTH",
"734 539 LINE SMOOTH",
"749 539 OFFCURVE",
"762 538 OFFCURVE",
"772 536 CURVE",
"806 452 LINE",
"851 459 LINE",
"831 591 LINE",
"787 587 OFFCURVE",
"759 587 OFFCURVE",
"731 587 CURVE SMOOTH",
"514 587 LINE SMOOTH",
"470 587 OFFCURVE",
"431 594 OFFCURVE",
"384 594 CURVE SMOOTH",
"180 594 OFFCURVE",
"52 464 OFFCURVE",
"52 288 CURVE SMOOTH",
"52 102 OFFCURVE",
"178 -9 OFFCURVE",
"389 -9 CURVE SMOOTH"
);
},
{
closed = 1;
nodes = (
"249 45 OFFCURVE",
"157 141 OFFCURVE",
"157 301 CURVE SMOOTH",
"157 447 OFFCURVE",
"239 542 OFFCURVE",
"379 542 CURVE SMOOTH",
"415 542 OFFCURVE",
"446 538 OFFCURVE",
"476 529 CURVE",
"479 504 OFFCURVE",
"481 452 OFFCURVE",
"481 391 CURVE SMOOTH",
"481 203 LINE SMOOTH",
"481 121 OFFCURVE",
"480 78 OFFCURVE",
"478 57 CURVE",
"455 50 OFFCURVE",
"425 45 OFFCURVE",
"398 45 CURVE SMOOTH"
);
},
{
closed = 1;
nodes = (
"778 205 LINE",
"778 399 LINE",
"736 399 LINE",
"724 330 LINE",
"716 328 OFFCURVE",
"700 327 OFFCURVE",
"678 327 CURVE SMOOTH",
"610 327 LINE SMOOTH",
"592 327 OFFCURVE",
"572 328 OFFCURVE",
"550 329 CURVE",
"550 274 LINE",
"572 275 OFFCURVE",
"592 277 OFFCURVE",
"610 277 CURVE SMOOTH",
"678 277 LINE SMOOTH",
"700 277 OFFCURVE",
"716 275 OFFCURVE",
"724 273 CURVE",
"736 205 LINE"
);
}
);
width = 917;
}
);
leftKerningGroup = O;
leftMetricsKey = "=O+1";
note = OE;
rightKerningGroup = E;
rightMetricsKey = "=E+1";
unicode = 0152;
},
{
glyphname = P;
lastChange = "2021-06-22 16:48:23 +0000";
layers = (
{
anchors = (
{
name = bottom;
position = "{188, 0}";
},
{
name = top;
position = "{312, 587}";
}
);
background = {
anchors = (
{
name = bottom;
position = "{189, 0}";
},
{
name = top;
position = "{313, 587}";
}
);
paths = (
{
closed = 1;
nodes = (
"358 0 LINE",
"361 59 LINE",
"280 75 LINE",
"278 84 OFFCURVE",
"273 163 OFFCURVE",
"273 229 CURVE",
"272 362 LINE",
"272 468 OFFCURVE",
"272 506 OFFCURVE",
"273 524 CURVE",
"285 524 LINE SMOOTH",
"364 524 OFFCURVE",
"404 486 OFFCURVE",
"404 399 CURVE SMOOTH",
"404 328 OFFCURVE",
"374 286 OFFCURVE",
"320 286 CURVE SMOOTH",
"288 286 OFFCURVE",
"266 292 OFFCURVE",
"259 300 CURVE",
"259 218 LINE",
"278 214 OFFCURVE",
"301 211 OFFCURVE",
"318 211 CURVE SMOOTH",
"495 211 OFFCURVE",
"582 303 OFFCURVE",
"582 413 CURVE SMOOTH",
"582 525 OFFCURVE",
"499 587 OFFCURVE",
"315 587 CURVE SMOOTH",
"35 587 LINE",
"32 530 LINE",
"97 517 LINE",
"102 509 OFFCURVE",
"105 425 OFFCURVE",
"105 362 CURVE",
"104 229 LINE",
"104 163 OFFCURVE",
"101 84 OFFCURVE",
"96 76 CURVE",
"35 57 LINE",
"38 0 LINE"
);
}
);
};
layerId = "722FC537-28B1-4F35-B842-D78FAAB5B143";
paths = (
{
closed = 1;
nodes = (
"357 0 LINE",
"360 59 LINE",
"279 75 LINE",
"277 84 OFFCURVE",
"272 163 OFFCURVE",
"272 229 CURVE",
"271 362 LINE",
"271 468 OFFCURVE",
"271 506 OFFCURVE",
"272 524 CURVE",
"284 524 LINE SMOOTH",
"363 524 OFFCURVE",
"403 486 OFFCURVE",
"403 399 CURVE SMOOTH",
"403 328 OFFCURVE",
"373 286 OFFCURVE",
"319 286 CURVE SMOOTH",
"287 286 OFFCURVE",
"265 292 OFFCURVE",
"258 296 CURVE",
"258 218 LINE",
"277 214 OFFCURVE",
"300 211 OFFCURVE",
"317 211 CURVE SMOOTH",
"494 211 OFFCURVE",
"581 303 OFFCURVE",
"581 413 CURVE SMOOTH",
"581 525 OFFCURVE",
"498 587 OFFCURVE",
"314 587 CURVE SMOOTH",
"34 587 LINE",
"31 530 LINE",
"96 517 LINE",
"101 509 OFFCURVE",
"104 425 OFFCURVE",
"104 362 CURVE",
"103 229 LINE",
"103 163 OFFCURVE",
"100 84 OFFCURVE",
"95 76 CURVE",
"34 57 LINE",
"37 0 LINE"
);
}
);
width = 611;
},
{
anchors = (
{
name = bottom;
position = "{156, 0}";
},
{
name = top;
position = "{254, 587}";
}
);
layerId = "A0F5A844-D88E-40D3-8473-9812906C4A28";
paths = (
{
closed = 1;
nodes = (
"282 0 LINE",
"285 40 LINE",
"202 53 LINE",
"201 61 OFFCURVE",
"198 91 OFFCURVE",
"198 194 CURVE",
"197 397 LINE",
"197 466 OFFCURVE",
"198 530 OFFCURVE",
"199 543 CURVE",
"252 543 LINE SMOOTH",
"327 543 OFFCURVE",
"382 500 OFFCURVE",
"382 405 CURVE SMOOTH",
"382 322 OFFCURVE",
"335 284 OFFCURVE",
"257 284 CURVE SMOOTH",
"234 284 OFFCURVE",
"212 288 OFFCURVE",
"182 297 CURVE",
"182 243 LINE",
"204 239 OFFCURVE",
"230 235 OFFCURVE",
"260 235 CURVE SMOOTH",
"377 235 OFFCURVE",
"472 306 OFFCURVE",
"472 418 CURVE SMOOTH",
"472 527 OFFCURVE",
"395 587 OFFCURVE",
"263 587 CURVE SMOOTH",
"50 587 LINE",
"47 549 LINE",
"109 534 LINE",
"110 528 OFFCURVE",
"113 496 OFFCURVE",
"113 397 CURVE",
"112 194 LINE",
"112 91 OFFCURVE",
"110 59 OFFCURVE",
"108 52 CURVE",
"50 38 LINE",
"53 0 LINE"
);
}
);
width = 514;
}
);
leftKerningGroup = H;
note = P;
rightKerningGroup = P;
unicode = 0050;
},
{
glyphname = Thorn;
lastChange = "2021-06-22 16:48:23 +0000";
layers = (
{
background = {
paths = (
{
closed = 1;
nodes = (
"349 0 LINE",
"352 59 LINE",
"271 76 LINE",
"273 82 OFFCURVE",
"271 105 OFFCURVE",
"271 137 CURVE SMOOTH",
"271 432 LINE",
"284 432 LINE SMOOTH",
"363 432 OFFCURVE",
"403 394 OFFCURVE",
"403 307 CURVE SMOOTH",
"403 236 OFFCURVE",
"373 191 OFFCURVE",
"319 191 CURVE SMOOTH",
"287 191 OFFCURVE",
"265 197 OFFCURVE",
"258 205 CURVE",
"258 128 LINE",
"277 124 OFFCURVE",
"300 121 OFFCURVE",
"317 121 CURVE SMOOTH",
"494 121 OFFCURVE",
"581 211 OFFCURVE",
"581 321 CURVE SMOOTH",
"581 434 OFFCURVE",
"498 495 OFFCURVE",
"314 495 CURVE SMOOTH",
"226 495 LINE",
"270 456 LINE",
"270 479 LINE SMOOTH",
"270 491 OFFCURVE",
"271 508 OFFCURVE",
"272 514 CURVE",
"338 530 LINE",
"334 587 LINE",
"34 587 LINE",
"31 530 LINE",
"96 514 LINE",
"100 507 OFFCURVE",
"104 437 OFFCURVE",
"104 354 CURVE SMOOTH",
"104 234 LINE SMOOTH",
"104 152 OFFCURVE",
"100 83 OFFCURVE",
"95 76 CURVE",
"33 57 LINE",
"37 0 LINE"
);
}
);
};
layerId = "722FC537-28B1-4F35-B842-D78FAAB5B143";
paths = (
{
closed = 1;
nodes = (
"348 0 LINE",
"351 59 LINE",
"270 76 LINE",
"270 82 OFFCURVE",
"270 105 OFFCURVE",
"270 137 CURVE SMOOTH",
"270 432 LINE",
"283 432 LINE SMOOTH",
"362 432 OFFCURVE",
"402 394 OFFCURVE",
"402 307 CURVE SMOOTH",
"402 236 OFFCURVE",
"372 191 OFFCURVE",
"308 191 CURVE SMOOTH",
"286 191 OFFCURVE",
"264 197 OFFCURVE",
"257 205 CURVE",
"257 128 LINE",
"276 124 OFFCURVE",
"299 121 OFFCURVE",
"316 121 CURVE SMOOTH",
"493 121 OFFCURVE",
"580 211 OFFCURVE",
"580 321 CURVE SMOOTH",
"580 434 OFFCURVE",
"497 495 OFFCURVE",
"313 495 CURVE SMOOTH",
"225 495 LINE",
"269 456 LINE",
"269 479 LINE SMOOTH",
"269 491 OFFCURVE",
"270 508 OFFCURVE",
"271 514 CURVE",
"336 530 LINE",
"333 587 LINE",
"33 587 LINE",
"30 530 LINE",
"95 514 LINE",
"99 507 OFFCURVE",
"103 437 OFFCURVE",
"103 354 CURVE SMOOTH",
"103 234 LINE SMOOTH",
"103 152 OFFCURVE",
"99 83 OFFCURVE",
"94 76 CURVE",
"32 57 LINE",
"35 0 LINE"
);
}
);
width = 612;
},
{
layerId = "A0F5A844-D88E-40D3-8473-9812906C4A28";
paths = (
{
closed = 1;
nodes = (
"280 0 LINE",
"282 40 LINE",
"200 52 LINE",
"199 62 OFFCURVE",
"197 89 OFFCURVE",
"197 117 CURVE SMOOTH",
"197 437 LINE",
"251 437 LINE SMOOTH",
"324 437 OFFCURVE",
"381 394 OFFCURVE",
"381 299 CURVE SMOOTH",
"381 217 OFFCURVE",
"334 175 OFFCURVE",
"256 175 CURVE SMOOTH",
"233 175 OFFCURVE",
"209 179 OFFCURVE",
"181 188 CURVE",
"181 137 LINE",
"203 133 OFFCURVE",
"229 129 OFFCURVE",
"258 129 CURVE SMOOTH",
"376 129 OFFCURVE",
"471 200 OFFCURVE",
"471 312 CURVE SMOOTH",
"471 421 OFFCURVE",
"394 481 OFFCURVE",
"262 481 CURVE SMOOTH",
"181 481 LINE",
"197 451 LINE",
"197 492 LINE SMOOTH",
"197 513 OFFCURVE",
"198 527 OFFCURVE",
"198 534 CURVE",
"259 549 LINE",
"256 587 LINE",
"49 587 LINE",
"46 549 LINE",
"108 534 LINE",
"111 526 OFFCURVE",
"112 476 OFFCURVE",
"112 387 CURVE SMOOTH",
"112 199 LINE SMOOTH",
"112 111 OFFCURVE",
"111 61 OFFCURVE",
"109 52 CURVE",
"52 38 LINE",
"54 0 LINE"
);
}
);
width = 513;
}
);
leftKerningGroup = H;
note = Thorn;
rightKerningGroup = Thorn;
unicode = 00DE;
},
{
glyphname = Q;
lastChange = "2021-06-22 16:48:23 +0000";
layers = (
{
anchors = (
{
name = top;
position = "{363, 587}";
}
);
background = {
paths = (
{
closed = 1;
nodes = (
"386 -3 LINE",
"498 -3 OFFCURVE",
"685 81 OFFCURVE",
"685 304 CURVE SMOOTH",
"685 476 OFFCURVE",
"555 596 OFFCURVE",
"370 596 CURVE SMOOTH",
"179 596 OFFCURVE",
"42 464 OFFCURVE",
"42 283 CURVE SMOOTH",
"42 114 OFFCURVE",
"181 -6 OFFCURVE",
"371 -6 CURVE"
);
},
{
closed = 1;
nodes = (
"683 -155 OFFCURVE",
"737 -136 OFFCURVE",
"772 -111 CURVE",
"755 -49 LINE",
"728 -56 OFFCURVE",
"704 -58 OFFCURVE",
"689 -58 CURVE SMOOTH",
"650 -58 OFFCURVE",
"632 -50 OFFCURVE",
"582 -17 CURVE SMOOTH",
"544 8 OFFCURVE",
"490 18 OFFCURVE",
"439 18 CURVE",
"249 18 LINE",
"291 -3 OFFCURVE",
"293 -3 OFFCURVE",
"348 -56 CURVE SMOOTH",
"395 -102 OFFCURVE",
"475 -155 OFFCURVE",
"619 -155 CURVE SMOOTH"
);
},
{
closed = 1;
nodes = (
"292 78 OFFCURVE",
"235 177 OFFCURVE",
"235 319 CURVE SMOOTH",
"235 445 OFFCURVE",
"282 519 OFFCURVE",
"358 519 CURVE SMOOTH",
"441 519 OFFCURVE",
"493 426 OFFCURVE",
"493 277 CURVE SMOOTH",
"493 143 OFFCURVE",
"457 78 OFFCURVE",
"377 78 CURVE SMOOTH"
);
}
);
};
layerId = "722FC537-28B1-4F35-B842-D78FAAB5B143";
paths = (
{
closed = 1;
nodes = (
"385 -3 LINE",
"497 -3 OFFCURVE",
"684 81 OFFCURVE",
"684 304 CURVE SMOOTH",
"684 476 OFFCURVE",
"554 596 OFFCURVE",
"369 596 CURVE SMOOTH",
"178 596 OFFCURVE",
"41 464 OFFCURVE",
"41 283 CURVE SMOOTH",
"41 114 OFFCURVE",
"180 -6 OFFCURVE",
"370 -6 CURVE"
);
},
{
closed = 1;
nodes = (
"682 -155 OFFCURVE",
"736 -136 OFFCURVE",
"771 -111 CURVE",
"754 -49 LINE",
"727 -56 OFFCURVE",
"705 -58 OFFCURVE",
"691 -58 CURVE SMOOTH",
"659 -58 OFFCURVE",
"638 -50 OFFCURVE",
"579 -17 CURVE SMOOTH",
"545 2 OFFCURVE",
"489 15 OFFCURVE",
"438 15 CURVE",
"258 15 LINE",
"290 -3 OFFCURVE",
"302 -11 OFFCURVE",
"347 -56 CURVE SMOOTH",
"394 -103 OFFCURVE",
"474 -155 OFFCURVE",
"618 -155 CURVE SMOOTH"
);
},
{
closed = 1;
nodes = (
"291 78 OFFCURVE",
"234 177 OFFCURVE",
"234 319 CURVE SMOOTH",
"234 445 OFFCURVE",
"281 519 OFFCURVE",
"357 519 CURVE SMOOTH",
"440 519 OFFCURVE",
"492 426 OFFCURVE",
"492 277 CURVE SMOOTH",
"492 143 OFFCURVE",
"456 78 OFFCURVE",
"376 78 CURVE SMOOTH"
);
}
);
width = 726;
},
{
anchors = (
{
name = top;
position = "{343, 587}";
}
);
layerId = "A0F5A844-D88E-40D3-8473-9812906C4A28";
paths = (
{
closed = 1;
nodes = (
"359 -6 LINE",
"506 -6 OFFCURVE",
"636 120 OFFCURVE",
"636 298 CURVE SMOOTH",
"636 474 OFFCURVE",
"519 596 OFFCURVE",
"351 596 CURVE SMOOTH",
"178 596 OFFCURVE",
"51 466 OFFCURVE",
"51 291 CURVE SMOOTH",
"51 114 OFFCURVE",
"174 -8 OFFCURVE",
"349 -8 CURVE"
);
},
{
closed = 1;
nodes = (
"648 -135 OFFCURVE",
"694 -123 OFFCURVE",
"729 -101 CURVE",
"719 -63 LINE",
"698 -69 OFFCURVE",
"677 -72 OFFCURVE",
"657 -72 CURVE SMOOTH",
"615 -72 OFFCURVE",
"575 -61 OFFCURVE",
"531 -36 CURVE SMOOTH",
"486 -12 OFFCURVE",
"445 2 OFFCURVE",
"387 6 CURVE",
"277 6 LINE",
"319 -5 OFFCURVE",
"390 -58 OFFCURVE",
"432 -83 CURVE SMOOTH",
"491 -119 OFFCURVE",
"537 -135 OFFCURVE",
"600 -135 CURVE SMOOTH"
);
},
{
closed = 1;
nodes = (
"240 45 OFFCURVE",
"155 155 OFFCURVE",
"155 310 CURVE SMOOTH",
"155 456 OFFCURVE",
"225 546 OFFCURVE",
"339 546 CURVE SMOOTH",
"456 546 OFFCURVE",
"535 435 OFFCURVE",
"535 274 CURVE SMOOTH",
"535 134 OFFCURVE",
"466 45 OFFCURVE",
"358 45 CURVE SMOOTH"
);
}
);
width = 686;
}
);
leftKerningGroup = O;
leftMetricsKey = O;
widthMetricsKey = O;
note = Q;
rightKerningGroup = O;
unicode = 0051;
},
{
glyphname = R;
lastChange = "2021-06-22 16:48:23 +0000";
layers = (
{
anchors = (
{
name = bottom;
position = "{354, 0}";
},
{
name = top;
position = "{326, 587}";
}
);
background = {
anchors = (
{
name = bottom;
position = "{355, 0}";
},
{
name = top;
position = "{327, 587}";
}
);
paths = (
{
closed = 1;
nodes = (
"323 0 LINE",
"327 57 LINE",
"273 75 LINE",
"273 111 OFFCURVE",
"271 201 OFFCURVE",
"271 234 CURVE SMOOTH",
"271 356 LINE SMOOTH",
"271 407 OFFCURVE",
"272 514 OFFCURVE",
"273 524 CURVE",
"299 524 LINE SMOOTH",
"357 524 OFFCURVE",
"389 492 OFFCURVE",
"389 435 CURVE SMOOTH",
"389 371 OFFCURVE",
"347 326 OFFCURVE",
"290 326 CURVE SMOOTH",
"265 326 LINE",
"265 260 LINE",
"318 260 LINE SMOOTH",
"461 260 OFFCURVE",
"564 331 OFFCURVE",
"564 430 CURVE SMOOTH",
"564 540 OFFCURVE",
"488 587 OFFCURVE",
"318 587 CURVE SMOOTH",
"35 587 LINE",
"32 530 LINE",
"97 511 LINE",
"101 505 OFFCURVE",
"105 431 OFFCURVE",
"105 354 CURVE SMOOTH",
"105 234 LINE SMOOTH",
"105 188 OFFCURVE",
"103 90 OFFCURVE",
"102 75 CURVE",
"37 57 LINE",
"40 0 LINE"
);
},
{
closed = 1;
nodes = (
"617 -13 OFFCURVE",
"641 -11 OFFCURVE",
"668 -6 CURVE",
"669 47 LINE",
"619 63 OFFCURVE",
"576 95 OFFCURVE",
"546 137 CURVE SMOOTH",
"420 307 LINE",
"287 276 LINE",
"336 153 LINE SMOOTH",
"379 44 OFFCURVE",
"465 -13 OFFCURVE",
"592 -13 CURVE SMOOTH"
);
}
);
};
layerId = "722FC537-28B1-4F35-B842-D78FAAB5B143";
paths = (
{
closed = 1;
nodes = (
"323 0 LINE",
"326 57 LINE",
"272 75 LINE",
"272 111 OFFCURVE",
"270 201 OFFCURVE",
"270 234 CURVE SMOOTH",
"270 356 LINE SMOOTH",
"270 407 OFFCURVE",
"271 514 OFFCURVE",
"272 524 CURVE",
"298 524 LINE SMOOTH",
"356 524 OFFCURVE",
"388 492 OFFCURVE",
"388 435 CURVE SMOOTH",
"388 371 OFFCURVE",
"346 326 OFFCURVE",
"289 326 CURVE SMOOTH",
"244 326 LINE",
"244 260 LINE",
"317 260 LINE SMOOTH",
"460 260 OFFCURVE",
"563 331 OFFCURVE",
"563 430 CURVE SMOOTH",
"563 540 OFFCURVE",
"487 587 OFFCURVE",
"317 587 CURVE SMOOTH",
"34 587 LINE",
"31 530 LINE",
"96 511 LINE",
"100 505 OFFCURVE",
"104 431 OFFCURVE",
"104 354 CURVE SMOOTH",
"104 234 LINE SMOOTH",
"104 188 OFFCURVE",
"102 90 OFFCURVE",
"101 75 CURVE",
"36 57 LINE",
"39 0 LINE"
);
},
{
closed = 1;
nodes = (
"616 -13 OFFCURVE",
"640 -11 OFFCURVE",
"667 -6 CURVE",
"668 47 LINE",
"618 63 OFFCURVE",
"576 96 OFFCURVE",
"545 137 CURVE SMOOTH",
"419 307 LINE",
"286 276 LINE",
"335 153 LINE SMOOTH",
"378 44 OFFCURVE",
"464 -13 OFFCURVE",
"591 -13 CURVE SMOOTH"
);
}
);
width = 668;
},
{
anchors = (
{
name = bottom;
position = "{311, 0}";
},
{
name = top;
position = "{268, 587}";
}
);
layerId = "A0F5A844-D88E-40D3-8473-9812906C4A28";
paths = (
{
closed = 1;
nodes = (
"258 0 LINE",
"261 38 LINE",
"202 53 LINE",
"199 72 OFFCURVE",
"197 112 OFFCURVE",
"197 199 CURVE SMOOTH",
"197 402 LINE SMOOTH",
"197 523 OFFCURVE",
"197 536 OFFCURVE",
"199 543 CURVE",
"257 543 LINE SMOOTH",
"332 543 OFFCURVE",
"373 506 OFFCURVE",
"373 435 CURVE SMOOTH",
"373 362 OFFCURVE",
"324 318 OFFCURVE",
"242 318 CURVE SMOOTH",
"185 318 LINE",
"185 273 LINE",
"249 273 LINE SMOOTH",
"374 273 OFFCURVE",
"462 344 OFFCURVE",
"462 443 CURVE SMOOTH",
"462 537 OFFCURVE",
"394 587 OFFCURVE",
"269 587 CURVE SMOOTH",
"50 587 LINE",
"47 549 LINE",
"109 535 LINE",
"112 527 OFFCURVE",
"113 478 OFFCURVE",
"113 387 CURVE SMOOTH",
"113 199 LINE SMOOTH",
"113 136 OFFCURVE",
"111 71 OFFCURVE",
"111 53 CURVE",
"50 38 LINE",
"52 0 LINE"
);
},
{
closed = 1;
nodes = (
"540 -10 OFFCURVE",
"556 -9 OFFCURVE",
"570 -6 CURVE",
"571 29 LINE",
"519 39 OFFCURVE",
"484 65 OFFCURVE",
"428 148 CURVE SMOOTH",
"320.008 307 LINE",
"245 290 LINE",
"313 166 LINE SMOOTH",
"387 34 OFFCURVE",
"438 -10 OFFCURVE",
"526 -10 CURVE SMOOTH"
);
}
);
width = 567;
}
);
leftKerningGroup = H;
note = R;
rightKerningGroup = R;
unicode = 0052;
},
{
glyphname = S;
lastChange = "2021-06-22 16:48:23 +0000";
layers = (
{
anchors = (
{
name = bottom;
position = "{279, 0}";
},
{
name = top;
position = "{279, 587}";
}
);
background = {
anchors = (
{
name = bottom;
position = "{280, 0}";
},
{
name = top;
position = "{280, 587}";
}
);
paths = (
{
closed = 1;
nodes = (
"411 -9 OFFCURVE",
"519 69 OFFCURVE",
"519 177 CURVE SMOOTH",
"519 374 OFFCURVE",
"228 331 OFFCURVE",
"228 456 CURVE SMOOTH",
"228 502 OFFCURVE",
"267 525 OFFCURVE",
"311 525 CURVE SMOOTH",
"327 525 OFFCURVE",
"349 524 OFFCURVE",
"375 513 CURVE",
"410 406 LINE",
"486 410 LINE",
"471 569 LINE",
"433 586 OFFCURVE",
"363 599 OFFCURVE",
"321 599 CURVE SMOOTH",
"159 599 OFFCURVE",
"54 522 OFFCURVE",
"54 408 CURVE SMOOTH",
"54 197 OFFCURVE",
"340 258 OFFCURVE",
"340 122 CURVE SMOOTH",
"340 88 OFFCURVE",
"314 66 OFFCURVE",
"258 66 CURVE SMOOTH",
"237 66 OFFCURVE",
"195 72 OFFCURVE",
"168 90 CURVE",
"131 202 LINE",
"53 198 LINE",
"57 39 LINE",
"111 9 OFFCURVE",
"190 -9 OFFCURVE",
"246 -9 CURVE SMOOTH"
);
}
);
};
layerId = "722FC537-28B1-4F35-B842-D78FAAB5B143";
paths = (
{
closed = 1;
nodes = (
"410 -9 OFFCURVE",
"518 69 OFFCURVE",
"518 177 CURVE SMOOTH",
"518 374 OFFCURVE",
"227 331 OFFCURVE",
"227 454 CURVE SMOOTH",
"227 502 OFFCURVE",
"266 525 OFFCURVE",
"310 525 CURVE SMOOTH",
"334 525 OFFCURVE",
"355 521 OFFCURVE",
"374 513 CURVE",
"409 406 LINE",
"485 410 LINE",
"470 569 LINE",
"432 586 OFFCURVE",
"362 599 OFFCURVE",
"320 599 CURVE SMOOTH",
"158 599 OFFCURVE",
"53 522 OFFCURVE",
"53 408 CURVE SMOOTH",
"53 197 OFFCURVE",
"339 258 OFFCURVE",
"339 125 CURVE SMOOTH",
"339 88 OFFCURVE",
"312 66 OFFCURVE",
"257 66 CURVE SMOOTH",
"226 66 OFFCURVE",
"188 76 OFFCURVE",
"167 90 CURVE",
"130 202 LINE",
"52 198 LINE",
"56 39 LINE",
"110 9 OFFCURVE",
"189 -9 OFFCURVE",
"245 -9 CURVE SMOOTH"
);
}
);
width = 542;
},
{
anchors = (
{
name = bottom;
position = "{243, 0}";
},
{
name = top;
position = "{243, 587}";
}
);
layerId = "A0F5A844-D88E-40D3-8473-9812906C4A28";
paths = (
{
closed = 1;
nodes = (
"351 -9 OFFCURVE",
"441 61 OFFCURVE",
"441 157 CURVE SMOOTH",
"441 338 OFFCURVE",
"146 315 OFFCURVE",
"146 459 CURVE SMOOTH",
"146 513 OFFCURVE",
"190 549 OFFCURVE",
"258 549 CURVE SMOOTH",
"293 549 OFFCURVE",
"318 543 OFFCURVE",
"340 529 CURVE",
"368 445 LINE",
"411 449 LINE",
"403 574 LINE",
"369 589 OFFCURVE",
"321 597 OFFCURVE",
"269 597 CURVE SMOOTH",
"144 597 OFFCURVE",
"56 530 OFFCURVE",
"56 433 CURVE SMOOTH",
"56 243 OFFCURVE",
"349 271 OFFCURVE",
"349 130 CURVE SMOOTH",
"349 75 OFFCURVE",
"306 41 OFFCURVE",
"240 41 CURVE SMOOTH",
"196 41 OFFCURVE",
"157 53 OFFCURVE",
"125 74 CURVE",
"97 163 LINE",
"54 159 LINE",
"59 30 LINE",
"98 7 OFFCURVE",
"167 -9 OFFCURVE",
"225 -9 CURVE SMOOTH"
);
}
);
width = 479;
}
);
leftKerningGroup = S;
note = S;
rightKerningGroup = S;
unicode = 0053;
},
{
glyphname = Germandbls;
lastChange = "2021-06-22 16:48:23 +0000";
layers = (
{
background = {
paths = (
{
closed = 1;
nodes = (
"328 0 LINE",
"331 57 LINE",
"270 76 LINE",
"267 84 OFFCURVE",
"263 149 OFFCURVE",
"262 234 CURVE",
"259 358 LINE",
"258 465 OFFCURVE",
"306 524 OFFCURVE",
"395 524 CURVE SMOOTH",
"448 524 OFFCURVE",
"487 504 OFFCURVE",
"508 465 CURVE",
"607 465 LINE",
"570 550 OFFCURVE",
"491 599 OFFCURVE",
"383 599 CURVE SMOOTH",
"206 599 OFFCURVE",
"94 489 OFFCURVE",
"94 322 CURVE",
"95 234 LINE",
"95 151 OFFCURVE",
"92 82 OFFCURVE",
"88 76 CURVE",
"22 57 LINE",
"26 0 LINE"
);
},
{
closed = 1;
nodes = (
"633 -9 OFFCURVE",
"737 60 OFFCURVE",
"737 151 CURVE SMOOTH",
"737 314 OFFCURVE",
"499 295 OFFCURVE",
"499 377 CURVE SMOOTH",
"499 416 OFFCURVE",
"534 429 OFFCURVE",
"566 429 CURVE SMOOTH",
"573 429 OFFCURVE",
"588 428 OFFCURVE",
"598 426 CURVE",
"630 330 LINE",
"702 334 LINE",
"690 476 LINE",
"657 489 OFFCURVE",
"588 497 OFFCURVE",
"557 497 CURVE SMOOTH",
"448 497 OFFCURVE",
"346 423 OFFCURVE",
"346 326 CURVE SMOOTH",
"346 156 OFFCURVE",
"581 207 OFFCURVE",
"581 101 CURVE SMOOTH",
"581 68 OFFCURVE",
"541 61 OFFCURVE",
"507 61 CURVE SMOOTH",
"493 61 OFFCURVE",
"472 62 OFFCURVE",
"453 74 CURVE",
"421 157 LINE",
"348 153 LINE",
"351 21 LINE",
"394 0 OFFCURVE",
"467 -9 OFFCURVE",
"507 -9 CURVE SMOOTH"
);
}
);
};
layerId = "722FC537-28B1-4F35-B842-D78FAAB5B143";
paths = (
{
closed = 1;
nodes = (
"323 0 LINE",
"326 57 LINE",
"269 76 LINE",
"266 84 OFFCURVE",
"262 149 OFFCURVE",
"261 234 CURVE",
"258 358 LINE",
"257 465 OFFCURVE",
"305 524 OFFCURVE",
"394 524 CURVE SMOOTH",
"447 524 OFFCURVE",
"486 504 OFFCURVE",
"507 465 CURVE",
"606 465 LINE",
"569 550 OFFCURVE",
"490 599 OFFCURVE",
"382 599 CURVE SMOOTH",
"205 599 OFFCURVE",
"93 489 OFFCURVE",
"93 322 CURVE",
"94 234 LINE",
"94 151 OFFCURVE",
"91 82 OFFCURVE",
"87 76 CURVE",
"22 57 LINE",
"25 0 LINE"
);
},
{
closed = 1;
nodes = (
"632 -9 OFFCURVE",
"736 60 OFFCURVE",
"736 151 CURVE SMOOTH",
"736 314 OFFCURVE",
"498 295 OFFCURVE",
"498 377 CURVE SMOOTH",
"498 416 OFFCURVE",
"533 430 OFFCURVE",
"565 430 CURVE SMOOTH",
"572 430 OFFCURVE",
"587 429 OFFCURVE",
"597 427 CURVE",
"629 331 LINE",
"701 335 LINE",
"689 476 LINE",
"656 489 OFFCURVE",
"587 497 OFFCURVE",
"556 497 CURVE SMOOTH",
"447 497 OFFCURVE",
"345 423 OFFCURVE",
"345 326 CURVE SMOOTH",
"345 156 OFFCURVE",
"580 207 OFFCURVE",
"580 107 CURVE SMOOTH",
"580 68 OFFCURVE",
"540 61 OFFCURVE",
"510 61 CURVE SMOOTH",
"487 61 OFFCURVE",
"466 67 OFFCURVE",
"452 74 CURVE",
"420 157 LINE",
"347 153 LINE",
"350 21 LINE",
"393 0 OFFCURVE",
"466 -9 OFFCURVE",
"506 -9 CURVE SMOOTH"
);
}
);
width = 764;
},
{
layerId = "A0F5A844-D88E-40D3-8473-9812906C4A28";
paths = (
{
closed = 1;
nodes = (
"249 0 LINE",
"252 38 LINE",
"191 52 LINE",
"188 60 OFFCURVE",
"186 105 OFFCURVE",
"186 199 CURVE",
"185 378 LINE",
"185 491 OFFCURVE",
"238 549 OFFCURVE",
"329 549 CURVE SMOOTH",
"390 549 OFFCURVE",
"436 520 OFFCURVE",
"453 468 CURVE",
"514 468 LINE",
"483 553 OFFCURVE",
"417 597 OFFCURVE",
"327 597 CURVE SMOOTH",
"187 597 OFFCURVE",
"100 505 OFFCURVE",
"100 350 CURVE",
"101 199 LINE",
"101 121 OFFCURVE",
"98 63 OFFCURVE",
"96 52 CURVE",
"35 38 LINE",
"37 0 LINE"
);
},
{
closed = 1;
nodes = (
"573 -9 OFFCURVE",
"649 47 OFFCURVE",
"649 134 CURVE SMOOTH",
"649 289 OFFCURVE",
"396 262 OFFCURVE",
"396 375 CURVE SMOOTH",
"396 416 OFFCURVE",
"432 446 OFFCURVE",
"496 446 CURVE SMOOTH",
"518 446 OFFCURVE",
"538 444 OFFCURVE",
"555 437 CURVE",
"579 361 LINE",
"620 365 LINE",
"613 474 LINE",
"583 484 OFFCURVE",
"538 491 OFFCURVE",
"497 491 CURVE SMOOTH",
"382 491 OFFCURVE",
"311 429 OFFCURVE",
"311 350 CURVE SMOOTH",
"311 192 OFFCURVE",
"562 227 OFFCURVE",
"562 109 CURVE SMOOTH",
"562 66 OFFCURVE",
"527 39 OFFCURVE",
"472 39 CURVE SMOOTH",
"439 39 OFFCURVE",
"403 49 OFFCURVE",
"374 68 CURVE",
"353 154 LINE",
"308 150 LINE",
"310 26 LINE",
"347 6 OFFCURVE",
"407 -9 OFFCURVE",
"463 -9 CURVE SMOOTH"
);
}
);
width = 689;
}
);
leftKerningGroup = Germandbls;
rightKerningGroup = S;
unicode = 1E9E;
},
{
glyphname = Schwa;
lastChange = "2021-06-22 16:48:23 +0000";
layers = (
{
anchors = (
{
name = bottom;
position = "{336, 0}";
},
{
name = top;
position = "{336, 587}";
}
);
background = {
anchors = (
{
name = bottom;
position = "{337, 0}";
},
{
name = top;
position = "{337, 587}";
}
);
paths = (
{
closed = 1;
nodes = (
"199 596 OFFCURVE",
"94 529 OFFCURVE",
"46 417 CURVE",
"76 385 LINE",
"126 434 OFFCURVE",
"185 460 OFFCURVE",
"266 460 CURVE SMOOTH",
"375 460 OFFCURVE",
"441 388 OFFCURVE",
"441 280 CURVE SMOOTH",
"441 238 LINE SMOOTH",
"441 134 OFFCURVE",
"411 75 OFFCURVE",
"342 75 CURVE SMOOTH",
"283 75 OFFCURVE",
"237 126 OFFCURVE",
"237 204 CURVE SMOOTH",
"237 255 LINE",
"215 210 LINE",
"549 210 LINE",
"549 288 LINE",
"42 288 LINE",
"42 247 LINE SMOOTH",
"42 92 OFFCURVE",
"166 -10 OFFCURVE",
"346 -9 CURVE SMOOTH",
"502 -7 OFFCURVE",
"631 136 OFFCURVE",
"631 300 CURVE SMOOTH",
"631 466 OFFCURVE",
"498 596 OFFCURVE",
"326 596 CURVE SMOOTH"
);
}
);
};
layerId = "722FC537-28B1-4F35-B842-D78FAAB5B143";
paths = (
{
closed = 1;
nodes = (
"198 596 OFFCURVE",
"93 529 OFFCURVE",
"45 417 CURVE",
"75 385 LINE",
"125 434 OFFCURVE",
"184 460 OFFCURVE",
"265 460 CURVE SMOOTH",
"374 460 OFFCURVE",
"440 388 OFFCURVE",
"440 280 CURVE SMOOTH",
"440 238 LINE SMOOTH",
"440 134 OFFCURVE",
"410 75 OFFCURVE",
"338 75 CURVE SMOOTH",
"276 75 OFFCURVE",
"236 126 OFFCURVE",
"236 204 CURVE SMOOTH",
"236 255 LINE",
"214 210 LINE",
"548 210 LINE",
"548 288 LINE",
"41 288 LINE",
"41 247 LINE SMOOTH",
"41 92 OFFCURVE",
"165 -10 OFFCURVE",
"339 -8 CURVE SMOOTH",
"501 -7 OFFCURVE",
"630 136 OFFCURVE",
"630 300 CURVE SMOOTH",
"630 466 OFFCURVE",
"497 596 OFFCURVE",
"325 596 CURVE SMOOTH"
);
}
);
width = 672;
},
{
anchors = (
{
name = bottom;
position = "{326, 0}";
},
{
name = top;
position = "{326, 587}";
}
);
layerId = "A0F5A844-D88E-40D3-8473-9812906C4A28";
paths = (
{
closed = 1;
nodes = (
"205 596 OFFCURVE",
"104 534 OFFCURVE",
"58 444 CURVE",
"90 418 LINE",
"138 475 OFFCURVE",
"202 508 OFFCURVE",
"283 508 CURVE SMOOTH",
"413 508 OFFCURVE",
"496 416 OFFCURVE",
"496 267 CURVE SMOOTH",
"496 246 LINE SMOOTH",
"496 121 OFFCURVE",
"434 44 OFFCURVE",
"328 44 CURVE SMOOTH",
"227 44 OFFCURVE",
"166 110 OFFCURVE",
"166 212 CURVE SMOOTH",
"166 244 LINE",
"147 227 LINE",
"530 227 LINE",
"530 283 LINE",
"54 283 LINE",
"54 258 LINE SMOOTH",
"54 95 OFFCURVE",
"158 -8 OFFCURVE",
"324 -9 CURVE SMOOTH",
"483 -9 OFFCURVE",
"598 122 OFFCURVE",
"598 306 CURVE SMOOTH",
"598 477 OFFCURVE",
"482 596 OFFCURVE",
"315 596 CURVE SMOOTH"
);
}
);
width = 649;
}
);
leftKerningGroup = O;
rightKerningGroup = O;
unicode = 018F;
},
{
glyphname = T;
lastChange = "2021-06-22 16:48:23 +0000";
layers = (
{
anchors = (
{
name = bottom;
position = "{325, 0}";
},
{
name = stroke;
position = "{326, 303}";
},
{
name = top;
position = "{326, 587}";
}
);
background = {
anchors = (
{
name = bottom;
position = "{326, 0}";
},
{
name = stroke;
position = "{327, 303}";
},
{
name = top;
position = "{327, 587}";
}
);
paths = (
{
closed = 1;
nodes = (
"584 592 OFFCURVE",
"481 587 OFFCURVE",
"442 587 CURVE SMOOTH",
"208 587 LINE SMOOTH",
"168 587 OFFCURVE",
"66 592 OFFCURVE",
"39 593 CURVE",
"19 404 LINE",
"92 398 LINE",
"127 518 LINE",
"149 520 OFFCURVE",
"161 521 OFFCURVE",
"182 521 CURVE SMOOTH",
"214 521 LINE SMOOTH",
"225 521 OFFCURVE",
"237 520 OFFCURVE",
"240 519 CURVE",
"241 507 OFFCURVE",
"243 406 OFFCURVE",
"243 309 CURVE SMOOTH",
"243 242 LINE SMOOTH",
"243 174 OFFCURVE",
"241 112 OFFCURVE",
"239 76 CURVE",
"150 59 LINE",
"153 0 LINE",
"501 0 LINE",
"504 59 LINE",
"415 76 LINE",
"413 112 OFFCURVE",
"411 174 OFFCURVE",
"411 242 CURVE SMOOTH",
"411 309 LINE SMOOTH",
"411 406 OFFCURVE",
"413 507 OFFCURVE",
"414 519 CURVE",
"417 520 OFFCURVE",
"429 521 OFFCURVE",
"440 521 CURVE SMOOTH",
"471 521 LINE SMOOTH",
"493 521 OFFCURVE",
"500 520 OFFCURVE",
"522 518 CURVE",
"561 400 LINE",
"634 405 LINE",
"610 593 LINE"
);
}
);
};
layerId = "722FC537-28B1-4F35-B842-D78FAAB5B143";
paths = (
{
closed = 1;
nodes = (
"583 592 OFFCURVE",
"480 587 OFFCURVE",
"441 587 CURVE SMOOTH",
"207 587 LINE SMOOTH",
"167 587 OFFCURVE",
"65 592 OFFCURVE",
"38 593 CURVE",
"18 404 LINE",
"91 398 LINE",
"126 518 LINE",
"138 520 OFFCURVE",
"160 521 OFFCURVE",
"181 521 CURVE SMOOTH",
"213 521 LINE SMOOTH",
"223 521 OFFCURVE",
"236 520 OFFCURVE",
"239 519 CURVE",
"240 507 OFFCURVE",
"242 406 OFFCURVE",
"242 309 CURVE SMOOTH",
"242 242 LINE SMOOTH",
"242 174 OFFCURVE",
"240 112 OFFCURVE",
"238 76 CURVE",
"149 59 LINE",
"152 0 LINE",
"500 0 LINE",
"503 59 LINE",
"414 76 LINE",
"412 112 OFFCURVE",
"410 174 OFFCURVE",
"410 242 CURVE SMOOTH",
"410 309 LINE SMOOTH",
"410 406 OFFCURVE",
"412 507 OFFCURVE",
"413 519 CURVE",
"416 520 OFFCURVE",
"428 521 OFFCURVE",
"439 521 CURVE SMOOTH",
"470 521 LINE SMOOTH",
"492 521 OFFCURVE",
"509 520 OFFCURVE",
"521 518 CURVE",
"560 400 LINE",
"633 405 LINE",
"609 593 LINE"
);
}
);
width = 653;
},
{
anchors = (
{
name = bottom;
position = "{279, 0}";
},
{
name = stroke;
position = "{279, 303}";
},
{
name = top;
position = "{279, 587}";
}
);
layerId = "A0F5A844-D88E-40D3-8473-9812906C4A28";
paths = (
{
closed = 1;
nodes = (
"485 589 OFFCURVE",
"452 587 OFFCURVE",
"421 587 CURVE SMOOTH",
"135 587 LINE SMOOTH",
"103 587 OFFCURVE",
"69 589 OFFCURVE",
"38 591 CURVE",
"16 429 LINE",
"61 423 LINE",
"102 537 LINE",
"113 539 OFFCURVE",
"127 540 OFFCURVE",
"138 540 CURVE SMOOTH",
"177 540 LINE SMOOTH",
"191 540 OFFCURVE",
"217 540 OFFCURVE",
"234 539 CURVE",
"235 523 OFFCURVE",
"235 430 OFFCURVE",
"235 358 CURVE SMOOTH",
"235 223 LINE SMOOTH",
"235 138 OFFCURVE",
"233 71 OFFCURVE",
"233 52 CURVE",
"149 40 LINE",
"151 0 LINE",
"406 0 LINE",
"409 40 LINE",
"324 52 LINE",
"324 71 OFFCURVE",
"322 138 OFFCURVE",
"322 223 CURVE SMOOTH",
"322 358 LINE SMOOTH",
"322 430 OFFCURVE",
"322 523 OFFCURVE",
"323 539 CURVE",
"341 540 OFFCURVE",
"367 540 OFFCURVE",
"381 540 CURVE SMOOTH",
"417 540 LINE SMOOTH",
"428 540 OFFCURVE",
"443 539 OFFCURVE",
"454 537 CURVE",
"496 424 LINE",
"540 429 LINE",
"518 591 LINE"
);
}
);
width = 557;
}
);
leftKerningGroup = T;
note = T;
rightKerningGroup = T;
unicode = 0054;
},
{
glyphname = U;
lastChange = "2021-06-22 16:48:23 +0000";
layers = (
{
anchors = (
{
name = bottom;
position = "{403, 0}";
},
{
name = ogonek;
position = "{454, 0}";
},
{
name = top;
position = "{402, 587}";
},
{
name = topright;
position = "{690, 587}";
}
);
background = {
anchors = (
{
name = bottom;
position = "{404, 0}";
},
{
name = ogonek;
position = "{455, 0}";
},
{
name = top;
position = "{403, 587}";
},
{
name = topright;
position = "{691, 587}";
}
);
paths = (
{
closed = 1;
nodes = (
"29 530 LINE",
"95 512 LINE",
"99 504 OFFCURVE",
"102 421 OFFCURVE",
"102 354 CURVE SMOOTH",
"102 262 LINE SMOOTH",
"102 88 OFFCURVE",
"200 -9 OFFCURVE",
"380 -9 CURVE SMOOTH",
"542 -9 OFFCURVE",
"633 102 OFFCURVE",
"633 255 CURVE SMOOTH",
"633 336 LINE SMOOTH",
"633 405 OFFCURVE",
"636 506 OFFCURVE",
"641 512 CURVE",
"707 530 LINE",
"703 587 LINE",
"463 587 LINE",
"460 530 LINE",
"530 512 LINE",
"534 506 OFFCURVE",
"537 405 OFFCURVE",
"537 336 CURVE SMOOTH",
"537 279 LINE SMOOTH",
"537 166 OFFCURVE",
"499 103 OFFCURVE",
"404 103 CURVE SMOOTH",
"309 103 OFFCURVE",
"269 170 OFFCURVE",
"270 282 CURVE",
"270 354 LINE",
"270 414 OFFCURVE",
"273 483 OFFCURVE",
"276 512 CURVE",
"342 530 LINE",
"338 587 LINE",
"33 587 LINE"
);
}
);
};
layerId = "722FC537-28B1-4F35-B842-D78FAAB5B143";
paths = (
{
closed = 1;
nodes = (
"29 530 LINE",
"94 512 LINE",
"98 504 OFFCURVE",
"101 421 OFFCURVE",
"101 354 CURVE SMOOTH",
"101 262 LINE SMOOTH",
"101 88 OFFCURVE",
"199 -9 OFFCURVE",
"379 -9 CURVE SMOOTH",
"541 -9 OFFCURVE",
"632 102 OFFCURVE",
"632 255 CURVE SMOOTH",
"632 336 LINE SMOOTH",
"632 405 OFFCURVE",
"635 506 OFFCURVE",
"640 512 CURVE",
"705 530 LINE",
"702 587 LINE",
"462 587 LINE",
"459 530 LINE",
"529 512 LINE",
"533 506 OFFCURVE",
"536 405 OFFCURVE",
"536 336 CURVE SMOOTH",
"536 279 LINE SMOOTH",
"536 166 OFFCURVE",
"498 103 OFFCURVE",
"403 103 CURVE SMOOTH",
"308 103 OFFCURVE",
"268 170 OFFCURVE",
"269 282 CURVE",
"269 354 LINE",
"269 414 OFFCURVE",
"272 483 OFFCURVE",
"275 512 CURVE",
"340 530 LINE",
"337 587 LINE",
"32 587 LINE"
);
}
);
width = 733;
},
{
anchors = (
{
name = bottom;
position = "{346, 0}";
},
{
name = ogonek;
position = "{411, 0}";
},
{
name = top;
position = "{347, 587}";
},
{
name = topright;
position = "{641, 587}";
}
);
layerId = "A0F5A844-D88E-40D3-8473-9812906C4A28";
paths = (
{
closed = 1;
nodes = (
"44 549 LINE",
"105 534 LINE",
"106 528 OFFCURVE",
"109 496 OFFCURVE",
"109 387 CURVE SMOOTH",
"109 221 LINE SMOOTH",
"109 75 OFFCURVE",
"195 -9 OFFCURVE",
"341 -9 CURVE SMOOTH",
"464 -9 OFFCURVE",
"556 67 OFFCURVE",
"556 235 CURVE SMOOTH",
"556 369 LINE SMOOTH",
"556 490 OFFCURVE",
"558 528 OFFCURVE",
"559 534 CURVE",
"620 549 LINE",
"617 587 LINE",
"423 587 LINE",
"420 549 LINE",
"490 534 LINE",
"493 521 OFFCURVE",
"496 458 OFFCURVE",
"496 369 CURVE SMOOTH",
"496 240 LINE SMOOTH",
"496 108 OFFCURVE",
"438 57 OFFCURVE",
"351 57 CURVE SMOOTH",
"259 57 OFFCURVE",
"197 107 OFFCURVE",
"196 233 CURVE",
"196 387 LINE",
"195 496 OFFCURVE",
"198 525 OFFCURVE",
"199 534 CURVE",
"261 549 LINE",
"258 587 LINE",
"46 587 LINE"
);
}
);
width = 664;
}
);
leftKerningGroup = U;
note = U;
rightKerningGroup = U;
unicode = 0055;
},
{
glyphname = Uhorn;
lastChange = "2021-06-22 16:48:23 +0000";
layers = (
{
anchors = (
{
name = bottom;
position = "{403, 0}";
},
{
name = top;
position = "{402, 587}";
}
);
background = {
anchors = (
{
name = bottom;
position = "{404, 0}";
},
{
name = top;
position = "{403, 587}";
}
);
paths = (
{
closed = 1;
nodes = (
"535 -9 OFFCURVE",
"633 94 OFFCURVE",
"633 255 CURVE SMOOTH",
"633 336 LINE SMOOTH",
"633 450 OFFCURVE",
"635 517 OFFCURVE",
"638 538 CURVE",
"621 525 LINE",
"707 535 OFFCURVE",
"761 587 OFFCURVE",
"761 658 CURVE SMOOTH",
"761 714 OFFCURVE",
"720 735 OFFCURVE",
"631 725 CURVE",
"629 659 LINE SMOOTH",
"627 624 OFFCURVE",
"596 587 OFFCURVE",
"574 587 CURVE SMOOTH",
"463 587 LINE",
"460 530 LINE",
"530 512 LINE",
"534 508 OFFCURVE",
"537 423 OFFCURVE",
"537 336 CURVE SMOOTH",
"537 279 LINE SMOOTH",
"537 160 OFFCURVE",
"494 103 OFFCURVE",
"404 103 CURVE SMOOTH",
"314 103 OFFCURVE",
"269 164 OFFCURVE",
"270 282 CURVE",
"270 354 LINE",
"270 430 OFFCURVE",
"274 485 OFFCURVE",
"276 512 CURVE",
"342 530 LINE",
"338 587 LINE",
"33 587 LINE",
"29 530 LINE",
"95 512 LINE",
"99 506 OFFCURVE",
"102 432 OFFCURVE",
"102 354 CURVE SMOOTH",
"102 262 LINE SMOOTH",
"102 87 OFFCURVE",
"201 -9 OFFCURVE",
"380 -9 CURVE SMOOTH"
);
}
);
};
layerId = "722FC537-28B1-4F35-B842-D78FAAB5B143";
paths = (
{
closed = 1;
nodes = (
"534 -9 OFFCURVE",
"632 94 OFFCURVE",
"632 255 CURVE SMOOTH",
"632 336 LINE SMOOTH",
"632 450 OFFCURVE",
"634 517 OFFCURVE",
"637 538 CURVE",
"620 525 LINE",
"706 535 OFFCURVE",
"760 587 OFFCURVE",
"760 658 CURVE SMOOTH",
"760 714 OFFCURVE",
"719 735 OFFCURVE",
"630 725 CURVE",
"628 659 LINE SMOOTH",
"626 624 OFFCURVE",
"595 587 OFFCURVE",
"573 587 CURVE SMOOTH",
"462 587 LINE",
"459 530 LINE",
"529 512 LINE",
"533 508 OFFCURVE",
"536 423 OFFCURVE",
"536 336 CURVE SMOOTH",
"536 279 LINE SMOOTH",
"536 160 OFFCURVE",
"493 103 OFFCURVE",
"403 103 CURVE SMOOTH",
"313 103 OFFCURVE",
"268 164 OFFCURVE",
"269 282 CURVE",
"269 354 LINE",
"269 430 OFFCURVE",
"273 485 OFFCURVE",
"275 512 CURVE",
"340 530 LINE",
"337 587 LINE",
"32 587 LINE",
"29 530 LINE",
"94 512 LINE",
"98 506 OFFCURVE",
"101 432 OFFCURVE",
"101 354 CURVE SMOOTH",
"101 262 LINE SMOOTH",
"101 87 OFFCURVE",
"200 -9 OFFCURVE",
"379 -9 CURVE SMOOTH"
);
}
);
width = 733;
},
{
anchors = (
{
name = bottom;
position = "{346, 0}";
},
{
name = top;
position = "{347, 587}";
}
);
layerId = "A0F5A844-D88E-40D3-8473-9812906C4A28";
paths = (
{
closed = 1;
nodes = (
"477 -9 OFFCURVE",
"556 81 OFFCURVE",
"556 235 CURVE SMOOTH",
"556 369 LINE SMOOTH",
"556 455 OFFCURVE",
"557 508 OFFCURVE",
"562 555 CURVE",
"552 538 LINE",
"638 543 OFFCURVE",
"698 590 OFFCURVE",
"698 653 CURVE SMOOTH",
"698 700 OFFCURVE",
"664 722 OFFCURVE",
"608 712 CURVE",
"606 661 LINE SMOOTH",
"604 602 OFFCURVE",
"587 587 OFFCURVE",
"522 587 CURVE SMOOTH",
"423 587 LINE",
"420 549 LINE",
"490 534 LINE",
"493 521 OFFCURVE",
"496 458 OFFCURVE",
"496 369 CURVE SMOOTH",
"496 240 LINE SMOOTH",
"496 119 OFFCURVE",
"447 57 OFFCURVE",
"351 57 CURVE SMOOTH",
"250 57 OFFCURVE",
"197 117 OFFCURVE",
"196 233 CURVE",
"196 387 LINE",
"195 492 OFFCURVE",
"198 524 OFFCURVE",
"199 534 CURVE",
"260 549 LINE",
"258 587 LINE",
"46 587 LINE",
"44 549 LINE",
"105 534 LINE",
"106 528 OFFCURVE",
"109 493 OFFCURVE",
"109 387 CURVE SMOOTH",
"109 221 LINE SMOOTH",
"109 76 OFFCURVE",
"195 -9 OFFCURVE",
"341 -9 CURVE SMOOTH"
);
}
);
width = 664;
}
);
leftKerningGroup = U;
leftMetricsKey = U;
widthMetricsKey = U;
note = Uhorn;
rightKerningGroup = Uhorn;
unicode = 01AF;
},
{
glyphname = Uogonek;
lastChange = "2021-06-22 16:48:23 +0000";
layers = (
{
anchors = (
{
name = top;
position = "{402, 587}";
},
{
name = topright;
position = "{702, 587}";
}
);
background = {
anchors = (
{
name = top;
position = "{403, 587}";
},
{
name = topright;
position = "{703, 587}";
}
);
paths = (
{
closed = 1;
nodes = (
"463 587 LINE",
"460 530 LINE",
"530 512 LINE",
"534 508 OFFCURVE",
"537 423 OFFCURVE",
"537 336 CURVE SMOOTH",
"537 279 LINE SMOOTH",
"537 160 OFFCURVE",
"494 103 OFFCURVE",
"404 103 CURVE SMOOTH",
"314 103 OFFCURVE",
"269 164 OFFCURVE",
"270 282 CURVE",
"270 354 LINE",
"270 419 OFFCURVE",
"274 483 OFFCURVE",
"276 512 CURVE",
"342 530 LINE",
"338 587 LINE",
"33 587 LINE",
"29 530 LINE",
"95 512 LINE",
"99 506 OFFCURVE",
"102 432 OFFCURVE",
"102 354 CURVE SMOOTH",
"102 262 LINE SMOOTH",
"102 87 OFFCURVE",
"201 -9 OFFCURVE",
"380 -9 CURVE SMOOTH",
"411 -9 LINE",
"438 27 LINE",
"335 -2 OFFCURVE",
"268 -58 OFFCURVE",
"268 -116 CURVE SMOOTH",
"268 -176 OFFCURVE",
"329 -223 OFFCURVE",
"407 -223 CURVE SMOOTH",
"456 -223 OFFCURVE",
"497 -207 OFFCURVE",
"528 -173 CURVE",
"496 -127 LINE",
"472 -150 OFFCURVE",
"450 -161 OFFCURVE",
"429 -161 CURVE SMOOTH",
"400 -161 OFFCURVE",
"380 -139 OFFCURVE",
"380 -108 CURVE SMOOTH",
"380 -60 OFFCURVE",
"416 -22 OFFCURVE",
"488 9 CURVE SMOOTH",
"582 49 OFFCURVE",
"633 136 OFFCURVE",
"633 255 CURVE SMOOTH",
"633 336 LINE SMOOTH",
"633 422 OFFCURVE",
"636 508 OFFCURVE",
"641 512 CURVE",
"707 530 LINE",
"703 587 LINE"
);
}
);
};
layerId = "722FC537-28B1-4F35-B842-D78FAAB5B143";
paths = (
{
closed = 1;
nodes = (
"462 587 LINE",
"459 530 LINE",
"529 512 LINE",
"533 508 OFFCURVE",
"536 423 OFFCURVE",
"536 336 CURVE SMOOTH",
"536 279 LINE SMOOTH",
"536 160 OFFCURVE",
"493 103 OFFCURVE",
"403 103 CURVE SMOOTH",
"313 103 OFFCURVE",
"268 164 OFFCURVE",
"269 282 CURVE",
"269 354 LINE",
"269 419 OFFCURVE",
"273 483 OFFCURVE",
"275 512 CURVE",
"340 530 LINE",
"337 587 LINE",
"32 587 LINE",
"29 530 LINE",
"94 512 LINE",
"98 506 OFFCURVE",
"101 432 OFFCURVE",
"101 354 CURVE SMOOTH",
"101 262 LINE SMOOTH",
"101 87 OFFCURVE",
"200 -9 OFFCURVE",
"379 -9 CURVE SMOOTH",
"410 -9 LINE",
"437 27 LINE",
"334 -2 OFFCURVE",
"267 -58 OFFCURVE",
"267 -116 CURVE SMOOTH",
"267 -176 OFFCURVE",
"328 -223 OFFCURVE",
"406 -223 CURVE SMOOTH",
"455 -223 OFFCURVE",
"496 -207 OFFCURVE",
"527 -173 CURVE",
"495 -127 LINE",
"471 -150 OFFCURVE",
"449 -161 OFFCURVE",
"428 -161 CURVE SMOOTH",
"399 -161 OFFCURVE",
"379 -139 OFFCURVE",
"379 -108 CURVE SMOOTH",
"379 -60 OFFCURVE",
"415 -22 OFFCURVE",
"487 9 CURVE SMOOTH",
"581 49 OFFCURVE",
"632 136 OFFCURVE",
"632 255 CURVE SMOOTH",
"632 336 LINE SMOOTH",
"632 422 OFFCURVE",
"635 508 OFFCURVE",
"640 512 CURVE",
"705 530 LINE",
"702 587 LINE"
);
}
);
width = 733;
},
{
anchors = (
{
name = top;
position = "{347, 587}";
},
{
name = topright;
position = "{618, 587}";
}
);
layerId = "A0F5A844-D88E-40D3-8473-9812906C4A28";
paths = (
{
closed = 1;
nodes = (
"423 587 LINE",
"420 549 LINE",
"490 534 LINE",
"493 521 OFFCURVE",
"496 453 OFFCURVE",
"496 369 CURVE SMOOTH",
"496 240 LINE SMOOTH",
"496 119 OFFCURVE",
"447 57 OFFCURVE",
"351 57 CURVE SMOOTH",
"250 57 OFFCURVE",
"197 117 OFFCURVE",
"196 233 CURVE",
"196 387 LINE",
"195 495 OFFCURVE",
"198 525 OFFCURVE",
"199 534 CURVE",
"261 549 LINE",
"258 587 LINE",
"46 587 LINE",
"44 549 LINE",
"105 534 LINE",
"106 528 OFFCURVE",
"109 493 OFFCURVE",
"109 387 CURVE SMOOTH",
"109 221 LINE SMOOTH",
"109 76 OFFCURVE",
"195 -9 OFFCURVE",
"341 -9 CURVE SMOOTH",
"370 -9 LINE",
"399 18 LINE",
"305 -19 OFFCURVE",
"254 -72 OFFCURVE",
"254 -132 CURVE SMOOTH",
"254 -185 OFFCURVE",
"301 -223 OFFCURVE",
"368 -223 CURVE SMOOTH",
"408 -223 OFFCURVE",
"445 -205 OFFCURVE",
"473 -173 CURVE",
"451 -146 LINE",
"427 -170 OFFCURVE",
"405 -181 OFFCURVE",
"382 -181 CURVE SMOOTH",
"347 -181 OFFCURVE",
"324 -158 OFFCURVE",
"324 -122 CURVE SMOOTH",
"324 -71 OFFCURVE",
"368 -19 OFFCURVE",
"435 9 CURVE SMOOTH",
"513 41 OFFCURVE",
"556 122 OFFCURVE",
"556 235 CURVE SMOOTH",
"556 369 LINE SMOOTH",
"556 460 OFFCURVE",
"558 528 OFFCURVE",
"559 534 CURVE",
"621 549 LINE",
"618 587 LINE"
);
}
);
width = 664;
}
);
leftKerningGroup = U;
leftMetricsKey = U;
widthMetricsKey = U;
note = Uogonek;
rightKerningGroup = U;
unicode = 0172;
},
{
glyphname = V;
lastChange = "2021-06-22 16:48:23 +0000";
layers = (
{
anchors = (
{
name = bottom;
position = "{313, 0}";
},
{
name = top;
position = "{313, 587}";
}
);
background = {
anchors = (
{
name = bottom;
position = "{314, 0}";
},
{
name = top;
position = "{314, 587}";
}
);
paths = (
{
closed = 1;
nodes = (
"348 -3 LINE",
"593 511 LINE",
"647 532 LINE",
"643 587 LINE",
"423 587 LINE",
"420 530 LINE",
"490 511 LINE",
"345 154 LINE",
"396 154 LINE",
"235 511 LINE",
"298 530 LINE",
"294 587 LINE",
"-3 587 LINE",
"-6 532 LINE",
"47 511 LINE",
"287 -3 LINE"
);
}
);
};
layerId = "722FC537-28B1-4F35-B842-D78FAAB5B143";
paths = (
{
closed = 1;
nodes = (
"347 -3 LINE",
"592 511 LINE",
"645 532 LINE",
"640 587 LINE",
"422 587 LINE",
"419 530 LINE",
"489 511 LINE",
"344 154 LINE",
"395 154 LINE",
"234 511 LINE",
"297 530 LINE",
"294 587 LINE",
"-4 587 LINE",
"-7 532 LINE",
"46 511 LINE",
"286 -3 LINE"
);
}
);
width = 637;
},
{
anchors = (
{
name = bottom;
position = "{288, 0}";
},
{
name = top;
position = "{288, 587}";
}
);
layerId = "A0F5A844-D88E-40D3-8473-9812906C4A28";
paths = (
{
closed = 1;
nodes = (
"312 -3 LINE",
"534 535 LINE",
"584 549 LINE",
"582 587 LINE",
"398 587 LINE",
"395 549 LINE",
"465 535 LINE",
"304 99 LINE",
"324 99 LINE",
"152 535 LINE",
"213 549 LINE",
"211 587 LINE",
"4 587 LINE",
"1 549 LINE",
"52 535 LINE",
"270 -3 LINE"
);
}
);
width = 585;
}
);
leftKerningGroup = V;
note = V;
rightKerningGroup = V;
unicode = 0056;
},
{
glyphname = W;
lastChange = "2021-06-22 16:48:23 +0000";
layers = (
{
anchors = (
{
name = bottom;
position = "{513, 0}";
},
{
name = top;
position = "{513, 587}";
}
);
background = {
anchors = (
{
name = bottom;
position = "{514, 0}";
},
{
name = top;
position = "{514, 587}";
}
);
paths = (
{
closed = 1;
nodes = (
"454 456 LINE",
"332 154 LINE",
"397 154 LINE",
"242 511 LINE",
"289 530 LINE",
"287 587 LINE",
"2 587 LINE",
"-1 530 LINE",
"50 511 LINE",
"286 -3 LINE",
"346 -3 LINE",
"507 362 LINE"
);
},
{
closed = 1;
nodes = (
"723 -3 LINE",
"957 511 LINE",
"1007 530 LINE",
"1003 587 LINE",
"789 587 LINE",
"785 530 LINE",
"852 511 LINE",
"714 154 LINE",
"767 154 LINE",
"609 511 LINE",
"674 530 LINE",
"671 587 LINE",
"374 587 LINE",
"371 530 LINE",
"422 511 LINE",
"663 -3 LINE"
);
}
);
};
layerId = "722FC537-28B1-4F35-B842-D78FAAB5B143";
paths = (
{
closed = 1;
nodes = (
"461 476 LINE",
"331 154 LINE",
"396 154 LINE",
"241 511 LINE",
"290 530 LINE",
"287 587 LINE",
"-1 587 LINE",
"-4 530 LINE",
"49 511 LINE",
"285 -3 LINE",
"345 -3 LINE",
"514 382 LINE"
);
},
{
closed = 1;
nodes = (
"722 -3 LINE",
"956 511 LINE",
"1009 530 LINE",
"1006 587 LINE",
"787 587 LINE",
"784 530 LINE",
"851 511 LINE",
"713 154 LINE",
"766 154 LINE",
"608 511 LINE",
"673 530 LINE",
"670 587 LINE",
"375 587 LINE",
"372 530 LINE",
"421 511 LINE",
"662 -3 LINE"
);
}
);
width = 1007;
},
{
anchors = (
{
name = bottom;
position = "{472, 0}";
},
{
name = top;
position = "{472, 587}";
}
);
layerId = "A0F5A844-D88E-40D3-8473-9812906C4A28";
paths = (
{
closed = 1;
nodes = (
"458 520 LINE",
"299 99 LINE",
"320 99 LINE",
"156 536 LINE",
"207 549 LINE",
"204 587 LINE",
"9 587 LINE",
"7 549 LINE",
"57 535 LINE",
"266 -3 LINE",
"309 -3 LINE",
"487 440 LINE"
);
},
{
closed = 1;
nodes = (
"670 -3 LINE",
"885 535 LINE",
"936 549 LINE",
"933 587 LINE",
"749 587 LINE",
"746 549 LINE",
"817 535 LINE",
"659 99 LINE",
"679 99 LINE",
"517 536 LINE",
"578 549 LINE",
"575 587 LINE",
"372 587 LINE",
"370 549 LINE",
"420 535 LINE",
"627 -3 LINE"
);
}
);
width = 941;
}
);
leftKerningGroup = V;
note = W;
rightKerningGroup = V;
unicode = 0057;
},
{
glyphname = X;
lastChange = "2021-06-22 16:48:23 +0000";
layers = (
{
anchors = (
{
name = bottom;
position = "{310, 0}";
},
{
name = top;
position = "{310, 587}";
}
);
background = {
anchors = (
{
name = bottom;
position = "{311, 0}";
},
{
name = top;
position = "{311, 587}";
}
);
paths = (
{
closed = 1;
nodes = (
"631 57 LINE",
"577 75 LINE",
"276 511 LINE",
"320 530 LINE",
"316 587 LINE",
"36 587 LINE",
"32 530 LINE",
"84 511 LINE",
"382 75 LINE",
"316 57 LINE",
"320 0 LINE",
"627 0 LINE"
);
},
{
closed = 1;
nodes = (
"80 75 LINE",
"30 57 LINE",
"33 0 LINE",
"248 0 LINE",
"252 57 LINE",
"191 75 LINE",
"533 511 LINE",
"583 530 LINE",
"579 587 LINE",
"386 587 LINE",
"383 530 LINE",
"421 511 LINE"
);
}
);
};
layerId = "722FC537-28B1-4F35-B842-D78FAAB5B143";
paths = (
{
closed = 1;
nodes = (
"627 57 LINE",
"576 75 LINE",
"392 341 LINE",
"348 405 LINE",
"275 511 LINE",
"316 530 LINE",
"313 587 LINE",
"35 587 LINE",
"32 530 LINE",
"83 511 LINE",
"239 282 LINE",
"287 217 LINE",
"381 75 LINE",
"319 57 LINE",
"322 0 LINE",
"624 0 LINE"
);
},
{
closed = 1;
nodes = (
"348 405 LINE",
"239 282 LINE",
"79 75 LINE",
"28 57 LINE",
"31 0 LINE",
"252 0 LINE",
"255 57 LINE",
"190 75 LINE",
"287 217 LINE",
"392 341 LINE",
"532 511 LINE",
"583 530 LINE",
"580 587 LINE",
"382 587 LINE",
"379 530 LINE",
"420 511 LINE"
);
}
);
width = 628;
},
{
anchors = (
{
name = bottom;
position = "{288, 0}";
},
{
name = top;
position = "{288, 587}";
}
);
color = 3;
layerId = "A0F5A844-D88E-40D3-8473-9812906C4A28";
paths = (
{
closed = 1;
nodes = (
"579 38 LINE",
"528 53 LINE",
"332 325 LINE",
"302 367 LINE",
"182 535 LINE",
"243 549 LINE",
"241 587 LINE",
"24 587 LINE",
"21 549 LINE",
"72 535 LINE",
"245 295 LINE",
"277 253 LINE",
"419 53 LINE",
"358 38 LINE",
"360 0 LINE",
"576 0 LINE"
);
},
{
closed = 1;
nodes = (
"302 367 LINE",
"245 295 LINE",
"66 53 LINE",
"15 38 LINE",
"17 0 LINE",
"203 0 LINE",
"205 38 LINE",
"135 53 LINE",
"277 253 LINE",
"332 325 LINE",
"491 535 LINE",
"542 549 LINE",
"540 587 LINE",
"354 587 LINE",
"352 549 LINE",
"422 535 LINE"
);
}
);
width = 582;
}
);
leftKerningGroup = X;
note = X;
rightKerningGroup = X;
unicode = 0058;
},
{
glyphname = Y;
lastChange = "2021-06-22 16:48:23 +0000";
layers = (
{
anchors = (
{
name = bottom;
position = "{311, 0}";
},
{
name = top;
position = "{311, 587}";
},
{
name = topleft;
position = "{28, 587}";
}
);
background = {
anchors = (
{
name = bottom;
position = "{312, 0}";
},
{
name = top;
position = "{312, 587}";
},
{
name = topleft;
position = "{29, 587}";
}
);
paths = (
{
closed = 1;
nodes = (
"606 530 LINE",
"602 587 LINE",
"394 587 LINE",
"391 530 LINE",
"461 511 LINE",
"345 305 LINE",
"374 305 LINE",
"259 511 LINE",
"324 530 LINE",
"321 587 LINE",
"22 587 LINE",
"18 530 LINE",
"68 511 LINE",
"269 160 LINE",
"229 281 LINE",
"229 178 LINE SMOOTH",
"229 163 OFFCURVE",
"228 84 OFFCURVE",
"224 76 CURVE",
"154 58 LINE",
"158 0 LINE",
"467 0 LINE",
"470 58 LINE",
"400 76 LINE",
"395 84 OFFCURVE",
"394 163 OFFCURVE",
"394 178 CURVE SMOOTH",
"394 281 LINE",
"338 160 LINE",
"556 511 LINE"
);
}
);
};
layerId = "722FC537-28B1-4F35-B842-D78FAAB5B143";
paths = (
{
closed = 1;
nodes = (
"606 530 LINE",
"603 587 LINE",
"393 587 LINE",
"390 530 LINE",
"460 511 LINE",
"344 305 LINE",
"373 305 LINE",
"258 511 LINE",
"323 530 LINE",
"320 587 LINE",
"19 587 LINE",
"16 530 LINE",
"67 511 LINE",
"268 160 LINE",
"228 281 LINE",
"228 178 LINE SMOOTH",
"228 163 OFFCURVE",
"227 84 OFFCURVE",
"223 76 CURVE",
"153 58 LINE",
"156 0 LINE",
"466 0 LINE",
"469 58 LINE",
"399 76 LINE",
"394 84 OFFCURVE",
"393 163 OFFCURVE",
"393 178 CURVE SMOOTH",
"393 281 LINE",
"337 160 LINE",
"555 511 LINE"
);
}
);
width = 622;
},
{
anchors = (
{
name = bottom;
position = "{270, 0}";
},
{
name = top;
position = "{270, 587}";
},
{
name = topleft;
position = "{21, 587}";
}
);
layerId = "A0F5A844-D88E-40D3-8473-9812906C4A28";
paths = (
{
closed = 1;
nodes = (
"542 549 LINE",
"540 587 LINE",
"358 587 LINE",
"355 549 LINE",
"425 535 LINE",
"284 299 LINE",
"298 299 LINE",
"151 535 LINE",
"212 549 LINE",
"209 587 LINE",
"2 587 LINE",
"0 549 LINE",
"50 535 LINE",
"248 218 LINE",
"228 286 LINE",
"228 191 LINE SMOOTH",
"228 91 OFFCURVE",
"225 59 OFFCURVE",
"223 52 CURVE",
"153 39 LINE",
"156 0 LINE",
"384 0 LINE",
"386 39 LINE",
"316 52 LINE",
"315 59 OFFCURVE",
"312 91 OFFCURVE",
"312 191 CURVE SMOOTH",
"312 286 LINE",
"287 218 LINE",
"492 535 LINE"
);
}
);
width = 541;
}
);
leftKerningGroup = Y;
note = Y;
rightKerningGroup = Y;
unicode = 0059;
},
{
glyphname = Z;
lastChange = "2021-06-22 16:48:23 +0000";
layers = (
{
anchors = (
{
name = bottom;
position = "{281, 0}";
},
{
name = top;
position = "{281, 587}";
}
);
background = {
anchors = (
{
name = bottom;
position = "{282, 0}";
},
{
name = top;
position = "{282, 587}";
}
);
paths = (
{
closed = 1;
nodes = (
"556 182 LINE",
"483 192 LINE",
"442 76 LINE",
"420 72 OFFCURVE",
"409 71 OFFCURVE",
"391 71 CURVE SMOOTH",
"222 71 LINE",
"222 26 LINE",
"522 526 LINE",
"522 589 LINE",
"495 588 OFFCURVE",
"467 587 OFFCURVE",
"441 587 CURVE SMOOTH",
"148 587 LINE SMOOTH",
"123 587 OFFCURVE",
"73 587 OFFCURVE",
"40 590 CURVE",
"42 412 LINE",
"117 412 LINE",
"139 516 LINE",
"162 519 OFFCURVE",
"184 522 OFFCURVE",
"232 522 CURVE SMOOTH",
"366 522 LINE",
"366 570 LINE",
"58 59 LINE",
"58 -4 LINE",
"85 -1 OFFCURVE",
"115 0 OFFCURVE",
"144 0 CURVE SMOOTH",
"364 0 LINE SMOOTH",
"403 0 OFFCURVE",
"497 -5 OFFCURVE",
"522 -6 CURVE"
);
}
);
};
layerId = "722FC537-28B1-4F35-B842-D78FAAB5B143";
paths = (
{
closed = 1;
nodes = (
"555 182 LINE",
"482 192 LINE",
"441 76 LINE",
"419 72 OFFCURVE",
"408 71 OFFCURVE",
"370 71 CURVE SMOOTH",
"221 71 LINE",
"221 26 LINE",
"521 526 LINE",
"521 589 LINE",
"494 588 OFFCURVE",
"466 587 OFFCURVE",
"440 587 CURVE SMOOTH",
"147 587 LINE SMOOTH",
"122 587 OFFCURVE",
"72 587 OFFCURVE",
"39 590 CURVE",
"41 412 LINE",
"116 412 LINE",
"138 516 LINE",
"161 519 OFFCURVE",
"183 522 OFFCURVE",
"231 522 CURVE SMOOTH",
"365 522 LINE",
"365 570 LINE",
"57 59 LINE",
"57 -4 LINE",
"84 -1 OFFCURVE",
"114 0 OFFCURVE",
"143 0 CURVE SMOOTH",
"363 0 LINE SMOOTH",
"402 0 OFFCURVE",
"496 -5 OFFCURVE",
"521 -6 CURVE"
);
}
);
width = 570;
},
{
anchors = (
{
name = bottom;
position = "{267, 0}";
},
{
name = top;
position = "{267, 587}";
}
);
layerId = "A0F5A844-D88E-40D3-8473-9812906C4A28";
paths = (
{
closed = 1;
nodes = (
"509 160 LINE",
"468 165 LINE",
"426 54 LINE",
"414 52 OFFCURVE",
"402 51 OFFCURVE",
"388 51 CURVE SMOOTH",
"155 51 LINE",
"155 17 LINE",
"481 553 LINE",
"481 589 LINE",
"456 588 OFFCURVE",
"430 587 OFFCURVE",
"405 587 CURVE SMOOTH",
"132 587 LINE SMOOTH",
"107 587 OFFCURVE",
"78 587 OFFCURVE",
"48 588 CURVE",
"50 434 LINE",
"92 434 LINE",
"106 535 LINE",
"123 538 OFFCURVE",
"142 539 OFFCURVE",
"171 539 CURVE SMOOTH",
"396 539 LINE",
"394 572 LINE",
"66 34 LINE",
"66 -2 LINE",
"90 -1 OFFCURVE",
"111 0 OFFCURVE",
"137 0 CURVE SMOOTH",
"388 0 LINE SMOOTH",
"419 0 OFFCURVE",
"453 -2 OFFCURVE",
"485 -4 CURVE"
);
}
);
width = 533;
}
);
leftKerningGroup = Z;
note = Z;
rightKerningGroup = Z;
unicode = 005A;
},
{
glyphname = a;
lastChange = "2021-06-22 16:48:23 +0000";
layers = (
{
anchors = (
{
name = bottom;
position = "{260, 0}";
},
{
name = ogonek;
position = "{473, 0}";
},
{
name = top;
position = "{260, 446}";
}
);
background = {
anchors = (
{
name = bottom;
position = "{261, 0}";
},
{
name = ogonek;
position = "{474, 0}";
},
{
name = top;
position = "{261, 446}";
}
);
paths = (
{
closed = 1;
nodes = (
"227 -8 OFFCURVE",
"276 24 OFFCURVE",
"315 75 CURVE",
"290 86 LINE",
"312 36 LINE SMOOTH",
"325 6 OFFCURVE",
"345 -8 OFFCURVE",
"376 -8 CURVE SMOOTH",
"399 -8 OFFCURVE",
"422 -1 OFFCURVE",
"448 10 CURVE SMOOTH",
"524 44 LINE",
"524 94 LINE",
"457 106 LINE",
"450 119 OFFCURVE",
"448 133 OFFCURVE",
"448 178 CURVE",
"451 299 LINE",
"452 395 OFFCURVE",
"371 454 OFFCURVE",
"240 454 CURVE",
"187 448 OFFCURVE",
"39 382 OFFCURVE",
"39 323 CURVE SMOOTH",
"39 276 OFFCURVE",
"92 254 OFFCURVE",
"169 269 CURVE",
"176 343 LINE SMOOTH",
"178 363 OFFCURVE",
"184 371 OFFCURVE",
"199 371 CURVE SMOOTH",
"241 371 OFFCURVE",
"285 330 OFFCURVE",
"285 291 CURVE SMOOTH",
"285 266 LINE",
"125 223 LINE SMOOTH",
"64 206 OFFCURVE",
"34 173 OFFCURVE",
"34 121 CURVE SMOOTH",
"34 70 OFFCURVE",
"90 -8 OFFCURVE",
"189 -8 CURVE SMOOTH"
);
},
{
closed = 1;
nodes = (
"227 101 OFFCURVE",
"200 130 OFFCURVE",
"200 159 CURVE SMOOTH",
"200 183 OFFCURVE",
"213 198 OFFCURVE",
"247 202 CURVE SMOOTH",
"287 204 LINE",
"287 111 LINE",
"279 106 OFFCURVE",
"265 101 OFFCURVE",
"255 101 CURVE SMOOTH"
);
}
);
};
layerId = "722FC537-28B1-4F35-B842-D78FAAB5B143";
paths = (
{
closed = 1;
nodes = (
"226 -8 OFFCURVE",
"274 26 OFFCURVE",
"314 80 CURVE",
"289 86 LINE",
"311 36 LINE SMOOTH",
"324 6 OFFCURVE",
"344 -8 OFFCURVE",
"375 -8 CURVE SMOOTH",
"398 -8 OFFCURVE",
"421 -2 OFFCURVE",
"447 10 CURVE SMOOTH",
"523 44 LINE",
"523 94 LINE",
"456 106 LINE",
"449 119 OFFCURVE",
"447 133 OFFCURVE",
"447 178 CURVE",
"450 299 LINE",
"451 395 OFFCURVE",
"370 454 OFFCURVE",
"239 454 CURVE",
"186 448 OFFCURVE",
"38 382 OFFCURVE",
"38 323 CURVE SMOOTH",
"38 276 OFFCURVE",
"91 254 OFFCURVE",
"168 269 CURVE",
"175 343 LINE SMOOTH",
"177 363 OFFCURVE",
"183 371 OFFCURVE",
"198 371 CURVE SMOOTH",
"240 371 OFFCURVE",
"284 330 OFFCURVE",
"284 291 CURVE SMOOTH",
"284 266 LINE",
"124 223 LINE SMOOTH",
"63 207 OFFCURVE",
"33 173 OFFCURVE",
"33 121 CURVE SMOOTH",
"33 70 OFFCURVE",
"89 -8 OFFCURVE",
"188 -8 CURVE SMOOTH"
);
},
{
closed = 1;
nodes = (
"226 101 OFFCURVE",
"199 130 OFFCURVE",
"199 159 CURVE SMOOTH",
"199 183 OFFCURVE",
"212 200 OFFCURVE",
"246 202 CURVE SMOOTH",
"286 204 LINE",
"286 111 LINE",
"277 104 OFFCURVE",
"264 101 OFFCURVE",
"254 101 CURVE SMOOTH"
);
}
);
width = 523;
},
{
anchors = (
{
name = bottom;
position = "{245, 0}";
},
{
name = ogonek;
position = "{425, 0}";
},
{
name = top;
position = "{231, 430}";
}
);
layerId = "A0F5A844-D88E-40D3-8473-9812906C4A28";
paths = (
{
closed = 1;
nodes = (
"238 -8 OFFCURVE",
"278 16 OFFCURVE",
"322 66 CURVE",
"307 66 LINE",
"318 27 LINE SMOOTH",
"324 4 OFFCURVE",
"338 -8 OFFCURVE",
"358 -8 CURVE SMOOTH",
"369 -8 OFFCURVE",
"385 -3 OFFCURVE",
"404 4 CURVE SMOOTH",
"453 22 LINE",
"453 53 LINE",
"389 65 LINE",
"385 77 OFFCURVE",
"383 104 OFFCURVE",
"383 129 CURVE",
"385 297 LINE",
"384 381 OFFCURVE",
"319 438 OFFCURVE",
"221 438 CURVE",
"150 428 OFFCURVE",
"61 374 OFFCURVE",
"61 330 CURVE SMOOTH",
"61 298 OFFCURVE",
"99 282 OFFCURVE",
"147 293 CURVE",
"149 335 LINE SMOOTH",
"151 376 OFFCURVE",
"160 387 OFFCURVE",
"194 387 CURVE SMOOTH",
"255 387 OFFCURVE",
"305 347 OFFCURVE",
"305 297 CURVE SMOOTH",
"305 246 LINE",
"153 195 LINE SMOOTH",
"86 173 OFFCURVE",
"59 146 OFFCURVE",
"59 101 CURVE SMOOTH",
"59 47 OFFCURVE",
"116 -8 OFFCURVE",
"196 -8 CURVE SMOOTH"
);
},
{
closed = 1;
nodes = (
"183 51 OFFCURVE",
"148 83 OFFCURVE",
"148 117 CURVE SMOOTH",
"148 144 OFFCURVE",
"161 161 OFFCURVE",
"193 169 CURVE SMOOTH",
"305 199 LINE",
"305 94 LINE",
"280 65 OFFCURVE",
"254 51 OFFCURVE",
"223 51 CURVE SMOOTH"
);
}
);
width = 474;
}
);
leftKerningGroup = a;
note = a;
rightKerningGroup = a;
unicode = 0061;
},
{
glyphname = aogonek;
lastChange = "2021-06-22 16:48:23 +0000";
layers = (
{
anchors = (
{
name = top;
position = "{260, 446}";
}
);
background = {
paths = (
{
closed = 1;
nodes = (
"227 -8 OFFCURVE",
"275 26 OFFCURVE",
"315 80 CURVE",
"290 86 LINE",
"312 36 LINE SMOOTH",
"325 6 OFFCURVE",
"345 -8 OFFCURVE",
"376 -8 CURVE SMOOTH",
"399 -8 OFFCURVE",
"422 -2 OFFCURVE",
"448 10 CURVE SMOOTH",
"524 44 LINE",
"524 94 LINE",
"457 106 LINE",
"450 119 OFFCURVE",
"448 133 OFFCURVE",
"448 178 CURVE",
"451 299 LINE",
"452 395 OFFCURVE",
"371 454 OFFCURVE",
"240 454 CURVE",
"187 448 OFFCURVE",
"39 382 OFFCURVE",
"39 323 CURVE SMOOTH",
"39 276 OFFCURVE",
"92 254 OFFCURVE",
"169 269 CURVE",
"176 343 LINE SMOOTH",
"178 363 OFFCURVE",
"184 371 OFFCURVE",
"199 371 CURVE SMOOTH",
"241 371 OFFCURVE",
"285 330 OFFCURVE",
"285 291 CURVE SMOOTH",
"285 266 LINE",
"125 223 LINE SMOOTH",
"64 207 OFFCURVE",
"34 173 OFFCURVE",
"34 121 CURVE SMOOTH",
"34 70 OFFCURVE",
"90 -8 OFFCURVE",
"189 -8 CURVE SMOOTH"
);
},
{
closed = 1;
nodes = (
"227 101 OFFCURVE",
"200 130 OFFCURVE",
"200 159 CURVE SMOOTH",
"200 183 OFFCURVE",
"213 200 OFFCURVE",
"247 202 CURVE SMOOTH",
"287 204 LINE",
"287 111 LINE",
"278 104 OFFCURVE",
"265 101 OFFCURVE",
"255 101 CURVE SMOOTH"
);
}
);
};
layerId = "722FC537-28B1-4F35-B842-D78FAAB5B143";
paths = (
{
closed = 1;
nodes = (
"467 -223 OFFCURVE",
"507 -206 OFFCURVE",
"538 -173 CURVE",
"507 -127 LINE",
"481 -151 OFFCURVE",
"459 -161 OFFCURVE",
"439 -161 CURVE SMOOTH",
"412 -161 OFFCURVE",
"391 -142 OFFCURVE",
"391 -108 CURVE SMOOTH",
"391 -71 OFFCURVE",
"413 -37 OFFCURVE",
"523 44 CURVE",
"523 94 LINE",
"456 106 LINE",
"448 123 OFFCURVE",
"446 140 OFFCURVE",
"447 178 CURVE SMOOTH",
"450 299 LINE",
"451 395 OFFCURVE",
"370 454 OFFCURVE",
"239 454 CURVE",
"186 448 OFFCURVE",
"38 382 OFFCURVE",
"38 323 CURVE SMOOTH",
"38 276 OFFCURVE",
"91 254 OFFCURVE",
"168 269 CURVE",
"175 343 LINE SMOOTH",
"177 365 OFFCURVE",
"184 371 OFFCURVE",
"198 371 CURVE SMOOTH",
"240 371 OFFCURVE",
"284 330 OFFCURVE",
"284 291 CURVE SMOOTH",
"284 266 LINE",
"124 223 LINE SMOOTH",
"65 207 OFFCURVE",
"33 174 OFFCURVE",
"33 121 CURVE SMOOTH",
"33 70 OFFCURVE",
"89 -8 OFFCURVE",
"188 -8 CURVE SMOOTH",
"226 -8 OFFCURVE",
"274 26 OFFCURVE",
"314 80 CURVE",
"289 86 LINE",
"311 36 LINE SMOOTH",
"331 -9 OFFCURVE",
"365 -11 OFFCURVE",
"415 -4 CURVE",
"398 5 LINE",
"315 -31 OFFCURVE",
"278 -73 OFFCURVE",
"278 -116 CURVE SMOOTH",
"278 -180 OFFCURVE",
"344 -223 OFFCURVE",
"417 -223 CURVE SMOOTH"
);
},
{
closed = 1;
nodes = (
"225 101 OFFCURVE",
"199 131 OFFCURVE",
"199 159 CURVE SMOOTH",
"199 183 OFFCURVE",
"212 200 OFFCURVE",
"246 202 CURVE SMOOTH",
"286 204 LINE",
"286 111 LINE",
"279 108 OFFCURVE",
"266 101 OFFCURVE",
"254 101 CURVE SMOOTH"
);
}
);
width = 523;
},
{
anchors = (
{
name = top;
position = "{231, 430}";
}
);
layerId = "A0F5A844-D88E-40D3-8473-9812906C4A28";
paths = (
{
closed = 1;
nodes = (
"417 -223 OFFCURVE",
"453 -203 OFFCURVE",
"479 -173 CURVE",
"457 -146 LINE",
"436 -167 OFFCURVE",
"414 -181 OFFCURVE",
"388 -181 CURVE SMOOTH",
"353 -181 OFFCURVE",
"330 -158 OFFCURVE",
"330 -122 CURVE SMOOTH",
"330 -79 OFFCURVE",
"360 -37 OFFCURVE",
"453 22 CURVE",
"453 52 LINE",
"389 64 LINE",
"387 70 OFFCURVE",
"382 96 OFFCURVE",
"383 129 CURVE SMOOTH",
"385 297 LINE",
"384 381 OFFCURVE",
"319 438 OFFCURVE",
"221 438 CURVE",
"146 427 OFFCURVE",
"61 372 OFFCURVE",
"61 330 CURVE SMOOTH",
"61 296 OFFCURVE",
"100 282 OFFCURVE",
"147 293 CURVE",
"149 335 LINE SMOOTH",
"151 376 OFFCURVE",
"160 387 OFFCURVE",
"194 387 CURVE SMOOTH",
"255 387 OFFCURVE",
"305 349 OFFCURVE",
"305 298 CURVE SMOOTH",
"305 246 LINE",
"153 195 LINE SMOOTH",
"84 172 OFFCURVE",
"59 144 OFFCURVE",
"59 101 CURVE SMOOTH",
"59 47 OFFCURVE",
"116 -8 OFFCURVE",
"196 -8 CURVE SMOOTH",
"238 -8 OFFCURVE",
"278 16 OFFCURVE",
"322 66 CURVE",
"307 66 LINE",
"318 27 LINE SMOOTH",
"325 0 OFFCURVE",
"350 -16 OFFCURVE",
"400 4 CURVE",
"417 19 LINE",
"322 -17 OFFCURVE",
"260 -71 OFFCURVE",
"260 -132 CURVE SMOOTH",
"260 -183 OFFCURVE",
"303 -223 OFFCURVE",
"374 -223 CURVE SMOOTH"
);
},
{
closed = 1;
nodes = (
"185 51 OFFCURVE",
"148 81 OFFCURVE",
"148 117 CURVE SMOOTH",
"148 144 OFFCURVE",
"161 160 OFFCURVE",
"193 169 CURVE SMOOTH",
"305 199 LINE",
"305 94 LINE",
"278 63 OFFCURVE",
"251 51 OFFCURVE",
"223 51 CURVE SMOOTH"
);
}
);
width = 474;
}
);
leftKerningGroup = a;
leftMetricsKey = a;
widthMetricsKey = a;
note = aogonek;
rightKerningGroup = a;
unicode = 0105;
},
{
glyphname = ae;
lastChange = "2021-06-22 16:51:33 +0000";
layers = (
{
anchors = (
{
name = bottom;
position = "{376, 0}";
},
{
name = top;
position = "{376, 446}";
}
);
background = {
paths = (
{
closed = 1;
nodes = (
"246 -8 OFFCURVE",
"306 16 OFFCURVE",
"370 86 CURVE",
"337 141 LINE",
"314 114 OFFCURVE",
"298 101 OFFCURVE",
"267 101 CURVE SMOOTH",
"236 101 OFFCURVE",
"201 121 OFFCURVE",
"201 150 CURVE SMOOTH",
"201 171 OFFCURVE",
"215 185 OFFCURVE",
"256 191 CURVE SMOOTH",
"720 249 LINE",
"720 369 OFFCURVE",
"654 454 OFFCURVE",
"541 454 CURVE SMOOTH",
"472 454 OFFCURVE",
"414 420 OFFCURVE",
"374 366 CURVE",
"440 366 LINE",
"404 425 OFFCURVE",
"338 454 OFFCURVE",
"243 454 CURVE",
"193 448 OFFCURVE",
"45 382 OFFCURVE",
"45 323 CURVE SMOOTH",
"45 279 OFFCURVE",
"94 253 OFFCURVE",
"176 269 CURVE",
"182 343 LINE SMOOTH",
"184 366 OFFCURVE",
"193 371 OFFCURVE",
"205 371 CURVE SMOOTH",
"253 371 OFFCURVE",
"294 329 OFFCURVE",
"294 265 CURVE SMOOTH",
"294 221 LINE SMOOTH",
"294 95 OFFCURVE",
"397 -8 OFFCURVE",
"526 -8 CURVE SMOOTH",
"617 -8 OFFCURVE",
"695 39 OFFCURVE",
"728 126 CURVE",
"694 158 LINE",
"663 122 OFFCURVE",
"627 106 OFFCURVE",
"585 106 CURVE SMOOTH",
"505 106 OFFCURVE",
"458 170 OFFCURVE",
"458 250 CURVE SMOOTH",
"458 265 LINE SMOOTH",
"458 362 OFFCURVE",
"484 389 OFFCURVE",
"520 389 CURVE SMOOTH",
"558 389 OFFCURVE",
"579 359 OFFCURVE",
"579 296 CURVE SMOOTH",
"579 255 LINE",
"604 292 LINE",
"191 241 LINE SMOOTH",
"77 226 OFFCURVE",
"35 185 OFFCURVE",
"35 121 CURVE SMOOTH",
"35 76 OFFCURVE",
"93 -8 OFFCURVE",
"218 -8 CURVE SMOOTH"
);
}
);
};
layerId = "722FC537-28B1-4F35-B842-D78FAAB5B143";
paths = (
{
closed = 1;
nodes = (
"245 -8 OFFCURVE",
"305 18 OFFCURVE",
"369 90 CURVE",
"336 141 LINE",
"313 114 OFFCURVE",
"297 101 OFFCURVE",
"266 101 CURVE SMOOTH",
"235 101 OFFCURVE",
"200 121 OFFCURVE",
"200 150 CURVE SMOOTH",
"200 171 OFFCURVE",
"214 186 OFFCURVE",
"255 191 CURVE SMOOTH",
"719 249 LINE",
"719 369 OFFCURVE",
"653 454 OFFCURVE",
"540 454 CURVE SMOOTH",
"471 454 OFFCURVE",
"415 420 OFFCURVE",
"377 366 CURVE",
"439 366 LINE",
"403 425 OFFCURVE",
"337 454 OFFCURVE",
"242 454 CURVE",
"192 448 OFFCURVE",
"44 382 OFFCURVE",
"44 323 CURVE SMOOTH",
"44 279 OFFCURVE",
"93 253 OFFCURVE",
"175 269 CURVE",
"181 343 LINE SMOOTH",
"183 366 OFFCURVE",
"192 371 OFFCURVE",
"204 371 CURVE SMOOTH",
"252 371 OFFCURVE",
"293 329 OFFCURVE",
"293 265 CURVE SMOOTH",
"293 221 LINE SMOOTH",
"293 95 OFFCURVE",
"396 -8 OFFCURVE",
"525 -8 CURVE SMOOTH",
"616 -8 OFFCURVE",
"694 39 OFFCURVE",
"727 126 CURVE",
"693 158 LINE",
"662 122 OFFCURVE",
"626 106 OFFCURVE",
"584 106 CURVE SMOOTH",
"504 106 OFFCURVE",
"457 170 OFFCURVE",
"457 250 CURVE SMOOTH",
"457 273 LINE SMOOTH",
"457 362 OFFCURVE",
"483 389 OFFCURVE",
"522 389 CURVE SMOOTH",
"557 389 OFFCURVE",
"578 359 OFFCURVE",
"578 296 CURVE SMOOTH",
"578 255 LINE",
"603 292 LINE",
"190 241 LINE SMOOTH",
"76 227 OFFCURVE",
"34 185 OFFCURVE",
"34 121 CURVE SMOOTH",
"34 76 OFFCURVE",
"92 -8 OFFCURVE",
"217 -8 CURVE SMOOTH"
);
}
);
width = 751;
},
{
anchors = (
{
name = bottom;
position = "{348, 0}";
},
{
name = top;
position = "{348, 430}";
}
);
layerId = "A0F5A844-D88E-40D3-8473-9812906C4A28";
paths = (
{
closed = 1;
nodes = (
"260 -8 OFFCURVE",
"295 13 OFFCURVE",
"362 88 CURVE",
"333 117 LINE",
"295 70 OFFCURVE",
"266 51 OFFCURVE",
"230 51 CURVE SMOOTH",
"187 51 OFFCURVE",
"149 80 OFFCURVE",
"149 117 CURVE SMOOTH",
"149 146 OFFCURVE",
"167 161 OFFCURVE",
"198 167 CURVE SMOOTH",
"661 255 LINE",
"661 365 OFFCURVE",
"599 438 OFFCURVE",
"504 438 CURVE SMOOTH",
"439 438 OFFCURVE",
"386 403 OFFCURVE",
"356 349 CURVE",
"375 349 LINE",
"355 409 OFFCURVE",
"292 438 OFFCURVE",
"224 438 CURVE",
"150 427 OFFCURVE",
"65 372 OFFCURVE",
"65 330 CURVE SMOOTH",
"65 296 OFFCURVE",
"106 283 OFFCURVE",
"150 293 CURVE",
"152 335 LINE SMOOTH",
"154 373 OFFCURVE",
"161 387 OFFCURVE",
"197 387 CURVE SMOOTH",
"252 387 OFFCURVE",
"308 351 OFFCURVE",
"308 282 CURVE SMOOTH",
"308 207 LINE SMOOTH",
"308 76 OFFCURVE",
"387 -8 OFFCURVE",
"499 -8 CURVE SMOOTH",
"568 -8 OFFCURVE",
"625 26 OFFCURVE",
"662 95 CURVE",
"637 119 LINE",
"601 73 OFFCURVE",
"567 59 OFFCURVE",
"525 59 CURVE SMOOTH",
"443 59 OFFCURVE",
"388 118 OFFCURVE",
"388 227 CURVE SMOOTH",
"388 259 LINE SMOOTH",
"388 340 OFFCURVE",
"433 396 OFFCURVE",
"494 396 CURVE SMOOTH",
"548 396 OFFCURVE",
"581 351 OFFCURVE",
"581 279 CURVE SMOOTH",
"581 255 LINE",
"594 283 LINE",
"186 206 LINE SMOOTH",
"99 189 OFFCURVE",
"60 155 OFFCURVE",
"60 101 CURVE SMOOTH",
"60 41 OFFCURVE",
"128 -8 OFFCURVE",
"202 -8 CURVE SMOOTH"
);
}
);
width = 698;
}
);
leftKerningGroup = a;
leftMetricsKey = "=a+1";
note = ae;
rightKerningGroup = e;
rightMetricsKey = "=e+1";
unicode = 00E6;
},
{
glyphname = b;
lastChange = "2021-06-22 16:48:23 +0000";
layers = (
{
anchors = (
{
name = bottom;
position = "{288, 0}";
},
{
name = top;
position = "{288, 660}";
}
);
background = {
anchors = (
{
name = bottom;
position = "{289, 0}";
},
{
name = top;
position = "{289, 660}";
}
);
paths = (
{
closed = 1;
nodes = (
"135 3 OFFCURVE",
"194 -8 OFFCURVE",
"262 -8 CURVE SMOOTH",
"449 -8 OFFCURVE",
"550 115 OFFCURVE",
"550 249 CURVE SMOOTH",
"550 377 OFFCURVE",
"459 454 OFFCURVE",
"360 454 CURVE SMOOTH",
"309 454 OFFCURVE",
"254 417 OFFCURVE",
"229 382 CURVE",
"226 383 LINE",
"230 536 OFFCURVE",
"233 597 OFFCURVE",
"239 680 CURVE",
"206 700 LINE",
"-13 645 LINE",
"-11 594 LINE",
"63 584 LINE",
"65 551 OFFCURVE",
"68 503 OFFCURVE",
"68 360 CURVE",
"68 271 LINE",
"68 189 OFFCURVE",
"67 94 OFFCURVE",
"63 30 CURVE"
);
},
{
closed = 1;
nodes = (
"270 86 OFFCURVE",
"245 94 OFFCURVE",
"229 106 CURVE",
"229 319 LINE",
"243 330 OFFCURVE",
"264 340 OFFCURVE",
"288 340 CURVE SMOOTH",
"332 340 OFFCURVE",
"377 306 OFFCURVE",
"377 213 CURVE SMOOTH",
"378 115 OFFCURVE",
"339 86 OFFCURVE",
"289 86 CURVE SMOOTH"
);
}
);
};
layerId = "722FC537-28B1-4F35-B842-D78FAAB5B143";
paths = (
{
closed = 1;
nodes = (
"134 3 OFFCURVE",
"193 -9 OFFCURVE",
"261 -9 CURVE SMOOTH",
"448 -9 OFFCURVE",
"549 115 OFFCURVE",
"549 249 CURVE SMOOTH",
"549 377 OFFCURVE",
"458 454 OFFCURVE",
"359 454 CURVE SMOOTH",
"308 454 OFFCURVE",
"253 415 OFFCURVE",
"228 377 CURVE",
"225 378 LINE",
"229 534 OFFCURVE",
"232 597 OFFCURVE",
"238 680 CURVE",
"205 700 LINE",
"-14 645 LINE",
"-12 594 LINE",
"62 584 LINE",
"64 551 OFFCURVE",
"67 503 OFFCURVE",
"67 360 CURVE",
"67 271 LINE",
"67 189 OFFCURVE",
"66 94 OFFCURVE",
"62 30 CURVE"
);
},
{
closed = 1;
nodes = (
"269 83 OFFCURVE",
"244 92 OFFCURVE",
"228 104 CURVE",
"228 319 LINE",
"242 330 OFFCURVE",
"263 340 OFFCURVE",
"287 340 CURVE SMOOTH",
"331 340 OFFCURVE",
"375 306 OFFCURVE",
"376 213 CURVE SMOOTH",
"377 113 OFFCURVE",
"338 83 OFFCURVE",
"288 83 CURVE SMOOTH"
);
}
);
width = 580;
},
{
anchors = (
{
name = bottom;
position = "{264, 0}";
},
{
name = top;
position = "{264, 660}";
}
);
layerId = "A0F5A844-D88E-40D3-8473-9812906C4A28";
paths = (
{
closed = 1;
nodes = (
"123 6 OFFCURVE",
"182 -8 OFFCURVE",
"239 -8 CURVE SMOOTH",
"374 -8 OFFCURVE",
"486 90 OFFCURVE",
"486 233 CURVE SMOOTH",
"486 363 OFFCURVE",
"400 438 OFFCURVE",
"301 438 CURVE SMOOTH",
"243 438 OFFCURVE",
"191 407 OFFCURVE",
"159 362 CURVE",
"156 363 LINE",
"158 525 OFFCURVE",
"159 596 OFFCURVE",
"162 680 CURVE",
"143 694 LINE",
"2 653 LINE",
"4 621 LINE",
"78 612 LINE",
"79 587 OFFCURVE",
"81 454 OFFCURVE",
"81 363 CURVE",
"81 191 LINE",
"81 134 OFFCURVE",
"81 96 OFFCURVE",
"79 27 CURVE"
);
},
{
closed = 1;
nodes = (
"217 43 OFFCURVE",
"184 55 OFFCURVE",
"157 74 CURVE",
"157 317 LINE",
"185 354 OFFCURVE",
"225 372 OFFCURVE",
"265 372 CURVE SMOOTH",
"340 372 OFFCURVE",
"400 322 OFFCURVE",
"398 215 CURVE SMOOTH",
"397 105 OFFCURVE",
"339 43 OFFCURVE",
"261 43 CURVE SMOOTH"
);
}
);
width = 526;
}
);
leftKerningGroup = b;
note = b;
rightKerningGroup = o;
unicode = 0062;
},
{
glyphname = c;
lastChange = "2021-06-22 16:48:23 +0000";
layers = (
{
anchors = (
{
name = bottom;
position = "{270, 0}";
},
{
name = top;
position = "{270, 446}";
}
);
background = {
anchors = (
{
name = bottom;
position = "{271, 0}";
},
{
name = top;
position = "{271, 446}";
}
);
paths = (
{
closed = 1;
nodes = (
"348 -8 OFFCURVE",
"428 39 OFFCURVE",
"466 130 CURVE",
"432 162 LINE",
"395 120 OFFCURVE",
"358 108 OFFCURVE",
"329 108 CURVE SMOOTH",
"259 108 OFFCURVE",
"206 157 OFFCURVE",
"206 255 CURVE SMOOTH",
"206 346 OFFCURVE",
"256 394 OFFCURVE",
"303 385 CURVE",
"242 397 LINE",
"329 325 LINE SMOOTH",
"355 303 OFFCURVE",
"375 295 OFFCURVE",
"404 295 CURVE SMOOTH",
"434 295 OFFCURVE",
"465 314 OFFCURVE",
"465 353 CURVE SMOOTH",
"465 414 OFFCURVE",
"384 454 OFFCURVE",
"296 454 CURVE SMOOTH",
"139 454 OFFCURVE",
"32 336 OFFCURVE",
"32 210 CURVE SMOOTH",
"32 88 OFFCURVE",
"135 -8 OFFCURVE",
"269 -8 CURVE SMOOTH"
);
}
);
};
layerId = "722FC537-28B1-4F35-B842-D78FAAB5B143";
paths = (
{
closed = 1;
nodes = (
"347 -8 OFFCURVE",
"427 39 OFFCURVE",
"465 130 CURVE",
"431 162 LINE",
"394 120 OFFCURVE",
"357 108 OFFCURVE",
"328 108 CURVE SMOOTH",
"258 108 OFFCURVE",
"205 157 OFFCURVE",
"205 255 CURVE SMOOTH",
"205 346 OFFCURVE",
"255 394 OFFCURVE",
"302 385 CURVE",
"241 397 LINE",
"328 325 LINE SMOOTH",
"354 303 OFFCURVE",
"374 295 OFFCURVE",
"403 295 CURVE SMOOTH",
"433 295 OFFCURVE",
"464 314 OFFCURVE",
"464 353 CURVE SMOOTH",
"464 414 OFFCURVE",
"383 454 OFFCURVE",
"295 454 CURVE SMOOTH",
"138 454 OFFCURVE",
"31 336 OFFCURVE",
"31 210 CURVE SMOOTH",
"31 88 OFFCURVE",
"134 -8 OFFCURVE",
"268 -8 CURVE SMOOTH"
);
}
);
width = 481;
},
{
anchors = (
{
name = bottom;
position = "{247, 0}";
},
{
name = top;
position = "{247, 430}";
}
);
layerId = "A0F5A844-D88E-40D3-8473-9812906C4A28";
paths = (
{
closed = 1;
nodes = (
"321 -8 OFFCURVE",
"379 26 OFFCURVE",
"417 95 CURVE",
"390 118 LINE",
"357 76 OFFCURVE",
"323 59 OFFCURVE",
"272 59 CURVE SMOOTH",
"191 59 OFFCURVE",
"130 118 OFFCURVE",
"130 225 CURVE SMOOTH",
"130 353 OFFCURVE",
"212 411 OFFCURVE",
"292 394 CURVE",
"256 404 LINE",
"307 353 LINE SMOOTH",
"330 329 OFFCURVE",
"342 323 OFFCURVE",
"364 323 CURVE SMOOTH",
"388 323 OFFCURVE",
"402 338 OFFCURVE",
"402 360 CURVE SMOOTH",
"402 400 OFFCURVE",
"354 438 OFFCURVE",
"267 438 CURVE SMOOTH",
"138 438 OFFCURVE",
"41 337 OFFCURVE",
"41 207 CURVE SMOOTH",
"41 72 OFFCURVE",
"134 -8 OFFCURVE",
"247 -8 CURVE SMOOTH"
);
}
);
width = 425;
}
);
leftKerningGroup = o;
note = c;
rightKerningGroup = c;
unicode = 0063;
},
{
glyphname = d;
lastChange = "2021-06-22 16:48:23 +0000";
layers = (
{
anchors = (
{
name = bottom;
position = "{308, 0}";
},
{
name = center;
position = "{288, 223}";
},
{
name = stroke;
position = "{367, 517}";
},
{
name = top;
position = "{288, 660}";
},
{
name = topright;
position = "{540, 688}";
}
);
background = {
anchors = (
{
name = bottom;
position = "{309, 0}";
},
{
name = center;
position = "{289, 223}";
},
{
name = stroke;
position = "{368, 517}";
},
{
name = top;
position = "{289, 660}";
},
{
name = topright;
position = "{541, 688}";
}
);
paths = (
{
closed = 1;
nodes = (
"574 40 LINE",
"574 90 LINE",
"506 103 LINE",
"503 146 OFFCURVE",
"500 171 OFFCURVE",
"500 233 CURVE",
"501 467 LINE SMOOTH",
"501 537 OFFCURVE",
"507 597 OFFCURVE",
"511 680 CURVE",
"478 700 LINE",
"261 645 LINE",
"263 595 LINE",
"335 587 LINE",
"337 554 OFFCURVE",
"339 503 OFFCURVE",
"339 449 CURVE",
"329 449 OFFCURVE",
"308 452 OFFCURVE",
"291 452 CURVE SMOOTH",
"161 452 OFFCURVE",
"32 359 OFFCURVE",
"32 208 CURVE SMOOTH",
"32 75 OFFCURVE",
"127 -11 OFFCURVE",
"228 -11 CURVE SMOOTH",
"270 -11 OFFCURVE",
"314 9 OFFCURVE",
"343 66 CURVE",
"346 64 LINE",
"345 2 LINE",
"380 -14 LINE"
);
},
{
closed = 1;
nodes = (
"244 105 OFFCURVE",
"203 155 OFFCURVE",
"203 250 CURVE SMOOTH",
"203 333 OFFCURVE",
"242 383 OFFCURVE",
"293 383 CURVE SMOOTH",
"311 383 OFFCURVE",
"327 379 OFFCURVE",
"341 368 CURVE",
"341 138 LINE",
"331 115 OFFCURVE",
"301 105 OFFCURVE",
"291 105 CURVE SMOOTH"
);
}
);
};
layerId = "722FC537-28B1-4F35-B842-D78FAAB5B143";
paths = (
{
closed = 1;
nodes = (
"573 40 LINE",
"573 90 LINE",
"505 103 LINE",
"502 146 OFFCURVE",
"499 171 OFFCURVE",
"499 233 CURVE",
"500 467 LINE SMOOTH",
"500 537 OFFCURVE",
"506 597 OFFCURVE",
"510 680 CURVE",
"477 700 LINE",
"260 645 LINE",
"262 595 LINE",
"334 587 LINE",
"336 554 OFFCURVE",
"338 502 OFFCURVE",
"338 445 CURVE",
"326 449 OFFCURVE",
"305 452 OFFCURVE",
"287 452 CURVE SMOOTH",
"160 452 OFFCURVE",
"31 359 OFFCURVE",
"31 208 CURVE SMOOTH",
"31 75 OFFCURVE",
"126 -11 OFFCURVE",
"227 -11 CURVE SMOOTH",
"269 -11 OFFCURVE",
"312 10 OFFCURVE",
"342 71 CURVE",
"345 69 LINE",
"344 2 LINE",
"379 -14 LINE"
);
},
{
closed = 1;
nodes = (
"243 105 OFFCURVE",
"202 155 OFFCURVE",
"202 250 CURVE SMOOTH",
"202 333 OFFCURVE",
"241 383 OFFCURVE",
"292 383 CURVE SMOOTH",
"310 383 OFFCURVE",
"326 379 OFFCURVE",
"340 368 CURVE",
"340 138 LINE",
"330 115 OFFCURVE",
"300 105 OFFCURVE",
"290 105 CURVE SMOOTH"
);
}
);
width = 577;
},
{
anchors = (
{
name = bottom;
position = "{284, 0}";
},
{
name = center;
position = "{271, 215}";
},
{
name = stroke;
position = "{348, 519}";
},
{
name = top;
position = "{271, 660}";
},
{
name = topright;
position = "{485, 688}";
}
);
layerId = "A0F5A844-D88E-40D3-8473-9812906C4A28";
paths = (
{
closed = 1;
nodes = (
"514 21 LINE",
"514 54 LINE",
"450 70 LINE",
"448 90 OFFCURVE",
"444 141 OFFCURVE",
"444 209 CURVE",
"445 439 LINE SMOOTH",
"445 523 OFFCURVE",
"446 597 OFFCURVE",
"449 680 CURVE",
"431 694 LINE",
"284 653 LINE",
"286 620 LINE",
"364 606 LINE",
"366 582 OFFCURVE",
"368 457 OFFCURVE",
"368 409 CURVE",
"341 429 OFFCURVE",
"299 438 OFFCURVE",
"262 438 CURVE SMOOTH",
"146 438 OFFCURVE",
"40 342 OFFCURVE",
"40 200 CURVE SMOOTH",
"40 78 OFFCURVE",
"124 -8 OFFCURVE",
"238 -8 CURVE SMOOTH",
"285 -8 OFFCURVE",
"326 12 OFFCURVE",
"366 68 CURVE",
"369 67 LINE",
"368 2 LINE",
"383 -11 LINE"
);
},
{
closed = 1;
nodes = (
"188 59 OFFCURVE",
"128 120 OFFCURVE",
"128 226 CURVE SMOOTH",
"128 325 OFFCURVE",
"178 393 OFFCURVE",
"262 393 CURVE SMOOTH",
"301 393 OFFCURVE",
"343 376 OFFCURVE",
"368 331 CURVE",
"368 116 LINE",
"333 73 OFFCURVE",
"301 59 OFFCURVE",
"263 59 CURVE SMOOTH"
);
}
);
width = 539;
}
);
leftKerningGroup = o;
note = d;
rightKerningGroup = l;
unicode = 0064;
},
{
glyphname = eth;
lastChange = "2021-06-22 16:48:23 +0000";
layers = (
{
background = {
paths = (
{
closed = 1;
nodes = (
"424 435 LINE",
"392 443 OFFCURVE",
"348 452 OFFCURVE",
"314 452 CURVE SMOOTH",
"141 452 OFFCURVE",
"32 368 OFFCURVE",
"32 222 CURVE SMOOTH",
"32 95 OFFCURVE",
"136 -8 OFFCURVE",
"279 -8 CURVE SMOOTH",
"416 -8 OFFCURVE",
"510 92 OFFCURVE",
"510 276 CURVE SMOOTH",
"510 465 OFFCURVE",
"386 651 OFFCURVE",
"212 688 CURVE",
"33 688 LINE",
"31 637 LINE",
"258 582 OFFCURVE",
"346 454 OFFCURVE",
"346 223 CURVE SMOOTH",
"346 112 OFFCURVE",
"329 68 OFFCURVE",
"298 68 CURVE SMOOTH",
"258 68 OFFCURVE",
"205 113 OFFCURVE",
"205 240 CURVE SMOOTH",
"205 327 OFFCURVE",
"246 380 OFFCURVE",
"313 380 CURVE SMOOTH",
"338 380 OFFCURVE",
"371 375 OFFCURVE",
"396 367 CURVE"
);
},
{
closed = 1;
nodes = (
"469 633 LINE",
"440 698 LINE",
"57 528 LINE",
"86 463 LINE"
);
}
);
};
layerId = "722FC537-28B1-4F35-B842-D78FAAB5B143";
paths = (
{
closed = 1;
nodes = (
"423 435 LINE",
"391 443 OFFCURVE",
"347 452 OFFCURVE",
"313 452 CURVE SMOOTH",
"140 452 OFFCURVE",
"31 368 OFFCURVE",
"31 222 CURVE SMOOTH",
"31 95 OFFCURVE",
"135 -8 OFFCURVE",
"278 -8 CURVE SMOOTH",
"415 -8 OFFCURVE",
"509 92 OFFCURVE",
"509 276 CURVE SMOOTH",
"509 465 OFFCURVE",
"385 651 OFFCURVE",
"211 688 CURVE",
"32 688 LINE",
"30 637 LINE",
"257 582 OFFCURVE",
"345 454 OFFCURVE",
"345 223 CURVE SMOOTH",
"345 112 OFFCURVE",
"328 68 OFFCURVE",
"297 68 CURVE SMOOTH",
"257 68 OFFCURVE",
"204 113 OFFCURVE",
"204 240 CURVE SMOOTH",
"204 327 OFFCURVE",
"245 380 OFFCURVE",
"312 380 CURVE SMOOTH",
"337 380 OFFCURVE",
"370 375 OFFCURVE",
"395 367 CURVE"
);
},
{
closed = 1;
nodes = (
"468 633 LINE",
"439 698 LINE",
"56 528 LINE",
"85 463 LINE"
);
}
);
width = 542;
},
{
color = 3;
layerId = "A0F5A844-D88E-40D3-8473-9812906C4A28";
paths = (
{
closed = 1;
nodes = (
"389 417 LINE",
"348 433 OFFCURVE",
"308 438 OFFCURVE",
"276 438 CURVE SMOOTH",
"145 438 OFFCURVE",
"41 354 OFFCURVE",
"41 209 CURVE SMOOTH",
"41 68 OFFCURVE",
"137 -8 OFFCURVE",
"250 -8 CURVE SMOOTH",
"374 -8 OFFCURVE",
"458 90 OFFCURVE",
"458 271 CURVE SMOOTH",
"458 454 OFFCURVE",
"337 632 OFFCURVE",
"163 688 CURVE",
"62 688 LINE",
"60 656 LINE",
"265 591 OFFCURVE",
"372 440 OFFCURVE",
"372 236 CURVE SMOOTH",
"372 94 OFFCURVE",
"334 40 OFFCURVE",
"263 40 CURVE SMOOTH",
"185 40 OFFCURVE",
"131 111 OFFCURVE",
"131 220 CURVE SMOOTH",
"131 333 OFFCURVE",
"183 392 OFFCURVE",
"275 392 CURVE SMOOTH",
"309 392 OFFCURVE",
"345 387 OFFCURVE",
"380 367 CURVE"
);
},
{
closed = 1;
nodes = (
"406 658 LINE",
"386 698 LINE",
"72 544 LINE",
"91 504 LINE"
);
}
);
width = 500;
}
);
leftKerningGroup = eth;
note = eth;
rightKerningGroup = eth;
unicode = 00F0;
},
{
glyphname = e;
lastChange = "2021-06-22 16:48:23 +0000";
layers = (
{
anchors = (
{
name = bottom;
position = "{263, 0}";
},
{
name = ogonek;
position = "{410, 0}";
},
{
name = top;
position = "{263, 446}";
}
);
background = {
anchors = (
{
name = bottom;
position = "{264, 0}";
},
{
name = ogonek;
position = "{411, 0}";
},
{
name = top;
position = "{264, 446}";
}
);
paths = (
{
closed = 1;
nodes = (
"359 -8 OFFCURVE",
"438 39 OFFCURVE",
"475 126 CURVE",
"441 159 LINE",
"407 122 OFFCURVE",
"370 106 OFFCURVE",
"325 106 CURVE SMOOTH",
"242 106 OFFCURVE",
"191 167 OFFCURVE",
"191 250 CURVE SMOOTH",
"191 276 LINE SMOOTH",
"191 353 OFFCURVE",
"220 389 OFFCURVE",
"264 389 CURVE SMOOTH",
"306 389 OFFCURVE",
"330 353 OFFCURVE",
"330 298 CURVE SMOOTH",
"330 255 LINE",
"349 286 LINE",
"188 286 LINE",
"188 229 LINE",
"468 229 LINE",
"468 257 LINE SMOOTH",
"468 374 OFFCURVE",
"393 454 OFFCURVE",
"272 454 CURVE SMOOTH",
"148 453 OFFCURVE",
"33 354 OFFCURVE",
"33 217 CURVE SMOOTH",
"33 96 OFFCURVE",
"128 -8 OFFCURVE",
"266 -8 CURVE SMOOTH"
);
}
);
};
layerId = "722FC537-28B1-4F35-B842-D78FAAB5B143";
paths = (
{
closed = 1;
nodes = (
"358 -8 OFFCURVE",
"437 39 OFFCURVE",
"474 126 CURVE",
"440 159 LINE",
"406 122 OFFCURVE",
"369 106 OFFCURVE",
"324 106 CURVE SMOOTH",
"241 106 OFFCURVE",
"190 167 OFFCURVE",
"190 250 CURVE SMOOTH",
"190 276 LINE SMOOTH",
"190 353 OFFCURVE",
"219 389 OFFCURVE",
"263 389 CURVE SMOOTH",
"305 389 OFFCURVE",
"329 353 OFFCURVE",
"329 298 CURVE SMOOTH",
"329 255 LINE",
"348 286 LINE",
"177 286 LINE",
"177 229 LINE",
"467 229 LINE",
"467 257 LINE SMOOTH",
"467 374 OFFCURVE",
"392 454 OFFCURVE",
"271 454 CURVE SMOOTH",
"147 453 OFFCURVE",
"32 354 OFFCURVE",
"32 217 CURVE SMOOTH",
"32 96 OFFCURVE",
"127 -8 OFFCURVE",
"265 -8 CURVE SMOOTH"
);
}
);
width = 497;
},
{
anchors = (
{
name = bottom;
position = "{240, 0}";
},
{
name = ogonek;
position = "{363, 0}";
},
{
name = top;
position = "{240, 430}";
}
);
layerId = "A0F5A844-D88E-40D3-8473-9812906C4A28";
paths = (
{
closed = 1;
nodes = (
"319 -8 OFFCURVE",
"377 26 OFFCURVE",
"415 95 CURVE",
"390 118 LINE",
"355 76 OFFCURVE",
"320 59 OFFCURVE",
"273 59 CURVE SMOOTH",
"188 59 OFFCURVE",
"128 123 OFFCURVE",
"128 233 CURVE SMOOTH",
"128 245 LINE SMOOTH",
"128 346 OFFCURVE",
"183 396 OFFCURVE",
"240 396 CURVE SMOOTH",
"300 396 OFFCURVE",
"337 353 OFFCURVE",
"337 276 CURVE SMOOTH",
"337 255 LINE",
"348 268 LINE",
"107 268 LINE",
"107 224 LINE",
"414 224 LINE",
"414 242 LINE SMOOTH",
"414 366 OFFCURVE",
"352 437 OFFCURVE",
"248 438 CURVE SMOOTH",
"140 439 OFFCURVE",
"42 349 OFFCURVE",
"42 207 CURVE SMOOTH",
"42 74 OFFCURVE",
"132 -8 OFFCURVE",
"248 -8 CURVE SMOOTH"
);
}
);
width = 450;
}
);
leftKerningGroup = o;
note = e;
rightKerningGroup = e;
unicode = 0065;
},
{
glyphname = eogonek;
lastChange = "2021-06-22 16:48:23 +0000";
layers = (
{
anchors = (
{
name = top;
position = "{263, 446}";
}
);
background = {
anchors = (
{
name = top;
position = "{264, 446}";
}
);
paths = (
{
closed = 1;
nodes = (
"418 -151 OFFCURVE",
"396 -161 OFFCURVE",
"377 -161 CURVE SMOOTH",
"350 -161 OFFCURVE",
"328 -142 OFFCURVE",
"328 -105 CURVE SMOOTH",
"328 -60 OFFCURVE",
"355 -24 OFFCURVE",
"419 47 CURVE SMOOTH",
"443 74 OFFCURVE",
"465 101 OFFCURVE",
"475 126 CURVE",
"441 159 LINE",
"407 122 OFFCURVE",
"370 106 OFFCURVE",
"325 106 CURVE SMOOTH",
"242 106 OFFCURVE",
"191 167 OFFCURVE",
"191 250 CURVE SMOOTH",
"191 276 LINE SMOOTH",
"191 353 OFFCURVE",
"220 389 OFFCURVE",
"264 389 CURVE SMOOTH",
"306 389 OFFCURVE",
"330 353 OFFCURVE",
"330 298 CURVE SMOOTH",
"330 255 LINE",
"349 286 LINE",
"188 286 LINE",
"188 229 LINE",
"468 229 LINE",
"468 257 LINE SMOOTH",
"468 374 OFFCURVE",
"393 454 OFFCURVE",
"272 454 CURVE SMOOTH",
"148 453 OFFCURVE",
"33 354 OFFCURVE",
"33 217 CURVE SMOOTH",
"33 96 OFFCURVE",
"128 -8 OFFCURVE",
"266 -8 CURVE SMOOTH",
"280 -8 OFFCURVE",
"294 -10 OFFCURVE",
"338 4 CURVE",
"335 13 LINE",
"241 -32 OFFCURVE",
"216 -76 OFFCURVE",
"216 -116 CURVE SMOOTH",
"216 -180 OFFCURVE",
"282 -223 OFFCURVE",
"355 -223 CURVE SMOOTH",
"404 -223 OFFCURVE",
"445 -206 OFFCURVE",
"476 -173 CURVE",
"444 -127 LINE"
);
}
);
};
layerId = "722FC537-28B1-4F35-B842-D78FAAB5B143";
paths = (
{
closed = 1;
nodes = (
"417 -151 OFFCURVE",
"395 -161 OFFCURVE",
"376 -161 CURVE SMOOTH",
"349 -161 OFFCURVE",
"327 -142 OFFCURVE",
"327 -105 CURVE SMOOTH",
"327 -60 OFFCURVE",
"354 -24 OFFCURVE",
"418 47 CURVE SMOOTH",
"442 74 OFFCURVE",
"464 101 OFFCURVE",
"474 126 CURVE",
"440 159 LINE",
"406 122 OFFCURVE",
"369 106 OFFCURVE",
"324 106 CURVE SMOOTH",
"241 106 OFFCURVE",
"190 167 OFFCURVE",
"190 250 CURVE SMOOTH",
"190 276 LINE SMOOTH",
"190 353 OFFCURVE",
"219 389 OFFCURVE",
"263 389 CURVE SMOOTH",
"305 389 OFFCURVE",
"329 353 OFFCURVE",
"329 298 CURVE SMOOTH",
"329 255 LINE",
"348 286 LINE",
"177 286 LINE",
"177 229 LINE",
"467 229 LINE",
"467 257 LINE SMOOTH",
"467 374 OFFCURVE",
"392 454 OFFCURVE",
"271 454 CURVE SMOOTH",
"147 454 OFFCURVE",
"32 354 OFFCURVE",
"32 217 CURVE SMOOTH",
"32 96 OFFCURVE",
"127 -8 OFFCURVE",
"265 -8 CURVE SMOOTH",
"279 -8 OFFCURVE",
"293 -10 OFFCURVE",
"337 4 CURVE",
"334 13 LINE",
"240 -32 OFFCURVE",
"215 -76 OFFCURVE",
"215 -116 CURVE SMOOTH",
"215 -180 OFFCURVE",
"281 -223 OFFCURVE",
"354 -223 CURVE SMOOTH",
"403 -223 OFFCURVE",
"444 -206 OFFCURVE",
"475 -173 CURVE",
"443 -127 LINE"
);
}
);
width = 497;
},
{
anchors = (
{
name = top;
position = "{240, 430}";
}
);
layerId = "A0F5A844-D88E-40D3-8473-9812906C4A28";
paths = (
{
closed = 1;
nodes = (
"373 -167 OFFCURVE",
"351 -181 OFFCURVE",
"326 -181 CURVE SMOOTH",
"290 -181 OFFCURVE",
"267 -158 OFFCURVE",
"267 -122 CURVE SMOOTH",
"267 -79 OFFCURVE",
"300 -38 OFFCURVE",
"373 39 CURVE SMOOTH",
"388 54 OFFCURVE",
"402 73 OFFCURVE",
"415 95 CURVE",
"390 118 LINE",
"355 76 OFFCURVE",
"320 59 OFFCURVE",
"273 59 CURVE SMOOTH",
"188 59 OFFCURVE",
"128 123 OFFCURVE",
"128 233 CURVE SMOOTH",
"128 245 LINE SMOOTH",
"128 346 OFFCURVE",
"183 396 OFFCURVE",
"240 396 CURVE SMOOTH",
"300 396 OFFCURVE",
"337 353 OFFCURVE",
"337 276 CURVE SMOOTH",
"337 255 LINE",
"348 268 LINE",
"107 268 LINE",
"107 224 LINE",
"414 224 LINE",
"414 242 LINE SMOOTH",
"414 366 OFFCURVE",
"352 436 OFFCURVE",
"248 438 CURVE SMOOTH",
"140 439 OFFCURVE",
"42 349 OFFCURVE",
"42 206 CURVE SMOOTH",
"42 74 OFFCURVE",
"132 -8 OFFCURVE",
"248 -8 CURVE SMOOTH",
"272 -8 OFFCURVE",
"298 -5 OFFCURVE",
"320 6 CURVE",
"325 19 LINE",
"243 -30 OFFCURVE",
"198 -79 OFFCURVE",
"198 -132 CURVE SMOOTH",
"198 -183 OFFCURVE",
"242 -223 OFFCURVE",
"311 -223 CURVE SMOOTH",
"355 -223 OFFCURVE",
"391 -203 OFFCURVE",
"416 -173 CURVE",
"395 -146 LINE"
);
}
);
width = 450;
}
);
leftKerningGroup = o;
leftMetricsKey = e;
widthMetricsKey = e;
note = eogonek;
rightKerningGroup = e;
unicode = 0119;
},
{
glyphname = schwa;
lastChange = "2021-06-22 16:51:33 +0000";
layers = (
{
background = {
paths = (
{
closed = 1;
nodes = (
"139 454 OFFCURVE",
"63 406 OFFCURVE",
"24 319 CURVE",
"58 287 LINE",
"93 326 OFFCURVE",
"131 342 OFFCURVE",
"185 342 CURVE SMOOTH",
"262 342 OFFCURVE",
"313 283 OFFCURVE",
"313 195 CURVE SMOOTH",
"313 169 LINE SMOOTH",
"313 98 OFFCURVE",
"290 55 OFFCURVE",
"248 55 CURVE SMOOTH",
"201 55 OFFCURVE",
"175 89 OFFCURVE",
"175 148 CURVE SMOOTH",
"175 191 LINE",
"155 159 LINE",
"317 159 LINE",
"317 217 LINE",
"31 217 LINE",
"31 189 LINE SMOOTH",
"31 70 OFFCURVE",
"115 -9 OFFCURVE",
"245 -8 CURVE SMOOTH",
"368 -7 OFFCURVE",
"471 91 OFFCURVE",
"471 229 CURVE SMOOTH",
"471 355 OFFCURVE",
"373 454 OFFCURVE",
"243 454 CURVE SMOOTH"
);
}
);
};
layerId = "722FC537-28B1-4F35-B842-D78FAAB5B143";
paths = (
{
closed = 1;
nodes = (
"138 454 OFFCURVE",
"62 406 OFFCURVE",
"23 319 CURVE",
"57 287 LINE",
"92 326 OFFCURVE",
"130 342 OFFCURVE",
"184 342 CURVE SMOOTH",
"261 342 OFFCURVE",
"312 283 OFFCURVE",
"312 195 CURVE SMOOTH",
"312 169 LINE SMOOTH",
"312 98 OFFCURVE",
"289 55 OFFCURVE",
"247 55 CURVE SMOOTH",
"200 55 OFFCURVE",
"174 89 OFFCURVE",
"174 148 CURVE SMOOTH",
"174 191 LINE",
"154 159 LINE",
"316 159 LINE",
"316 217 LINE",
"30 217 LINE",
"30 189 LINE SMOOTH",
"30 70 OFFCURVE",
"114 -9 OFFCURVE",
"244 -8 CURVE SMOOTH",
"367 -7 OFFCURVE",
"470 91 OFFCURVE",
"470 229 CURVE SMOOTH",
"470 355 OFFCURVE",
"372 454 OFFCURVE",
"242 454 CURVE SMOOTH"
);
}
);
width = 502;
},
{
layerId = "A0F5A844-D88E-40D3-8473-9812906C4A28";
paths = (
{
closed = 1;
nodes = (
"134 438 OFFCURVE",
"71 401 OFFCURVE",
"35 335 CURVE",
"61 311 LINE",
"94 354 OFFCURVE",
"134 372 OFFCURVE",
"186 372 CURVE SMOOTH",
"273 372 OFFCURVE",
"327 305 OFFCURVE",
"327 197 CURVE SMOOTH",
"327 185 LINE SMOOTH",
"327 92 OFFCURVE",
"288 35 OFFCURVE",
"223 35 CURVE SMOOTH",
"159 35 OFFCURVE",
"118 80 OFFCURVE",
"118 154 CURVE SMOOTH",
"118 175 LINE",
"106 162 LINE",
"348 162 LINE",
"348 206 LINE",
"37 206 LINE",
"37 189 LINE SMOOTH",
"37 67 OFFCURVE",
"106 -7 OFFCURVE",
"218 -8 CURVE SMOOTH",
"329 -9 OFFCURVE",
"413 80 OFFCURVE",
"413 224 CURVE SMOOTH",
"413 351 OFFCURVE",
"332 438 OFFCURVE",
"212 438 CURVE SMOOTH"
);
}
);
width = 455;
}
);
leftKerningGroup = o;
leftMetricsKey = "=|e";
rightKerningGroup = o;
rightMetricsKey = "=|e";
unicode = 0259;
},
{
glyphname = f;
lastChange = "2021-06-22 16:48:23 +0000";
layers = (
{
background = {
paths = (
{
closed = 1;
nodes = (
"330 51 LINE",
"248 70 LINE",
"242 129 OFFCURVE",
"241 211 OFFCURVE",
"241 283 CURVE",
"240 372 LINE",
"238 444 LINE",
"238 513 LINE SMOOTH",
"238 599 OFFCURVE",
"254 644 OFFCURVE",
"288 644 CURVE",
"231 651 LINE",
"296 592 LINE SMOOTH",
"319 573 OFFCURVE",
"339 564 OFFCURVE",
"361 564 CURVE SMOOTH",
"396 564 OFFCURVE",
"416 582 OFFCURVE",
"416 616 CURVE SMOOTH",
"416 665 OFFCURVE",
"364 698 OFFCURVE",
"288 698 CURVE SMOOTH",
"169 698 OFFCURVE",
"77 594 OFFCURVE",
"77 458 CURVE SMOOTH",
"77 372 LINE",
"78 285 LINE",
"78 149 OFFCURVE",
"78 142 OFFCURVE",
"76 70 CURVE",
"14 52 LINE",
"17 0 LINE",
"327 0 LINE"
);
},
{
closed = 1;
nodes = (
"342 372 LINE",
"342 444 LINE",
"126 444 LINE",
"77 449 LINE",
"5 427 LINE",
"5 372 LINE"
);
}
);
};
layerId = "722FC537-28B1-4F35-B842-D78FAAB5B143";
paths = (
{
closed = 1;
nodes = (
"329 51 LINE",
"247 70 LINE",
"241 129 OFFCURVE",
"240 211 OFFCURVE",
"240 283 CURVE",
"239 372 LINE",
"237 444 LINE",
"237 513 LINE SMOOTH",
"237 599 OFFCURVE",
"253 644 OFFCURVE",
"287 644 CURVE",
"230 651 LINE",
"295 592 LINE SMOOTH",
"318 573 OFFCURVE",
"338 564 OFFCURVE",
"360 564 CURVE SMOOTH",
"395 564 OFFCURVE",
"415 582 OFFCURVE",
"415 616 CURVE SMOOTH",
"415 665 OFFCURVE",
"363 698 OFFCURVE",
"287 698 CURVE SMOOTH",
"168 698 OFFCURVE",
"76 594 OFFCURVE",
"76 458 CURVE SMOOTH",
"76 372 LINE",
"77 285 LINE",
"77 149 OFFCURVE",
"77 142 OFFCURVE",
"75 70 CURVE",
"13 52 LINE",
"16 0 LINE",
"326 0 LINE"
);
},
{
closed = 1;
nodes = (
"341 372 LINE",
"341 444 LINE",
"125 444 LINE",
"76 449 LINE",
"4 427 LINE",
"4 372 LINE"
);
}
);
width = 346;
},
{
layerId = "A0F5A844-D88E-40D3-8473-9812906C4A28";
paths = (
{
closed = 1;
nodes = (
"258 38 LINE",
"176 51 LINE",
"175 83 OFFCURVE",
"173 148 OFFCURVE",
"173 206 CURVE",
"172 378 LINE",
"171 428 LINE",
"171 520 LINE SMOOTH",
"171 612 OFFCURVE",
"199 665 OFFCURVE",
"248 665 CURVE",
"224 671 LINE",
"270 627 LINE SMOOTH",
"286 611 OFFCURVE",
"299 605 OFFCURVE",
"317 605 CURVE SMOOTH",
"336 605 OFFCURVE",
"350 617 OFFCURVE",
"350 636 CURVE SMOOTH",
"350 671 OFFCURVE",
"309 698 OFFCURVE",
"255 698 CURVE SMOOTH",
"159 698 OFFCURVE",
"95 619 OFFCURVE",
"95 492 CURVE SMOOTH",
"95 378 LINE",
"96 198 LINE",
"96 108 OFFCURVE",
"96 77 OFFCURVE",
"94 51 CURVE",
"32 36 LINE",
"35 0 LINE",
"256 0 LINE"
);
},
{
closed = 1;
nodes = (
"282 378 LINE",
"282 428 LINE",
"169 428 LINE",
"95 428 LINE",
"23 411 LINE",
"23 378 LINE"
);
}
);
width = 303;
}
);
leftKerningGroup = f;
note = f;
rightKerningGroup = f;
unicode = 0066;
},
{
glyphname = g;
lastChange = "2021-06-22 16:48:23 +0000";
layers = (
{
anchors = (
{
name = bottom;
position = "{270, -220}";
},
{
name = top;
position = "{264, 446}";
}
);
background = {
anchors = (
{
name = bottom;
position = "{271, -220}";
},
{
name = top;
position = "{265, 446}";
}
);
paths = (
{
closed = 1;
nodes = (
"410 -228 OFFCURVE",
"523 -152 OFFCURVE",
"523 -56 CURVE SMOOTH",
"523 12 OFFCURVE",
"478 60 OFFCURVE",
"378 70 CURVE SMOOTH",
"203 88 LINE SMOOTH",
"191 90 OFFCURVE",
"185 94 OFFCURVE",
"185 107 CURVE SMOOTH",
"185 118 OFFCURVE",
"193 127 OFFCURVE",
"203 132 CURVE",
"185 147 LINE",
"103 127 OFFCURVE",
"53 87 OFFCURVE",
"53 40 CURVE SMOOTH",
"53 -3 OFFCURVE",
"93 -31 OFFCURVE",
"172 -31 CURVE",
"178 -37 LINE",
"323 -50 LINE SMOOTH",
"366 -55 OFFCURVE",
"382 -67 OFFCURVE",
"382 -93 CURVE SMOOTH",
"382 -132 OFFCURVE",
"332 -162 OFFCURVE",
"268 -162 CURVE SMOOTH",
"197 -162 OFFCURVE",
"162 -140 OFFCURVE",
"162 -100 CURVE SMOOTH",
"162 -74 OFFCURVE",
"179 -44 OFFCURVE",
"203 -24 CURVE",
"156 -20 LINE",
"73 -34 OFFCURVE",
"13 -76 OFFCURVE",
"13 -120 CURVE SMOOTH",
"13 -188 OFFCURVE",
"101 -228 OFFCURVE",
"254 -228 CURVE SMOOTH"
);
},
{
closed = 1;
nodes = (
"387 115 OFFCURVE",
"474 182 OFFCURVE",
"474 280 CURVE SMOOTH",
"474 378 OFFCURVE",
"383 457 OFFCURVE",
"264 457 CURVE SMOOTH",
"138 457 OFFCURVE",
"42 386 OFFCURVE",
"42 286 CURVE SMOOTH",
"42 182 OFFCURVE",
"125 115 OFFCURVE",
"256 115 CURVE SMOOTH"
);
},
{
closed = 1;
nodes = (
"233 184 OFFCURVE",
"210 226 OFFCURVE",
"210 287 CURVE SMOOTH",
"210 347 OFFCURVE",
"231 388 OFFCURVE",
"263 388 CURVE SMOOTH",
"296 388 OFFCURVE",
"318 345 OFFCURVE",
"318 281 CURVE SMOOTH",
"318 221 OFFCURVE",
"297 184 OFFCURVE",
"266 184 CURVE SMOOTH"
);
},
{
closed = 1;
nodes = (
"525 443 LINE",
"343 421 LINE",
"361 369 LINE",
"525 352 LINE"
);
}
);
};
layerId = "722FC537-28B1-4F35-B842-D78FAAB5B143";
paths = (
{
closed = 1;
nodes = (
"409 -228 OFFCURVE",
"522 -152 OFFCURVE",
"522 -56 CURVE SMOOTH",
"522 12 OFFCURVE",
"477 61 OFFCURVE",
"377 71 CURVE SMOOTH",
"202 88 LINE SMOOTH",
"190 89 OFFCURVE",
"184 94 OFFCURVE",
"184 107 CURVE SMOOTH",
"184 118 OFFCURVE",
"192 127 OFFCURVE",
"202 132 CURVE",
"184 147 LINE",
"102 127 OFFCURVE",
"52 87 OFFCURVE",
"52 40 CURVE SMOOTH",
"52 -3 OFFCURVE",
"92 -31 OFFCURVE",
"171 -31 CURVE",
"177 -36 LINE",
"322 -50 LINE SMOOTH",
"365 -54 OFFCURVE",
"381 -67 OFFCURVE",
"381 -93 CURVE SMOOTH",
"381 -132 OFFCURVE",
"331 -162 OFFCURVE",
"267 -162 CURVE SMOOTH",
"196 -162 OFFCURVE",
"161 -140 OFFCURVE",
"161 -100 CURVE SMOOTH",
"161 -74 OFFCURVE",
"178 -44 OFFCURVE",
"202 -24 CURVE",
"157 -23 LINE",
"74 -34 OFFCURVE",
"12 -76 OFFCURVE",
"12 -120 CURVE SMOOTH",
"12 -188 OFFCURVE",
"100 -228 OFFCURVE",
"253 -228 CURVE SMOOTH"
);
},
{
closed = 1;
nodes = (
"386 115 OFFCURVE",
"473 182 OFFCURVE",
"473 280 CURVE SMOOTH",
"473 378 OFFCURVE",
"382 457 OFFCURVE",
"263 457 CURVE SMOOTH",
"137 457 OFFCURVE",
"41 386 OFFCURVE",
"41 286 CURVE SMOOTH",
"41 182 OFFCURVE",
"124 115 OFFCURVE",
"255 115 CURVE SMOOTH"
);
},
{
closed = 1;
nodes = (
"232 184 OFFCURVE",
"209 226 OFFCURVE",
"209 287 CURVE SMOOTH",
"209 347 OFFCURVE",
"230 388 OFFCURVE",
"262 388 CURVE SMOOTH",
"295 388 OFFCURVE",
"317 345 OFFCURVE",
"317 281 CURVE SMOOTH",
"317 221 OFFCURVE",
"296 184 OFFCURVE",
"265 184 CURVE SMOOTH"
);
},
{
closed = 1;
nodes = (
"524 443 LINE",
"362 421 LINE",
"380 369 LINE",
"524 352 LINE"
);
}
);
width = 539;
},
{
anchors = (
{
name = bottom;
position = "{244, -220}";
},
{
name = top;
position = "{241, 430}";
}
);
layerId = "A0F5A844-D88E-40D3-8473-9812906C4A28";
paths = (
{
closed = 1;
nodes = (
"360 -228 OFFCURVE",
"459 -157 OFFCURVE",
"459 -65 CURVE SMOOTH",
"459 4 OFFCURVE",
"410 41 OFFCURVE",
"318 50 CURVE SMOOTH",
"189 63 LINE SMOOTH",
"158 66 OFFCURVE",
"141 80 OFFCURVE",
"141 99 CURVE SMOOTH",
"141 112 OFFCURVE",
"152 125 OFFCURVE",
"178 143 CURVE",
"165 163 LINE",
"103 136 OFFCURVE",
"67 100 OFFCURVE",
"67 64 CURVE SMOOTH",
"67 27 OFFCURVE",
"106 -3 OFFCURVE",
"155 -3 CURVE",
"170 -7 LINE",
"277 -16 LINE SMOOTH",
"352 -22 OFFCURVE",
"382 -42 OFFCURVE",
"382 -87 CURVE SMOOTH",
"382 -146 OFFCURVE",
"323 -187 OFFCURVE",
"237 -187 CURVE SMOOTH",
"162 -187 OFFCURVE",
"116 -156 OFFCURVE",
"116 -103 CURVE SMOOTH",
"116 -65 OFFCURVE",
"141 -30 OFFCURVE",
"185 -4 CURVE",
"147 4 LINE",
"67 -36 OFFCURVE",
"33 -73 OFFCURVE",
"33 -118 CURVE SMOOTH",
"33 -185 OFFCURVE",
"110 -228 OFFCURVE",
"233 -228 CURVE SMOOTH"
);
},
{
closed = 1;
nodes = (
"340 124 OFFCURVE",
"418 192 OFFCURVE",
"418 281 CURVE SMOOTH",
"418 371 OFFCURVE",
"342 437 OFFCURVE",
"240 437 CURVE SMOOTH",
"137 437 OFFCURVE",
"59 366 OFFCURVE",
"59 272 CURVE SMOOTH",
"59 186 OFFCURVE",
"134 124 OFFCURVE",
"241 124 CURVE SMOOTH"
);
},
{
closed = 1;
nodes = (
"186 164 OFFCURVE",
"146 212 OFFCURVE",
"146 283 CURVE SMOOTH",
"146 351 OFFCURVE",
"184 398 OFFCURVE",
"239 398 CURVE SMOOTH",
"296 398 OFFCURVE",
"335 349 OFFCURVE",
"335 274 CURVE SMOOTH",
"335 207 OFFCURVE",
"300 164 OFFCURVE",
"246 164 CURVE SMOOTH"
);
},
{
closed = 1;
nodes = (
"478 429 LINE",
"320 413 LINE",
"359 373 LINE",
"478 365 LINE"
);
}
);
width = 495;
}
);
leftKerningGroup = g;
note = g;
rightKerningGroup = g;
unicode = 0067;
},
{
glyphname = h;
lastChange = "2021-06-22 16:48:23 +0000";
layers = (
{
anchors = (
{
name = bottom;
position = "{310, 0}";
},
{
name = stroke;
position = "{207, 517}";
},
{
name = top;
position = "{159, 660}";
}
);
background = {
anchors = (
{
name = bottom;
position = "{1111, 0}";
},
{
name = stroke;
position = "{1008, 517}";
},
{
name = top;
position = "{960, 660}";
}
);
paths = (
{
closed = 1;
nodes = (
"1103 0 LINE",
"1106 52 LINE",
"1044 70 LINE",
"1042 80 OFFCURVE",
"1040 121 OFFCURVE",
"1040 163 CURVE SMOOTH",
"1040 308 LINE",
"1059 330 OFFCURVE",
"1083 341 OFFCURVE",
"1109 341 CURVE SMOOTH",
"1152 341 OFFCURVE",
"1182 312 OFFCURVE",
"1182 242 CURVE SMOOTH",
"1182 173 LINE SMOOTH",
"1182 148 OFFCURVE",
"1180 95 OFFCURVE",
"1177 70 CURVE",
"1119 52 LINE",
"1122 0 LINE",
"1404 0 LINE",
"1409 52 LINE",
"1347 70 LINE",
"1344 79 OFFCURVE",
"1343 126 OFFCURVE",
"1343 169 CURVE SMOOTH",
"1343 270 LINE SMOOTH",
"1343 382 OFFCURVE",
"1281 454 OFFCURVE",
"1189 454 CURVE SMOOTH",
"1131 454 OFFCURVE",
"1077 425 OFFCURVE",
"1039 376 CURVE",
"1036 377 LINE",
"1039 545 OFFCURVE",
"1042 600 OFFCURVE",
"1048 680 CURVE",
"1015 700 LINE",
"796 645 LINE",
"798 594 LINE",
"872 584 LINE",
"876 527 OFFCURVE",
"878 452 OFFCURVE",
"878 360 CURVE SMOOTH",
"878 232 LINE SMOOTH",
"878 193 OFFCURVE",
"874 99 OFFCURVE",
"872 70 CURVE",
"810 52 LINE",
"813 0 LINE"
);
},
{
closed = 1;
nodes = (
"299 0 LINE",
"302 52 LINE",
"244 70 LINE",
"242 81 OFFCURVE",
"240 128 OFFCURVE",
"240 163 CURVE SMOOTH",
"240 308 LINE",
"259 330 OFFCURVE",
"283 341 OFFCURVE",
"309 341 CURVE SMOOTH",
"352 341 OFFCURVE",
"382 312 OFFCURVE",
"382 242 CURVE SMOOTH",
"382 173 LINE SMOOTH",
"382 148 OFFCURVE",
"380 95 OFFCURVE",
"377 70 CURVE",
"323 52 LINE",
"326 0 LINE",
"605 0 LINE",
"609 52 LINE",
"547 70 LINE",
"544 80 OFFCURVE",
"543 126 OFFCURVE",
"543 169 CURVE SMOOTH",
"543 270 LINE SMOOTH",
"543 382 OFFCURVE",
"481 454 OFFCURVE",
"389 454 CURVE SMOOTH",
"331 454 OFFCURVE",
"277 425 OFFCURVE",
"238 368 CURVE",
"235 369 LINE",
"241 434 LINE",
"207 452 LINE",
"6 401 LINE",
"6 349 LINE",
"70 335 LINE",
"77 295 OFFCURVE",
"78 281 OFFCURVE",
"78 242 CURVE",
"77 167 LINE SMOOTH",
"76 134 OFFCURVE",
"73 80 OFFCURVE",
"72 70 CURVE",
"10 52 LINE",
"13 0 LINE"
);
}
);
};
layerId = "722FC537-28B1-4F35-B842-D78FAAB5B143";
paths = (
{
closed = 1;
nodes = (
"298 0 LINE",
"301 52 LINE",
"243 70 LINE",
"241 80 OFFCURVE",
"239 121 OFFCURVE",
"239 163 CURVE SMOOTH",
"239 308 LINE",
"258 330 OFFCURVE",
"282 341 OFFCURVE",
"308 341 CURVE SMOOTH",
"351 341 OFFCURVE",
"381 312 OFFCURVE",
"381 242 CURVE SMOOTH",
"381 173 LINE SMOOTH",
"381 148 OFFCURVE",
"379 95 OFFCURVE",
"376 70 CURVE",
"322 52 LINE",
"325 0 LINE",
"605 0 LINE",
"608 52 LINE",
"546 70 LINE",
"543 79 OFFCURVE",
"542 126 OFFCURVE",
"542 169 CURVE SMOOTH",
"542 270 LINE SMOOTH",
"542 382 OFFCURVE",
"480 454 OFFCURVE",
"388 454 CURVE SMOOTH",
"330 454 OFFCURVE",
"276 425 OFFCURVE",
"238 369 CURVE",
"235 370 LINE",
"238 545 OFFCURVE",
"241 600 OFFCURVE",
"247 680 CURVE",
"214 700 LINE",
"-5 645 LINE",
"-3 594 LINE",
"71 584 LINE",
"75 527 OFFCURVE",
"77 452 OFFCURVE",
"77 360 CURVE SMOOTH",
"77 232 LINE SMOOTH",
"77 193 OFFCURVE",
"73 99 OFFCURVE",
"71 70 CURVE",
"9 52 LINE",
"12 0 LINE"
);
}
);
width = 614;
},
{
anchors = (
{
name = bottom;
position = "{278, 0}";
},
{
name = stroke;
position = "{197, 519}";
},
{
name = top;
position = "{134, 660}";
}
);
layerId = "A0F5A844-D88E-40D3-8473-9812906C4A28";
paths = (
{
closed = 1;
nodes = (
"236 0 LINE",
"238 36 LINE",
"177 51 LINE",
"174 61 OFFCURVE",
"172 104 OFFCURVE",
"172 165 CURVE SMOOTH",
"172 315 LINE",
"199 354 OFFCURVE",
"239 377 OFFCURVE",
"282 377 CURVE SMOOTH",
"334 377 OFFCURVE",
"383 341 OFFCURVE",
"383 256 CURVE SMOOTH",
"383 148 LINE SMOOTH",
"383 93 OFFCURVE",
"381 66 OFFCURVE",
"379 51 CURVE",
"321 36 LINE",
"324 0 LINE",
"525 0 LINE",
"527 36 LINE",
"465 51 LINE",
"462 65 OFFCURVE",
"459 107 OFFCURVE",
"459 155 CURVE SMOOTH",
"459 263 LINE SMOOTH",
"459 382 OFFCURVE",
"389 438 OFFCURVE",
"316 438 CURVE SMOOTH",
"263 438 OFFCURVE",
"220 417 OFFCURVE",
"174 366 CURVE",
"171 367 LINE",
"172 524 OFFCURVE",
"173 597 OFFCURVE",
"176 680 CURVE",
"157 694 LINE",
"16 653 LINE",
"18 621 LINE",
"92 611 LINE",
"94 587 OFFCURVE",
"96 453 OFFCURVE",
"96 363 CURVE SMOOTH",
"96 238 LINE SMOOTH",
"96 127 OFFCURVE",
"94 72 OFFCURVE",
"91 51 CURVE",
"29 36 LINE",
"31 0 LINE"
);
}
);
width = 550;
}
);
leftKerningGroup = l;
note = h;
rightKerningGroup = n;
rightMetricsKey = n;
unicode = 0068;
},
{
glyphname = idotless;
lastChange = "2021-06-22 16:48:23 +0000";
layers = (
{
anchors = (
{
name = bottom;
position = "{160, 0}";
},
{
name = ogonek;
position = "{218, 0}";
},
{
name = top;
position = "{160, 446}";
}
);
background = {
anchors = (
{
name = bottom;
position = "{161, 0}";
},
{
name = ogonek;
position = "{219, 0}";
},
{
name = top;
position = "{161, 446}";
}
);
paths = (
{
closed = 1;
nodes = (
"310 0 LINE",
"313 54 LINE",
"246 70 LINE",
"244 81 OFFCURVE",
"242 129 OFFCURVE",
"242 163 CURVE SMOOTH",
"242 291 LINE SMOOTH",
"242 346 OFFCURVE",
"244 389 OFFCURVE",
"248 434 CURVE",
"213 452 LINE",
"4 401 LINE",
"4 349 LINE",
"71 335 LINE",
"78 295 OFFCURVE",
"79 278 OFFCURVE",
"79 241 CURVE",
"78 167 LINE",
"77 135 OFFCURVE",
"74 80 OFFCURVE",
"73 70 CURVE",
"6 54 LINE",
"9 0 LINE"
);
}
);
};
layerId = "722FC537-28B1-4F35-B842-D78FAAB5B143";
paths = (
{
closed = 1;
nodes = (
"307 0 LINE",
"310 54 LINE",
"245 70 LINE",
"243 81 OFFCURVE",
"241 129 OFFCURVE",
"241 163 CURVE SMOOTH",
"241 291 LINE SMOOTH",
"241 346 OFFCURVE",
"243 389 OFFCURVE",
"247 434 CURVE",
"212 452 LINE",
"4 401 LINE",
"4 349 LINE",
"70 335 LINE",
"77 295 OFFCURVE",
"78 278 OFFCURVE",
"78 241 CURVE",
"77 167 LINE",
"76 135 OFFCURVE",
"73 80 OFFCURVE",
"72 70 CURVE",
"7 54 LINE",
"10 0 LINE"
);
}
);
width = 319;
},
{
anchors = (
{
name = bottom;
position = "{134, 0}";
},
{
name = ogonek;
position = "{192, 0}";
},
{
name = top;
position = "{134, 430}";
}
);
layerId = "A0F5A844-D88E-40D3-8473-9812906C4A28";
paths = (
{
closed = 1;
nodes = (
"243 0 LINE",
"245 37 LINE",
"178 51 LINE",
"175 61 OFFCURVE",
"173 104 OFFCURVE",
"173 165 CURVE SMOOTH",
"173 291 LINE SMOOTH",
"173 344 OFFCURVE",
"175 381 OFFCURVE",
"179 422 CURVE",
"164 436 LINE",
"22 399 LINE",
"22 366 LINE",
"89 352 LINE",
"93 327 OFFCURVE",
"96 279 OFFCURVE",
"96 224 CURVE",
"96 158 LINE",
"95 80 OFFCURVE",
"93 58 OFFCURVE",
"92 51 CURVE",
"25 37 LINE",
"27 0 LINE"
);
}
);
width = 268;
}
);
leftKerningGroup = n;
note = dotlessi;
rightKerningGroup = i;
unicode = 0131;
},
{
glyphname = iogonek;
lastChange = "2021-06-22 16:48:23 +0000";
layers = (
{
background = {
components = (
{
alignment = -1;
name = dotaccentcomb.i;
transform = "{1, 0, 0, 1, -139, 0}";
}
);
paths = (
{
closed = 1;
nodes = (
"212 -223 OFFCURVE",
"253 -206 OFFCURVE",
"284 -173 CURVE",
"252 -127 LINE",
"226 -151 OFFCURVE",
"204 -161 OFFCURVE",
"185 -161 CURVE SMOOTH",
"158 -161 OFFCURVE",
"136 -142 OFFCURVE",
"136 -110 CURVE SMOOTH",
"136 -85 OFFCURVE",
"148 -3 OFFCURVE",
"310 0 CURVE",
"313 54 LINE",
"246 70 LINE",
"244 81 OFFCURVE",
"242 129 OFFCURVE",
"242 163 CURVE SMOOTH",
"242 291 LINE SMOOTH",
"242 346 OFFCURVE",
"244 389 OFFCURVE",
"248 434 CURVE",
"213 452 LINE",
"4 401 LINE",
"4 349 LINE",
"71 335 LINE",
"78 295 OFFCURVE",
"78 278 OFFCURVE",
"79 241 CURVE SMOOTH",
"78 167 LINE SMOOTH",
"77 135 OFFCURVE",
"74 80 OFFCURVE",
"73 70 CURVE",
"6 54 LINE",
"9 0 LINE",
"196 0 LINE",
"199 13 LINE",
"73 -16 OFFCURVE",
"24 -66 OFFCURVE",
"24 -116 CURVE SMOOTH",
"24 -180 OFFCURVE",
"90 -223 OFFCURVE",
"163 -223 CURVE SMOOTH"
);
}
);
};
components = (
{
alignment = -1;
name = dotaccentcomb.i;
transform = "{1, 0, 0, 1, -140, 0}";
}
);
layerId = "722FC537-28B1-4F35-B842-D78FAAB5B143";
paths = (
{
closed = 1;
nodes = (
"211 -223 OFFCURVE",
"252 -206 OFFCURVE",
"283 -173 CURVE",
"251 -127 LINE",
"225 -151 OFFCURVE",
"203 -161 OFFCURVE",
"184 -161 CURVE SMOOTH",
"157 -161 OFFCURVE",
"135 -142 OFFCURVE",
"135 -110 CURVE SMOOTH",
"135 -85 OFFCURVE",
"147 -3 OFFCURVE",
"307 0 CURVE",
"310 54 LINE",
"245 70 LINE",
"243 81 OFFCURVE",
"241 129 OFFCURVE",
"241 163 CURVE SMOOTH",
"241 291 LINE SMOOTH",
"241 346 OFFCURVE",
"243 389 OFFCURVE",
"247 434 CURVE",
"212 452 LINE",
"4 401 LINE",
"4 349 LINE",
"70 335 LINE",
"77 295 OFFCURVE",
"77 278 OFFCURVE",
"78 241 CURVE SMOOTH",
"77 167 LINE SMOOTH",
"76 135 OFFCURVE",
"73 80 OFFCURVE",
"72 70 CURVE",
"7 54 LINE",
"10 0 LINE",
"195 0 LINE",
"198 13 LINE",
"72 -16 OFFCURVE",
"23 -66 OFFCURVE",
"23 -116 CURVE SMOOTH",
"23 -180 OFFCURVE",
"89 -223 OFFCURVE",
"162 -223 CURVE SMOOTH"
);
}
);
width = 319;
},
{
components = (
{
alignment = -1;
name = dotaccentcomb.i;
transform = "{1, 0, 0, 1, -166, 0}";
}
);
layerId = "A0F5A844-D88E-40D3-8473-9812906C4A28";
paths = (
{
closed = 1;
nodes = (
"185 -223 OFFCURVE",
"220 -203 OFFCURVE",
"246 -173 CURVE",
"225 -146 LINE",
"203 -167 OFFCURVE",
"181 -181 OFFCURVE",
"155 -181 CURVE SMOOTH",
"120 -181 OFFCURVE",
"97 -158 OFFCURVE",
"97 -119 CURVE SMOOTH",
"97 -57 OFFCURVE",
"167 -3 OFFCURVE",
"243 0 CURVE",
"245 37 LINE",
"178 51 LINE",
"175 61 OFFCURVE",
"173 104 OFFCURVE",
"173 165 CURVE SMOOTH",
"173 291 LINE SMOOTH",
"173 344 OFFCURVE",
"175 381 OFFCURVE",
"179 422 CURVE",
"164 436 LINE",
"22 399 LINE",
"22 366 LINE",
"89 352 LINE",
"93 327 OFFCURVE",
"97 279 OFFCURVE",
"96 224 CURVE",
"96 158 LINE SMOOTH",
"95 80 OFFCURVE",
"93 58 OFFCURVE",
"92 51 CURVE",
"25 37 LINE",
"27 0 LINE",
"189 0 LINE",
"177 10 LINE",
"92 -8 OFFCURVE",
"27 -63 OFFCURVE",
"27 -132 CURVE SMOOTH",
"27 -183 OFFCURVE",
"71 -223 OFFCURVE",
"141 -223 CURVE SMOOTH"
);
}
);
width = 269;
}
);
leftKerningGroup = n;
note = iogonek;
rightKerningGroup = i;
unicode = 012F;
},
{
glyphname = jdotless;
lastChange = "2021-06-22 16:48:23 +0000";
layers = (
{
anchors = (
{
name = top;
position = "{160, 446}";
}
);
background = {
anchors = (
{
name = top;
position = "{161, 446}";
}
);
paths = (
{
closed = 1;
nodes = (
"132 -195 OFFCURVE",
"247 -77 OFFCURVE",
"247 44 CURVE",
"245 275 LINE",
"245 349 OFFCURVE",
"247 392 OFFCURVE",
"251 434 CURVE",
"215 452 LINE",
"5 401 LINE",
"5 349 LINE",
"72 334 LINE",
"78 294 OFFCURVE",
"80 274 OFFCURVE",
"80 235 CURVE",
"79 -8 LINE",
"79 -84 OFFCURVE",
"54 -138 OFFCURVE",
"-9 -178 CURVE",
"19 -229 LINE"
);
}
);
};
layerId = "722FC537-28B1-4F35-B842-D78FAAB5B143";
paths = (
{
closed = 1;
nodes = (
"131 -195 OFFCURVE",
"246 -77 OFFCURVE",
"246 44 CURVE",
"244 275 LINE",
"244 349 OFFCURVE",
"246 392 OFFCURVE",
"250 434 CURVE",
"214 452 LINE",
"5 401 LINE",
"5 349 LINE",
"71 334 LINE",
"77 294 OFFCURVE",
"79 274 OFFCURVE",
"79 235 CURVE",
"78 -8 LINE",
"78 -84 OFFCURVE",
"53 -138 OFFCURVE",
"-10 -178 CURVE",
"18 -229 LINE"
);
}
);
width = 316;
},
{
anchors = (
{
name = top;
position = "{134, 430}";
}
);
layerId = "A0F5A844-D88E-40D3-8473-9812906C4A28";
paths = (
{
closed = 1;
nodes = (
"124 -178 OFFCURVE",
"174 -99 OFFCURVE",
"174 -2 CURVE",
"173 291 LINE",
"173 352 OFFCURVE",
"175 387 OFFCURVE",
"178 422 CURVE",
"163 436 LINE",
"21 399 LINE",
"21 366 LINE",
"88 353 LINE",
"91 339 OFFCURVE",
"96 301 OFFCURVE",
"96 245 CURVE",
"95 -17 LINE",
"95 -108 OFFCURVE",
"64 -157 OFFCURVE",
"-6 -197 CURVE",
"13 -231 LINE"
);
}
);
width = 253;
}
);
leftKerningGroup = j;
note = uni0237;
rightKerningGroup = j;
unicode = 0237;
},
{
glyphname = k;
lastChange = "2021-06-22 16:48:23 +0000";
layers = (
{
anchors = (
{
name = bottom;
position = "{305, 0}";
},
{
name = top;
position = "{159, 660}";
}
);
background = {
paths = (
{
closed = 1;
nodes = (
"301 0 LINE",
"304 52 LINE",
"242 70 LINE",
"239 85 OFFCURVE",
"240 139 OFFCURVE",
"240 172 CURVE",
"241 385 LINE",
"241 566 OFFCURVE",
"242 612 OFFCURVE",
"248 680 CURVE",
"215 700 LINE",
"-4 645 LINE",
"-2 594 LINE",
"72 584 LINE",
"75 528 OFFCURVE",
"77 452 OFFCURVE",
"77 360 CURVE SMOOTH",
"77 243 LINE SMOOTH",
"77 194 OFFCURVE",
"74 107 OFFCURVE",
"71 70 CURVE",
"14 52 LINE",
"17 0 LINE"
);
},
{
closed = 1;
nodes = (
"602 51 LINE",
"570 58 LINE",
"562 63 OFFCURVE",
"549 81 OFFCURVE",
"519 118 CURVE SMOOTH",
"370 309 LINE",
"355 258 LINE",
"510 381 LINE",
"576 393 LINE",
"573 446 LINE",
"336 446 LINE",
"333 393 LINE",
"399 382 LINE",
"253 241 LINE",
"228 237 LINE",
"228 191 LINE",
"250 191 LINE",
"343 72 LINE SMOOTH",
"361 48 OFFCURVE",
"378 24 OFFCURVE",
"394 0 CURVE",
"599 0 LINE"
);
}
);
};
layerId = "722FC537-28B1-4F35-B842-D78FAAB5B143";
paths = (
{
closed = 1;
nodes = (
"301 0 LINE",
"304 52 LINE",
"242 70 LINE",
"239 85 OFFCURVE",
"240 139 OFFCURVE",
"240 172 CURVE",
"241 385 LINE",
"241 566 OFFCURVE",
"242 612 OFFCURVE",
"248 680 CURVE",
"215 700 LINE",
"-4 645 LINE",
"-2 594 LINE",
"72 584 LINE",
"75 528 OFFCURVE",
"77 452 OFFCURVE",
"77 360 CURVE SMOOTH",
"77 243 LINE SMOOTH",
"77 194 OFFCURVE",
"74 107 OFFCURVE",
"71 70 CURVE",
"14 52 LINE",
"17 0 LINE"
);
},
{
closed = 1;
nodes = (
"610 51 LINE",
"578 58 LINE",
"570 63 OFFCURVE",
"556 81 OFFCURVE",
"526 118 CURVE SMOOTH",
"370 309 LINE",
"357 258 LINE",
"513 381 LINE",
"579 393 LINE",
"576 446 LINE",
"339 446 LINE",
"336 393 LINE",
"402 382 LINE",
"253 241 LINE",
"228 237 LINE",
"228 191 LINE",
"250 191 LINE",
"350 72 LINE SMOOTH",
"370 48 OFFCURVE",
"386 24 OFFCURVE",
"402 0 CURVE",
"606 0 LINE"
);
}
);
width = 602;
},
{
anchors = (
{
name = bottom;
position = "{263, 0}";
},
{
name = top;
position = "{134, 660}";
}
);
layerId = "A0F5A844-D88E-40D3-8473-9812906C4A28";
paths = (
{
closed = 1;
nodes = (
"235 0 LINE",
"237 36 LINE",
"175 51 LINE",
"174 60 OFFCURVE",
"171 92 OFFCURVE",
"171 145 CURVE",
"172 390 LINE",
"172 511 OFFCURVE",
"173 590 OFFCURVE",
"177 680 CURVE",
"157 694 LINE",
"16 653 LINE",
"18 621 LINE",
"92 611 LINE",
"93 588 OFFCURVE",
"96 463 OFFCURVE",
"96 363 CURVE SMOOTH",
"96 218 LINE SMOOTH",
"96 131 OFFCURVE",
"93 70 OFFCURVE",
"91 51 CURVE",
"34 36 LINE",
"36 0 LINE"
);
},
{
closed = 1;
nodes = (
"487 37 LINE",
"442 46 LINE",
"426 60 OFFCURVE",
"401 86 OFFCURVE",
"384 104 CURVE SMOOTH",
"243 256 LINE",
"228 220 LINE",
"407 381 LINE",
"473 393 LINE",
"471 430 LINE",
"270 430 LINE",
"268 393 LINE",
"334 381 LINE",
"195 243 LINE",
"157 232 LINE",
"156 208 LINE",
"184 208 LINE",
"321 59 LINE SMOOTH",
"335 44 OFFCURVE",
"346 32 OFFCURVE",
"370 0 CURVE",
"484 0 LINE"
);
}
);
width = 489;
}
);
leftKerningGroup = l;
note = k;
rightKerningGroup = k;
unicode = 006B;
},
{
glyphname = kgreenlandic;
lastChange = "2021-06-22 16:51:33 +0000";
layers = (
{
background = {
paths = (
{
closed = 1;
nodes = (
"303 0 LINE",
"306 52 LINE",
"244 70 LINE",
"242 81 OFFCURVE",
"240 130 OFFCURVE",
"240 163 CURVE SMOOTH",
"240 291 LINE SMOOTH",
"240 346 OFFCURVE",
"242 389 OFFCURVE",
"246 434 CURVE",
"211 452 LINE",
"6 401 LINE",
"6 349 LINE",
"70 335 LINE",
"77 295 OFFCURVE",
"78 278 OFFCURVE",
"78 241 CURVE",
"77 167 LINE SMOOTH",
"76 135 OFFCURVE",
"73 80 OFFCURVE",
"72 70 CURVE",
"10 52 LINE",
"13 0 LINE"
);
},
{
closed = 1;
nodes = (
"606 51 LINE",
"574 58 LINE",
"568 61 OFFCURVE",
"554 80 OFFCURVE",
"523 118 CURVE SMOOTH",
"373 309 LINE",
"359 258 LINE",
"513 381 LINE",
"584 393 LINE",
"580 446 LINE",
"344 446 LINE",
"340 393 LINE",
"403 382 LINE",
"256 241 LINE",
"231 237 LINE",
"232 191 LINE",
"254 191 LINE",
"346 72 LINE SMOOTH",
"366 47 OFFCURVE",
"384 20 OFFCURVE",
"398 0 CURVE",
"602 0 LINE"
);
}
);
};
layerId = "722FC537-28B1-4F35-B842-D78FAAB5B143";
paths = (
{
closed = 1;
nodes = (
"302 0 LINE",
"305 52 LINE",
"243 70 LINE",
"241 81 OFFCURVE",
"239 130 OFFCURVE",
"239 163 CURVE SMOOTH",
"239 291 LINE SMOOTH",
"239 346 OFFCURVE",
"241 389 OFFCURVE",
"245 434 CURVE",
"210 452 LINE",
"5 401 LINE",
"5 349 LINE",
"69 335 LINE",
"76 295 OFFCURVE",
"77 278 OFFCURVE",
"77 241 CURVE",
"76 167 LINE SMOOTH",
"75 135 OFFCURVE",
"72 80 OFFCURVE",
"71 70 CURVE",
"9 52 LINE",
"12 0 LINE"
);
},
{
closed = 1;
nodes = (
"608 51 LINE",
"576 58 LINE",
"568 63 OFFCURVE",
"554 81 OFFCURVE",
"524 118 CURVE SMOOTH",
"368 309 LINE",
"355 258 LINE",
"511 381 LINE",
"577 393 LINE",
"574 446 LINE",
"337 446 LINE",
"334 393 LINE",
"400 382 LINE",
"251 241 LINE",
"226 237 LINE",
"226 191 LINE",
"248 191 LINE",
"348 72 LINE SMOOTH",
"368 48 OFFCURVE",
"384 24 OFFCURVE",
"400 0 CURVE",
"604 0 LINE"
);
}
);
width = 600;
},
{
layerId = "A0F5A844-D88E-40D3-8473-9812906C4A28";
paths = (
{
closed = 1;
nodes = (
"236 0 LINE",
"239 36 LINE",
"177 51 LINE",
"174 65 OFFCURVE",
"172 104 OFFCURVE",
"172 165 CURVE SMOOTH",
"172 291 LINE SMOOTH",
"172 344 OFFCURVE",
"174 381 OFFCURVE",
"177 422 CURVE",
"163 436 LINE",
"24 399 LINE",
"24 366 LINE",
"88 352 LINE",
"92 327 OFFCURVE",
"96 279 OFFCURVE",
"96 225 CURVE",
"95 158 LINE",
"94 80 OFFCURVE",
"92 58 OFFCURVE",
"91 51 CURVE",
"29 36 LINE",
"31 0 LINE"
);
},
{
closed = 1;
nodes = (
"487 37 LINE",
"442 46 LINE",
"427 60 OFFCURVE",
"401 86 OFFCURVE",
"385 104 CURVE SMOOTH",
"244 256 LINE",
"229 220 LINE",
"408 381 LINE",
"474 393 LINE",
"472 430 LINE",
"271 430 LINE",
"269 393 LINE",
"335 381 LINE",
"196 243 LINE",
"157 232 LINE",
"156 208 LINE",
"185 208 LINE",
"322 59 LINE SMOOTH",
"335 44 OFFCURVE",
"347 32 OFFCURVE",
"371 0 CURVE",
"485 0 LINE"
);
}
);
width = 489;
}
);
leftKerningGroup = n;
leftMetricsKey = n;
note = kgreenlandic;
rightKerningGroup = k;
rightMetricsKey = k;
unicode = 0138;
},
{
glyphname = l;
lastChange = "2021-06-22 16:48:23 +0000";
layers = (
{
anchors = (
{
name = bottom;
position = "{160, 0}";
},
{
name = center;
position = "{160, 334}";
},
{
name = dotacc;
position = "{362, 334}";
},
{
name = top;
position = "{160, 660}";
},
{
name = topright;
position = "{283, 688}";
}
);
background = {
anchors = (
{
name = bottom;
position = "{161, 0}";
},
{
name = center;
position = "{161, 334}";
},
{
name = dotacc;
position = "{361, 334}";
},
{
name = top;
position = "{161, 660}";
},
{
name = topright;
position = "{284, 688}";
}
);
paths = (
{
closed = 1;
nodes = (
"308 0 LINE",
"312 54 LINE",
"247 70 LINE",
"244 86 OFFCURVE",
"243 151 OFFCURVE",
"243 254 CURVE",
"244 391 LINE SMOOTH",
"245 537 OFFCURVE",
"243 598 OFFCURVE",
"250 680 CURVE",
"217 700 LINE",
"-4 645 LINE",
"-2 594 LINE",
"72 584 LINE",
"76 526 OFFCURVE",
"78 447 OFFCURVE",
"78 360 CURVE SMOOTH",
"78 232 LINE SMOOTH",
"78 193 OFFCURVE",
"74 99 OFFCURVE",
"72 70 CURVE",
"7 54 LINE",
"10 0 LINE"
);
}
);
};
layerId = "722FC537-28B1-4F35-B842-D78FAAB5B143";
paths = (
{
closed = 1;
nodes = (
"308 0 LINE",
"311 54 LINE",
"246 70 LINE",
"243 86 OFFCURVE",
"242 151 OFFCURVE",
"242 254 CURVE",
"243 391 LINE SMOOTH",
"244 537 OFFCURVE",
"242 598 OFFCURVE",
"249 680 CURVE",
"216 700 LINE",
"-5 645 LINE",
"-3 594 LINE",
"71 584 LINE",
"75 526 OFFCURVE",
"77 447 OFFCURVE",
"77 360 CURVE SMOOTH",
"77 232 LINE SMOOTH",
"77 193 OFFCURVE",
"73 99 OFFCURVE",
"71 70 CURVE",
"6 54 LINE",
"9 0 LINE"
);
}
);
width = 319;
},
{
anchors = (
{
name = bottom;
position = "{135, 0}";
},
{
name = center;
position = "{135, 350}";
},
{
name = dotacc;
position = "{279, 350}";
},
{
name = top;
position = "{135, 660}";
},
{
name = topright;
position = "{214, 688}";
}
);
layerId = "A0F5A844-D88E-40D3-8473-9812906C4A28";
paths = (
{
closed = 1;
nodes = (
"241 0 LINE",
"243 37 LINE",
"178 51 LINE",
"175 69 OFFCURVE",
"173 140 OFFCURVE",
"173 219 CURVE",
"174 380 LINE SMOOTH",
"174 523 OFFCURVE",
"176 595 OFFCURVE",
"178 680 CURVE",
"159 694 LINE",
"16 653 LINE",
"18 621 LINE",
"92 611 LINE",
"94 589 OFFCURVE",
"96 463 OFFCURVE",
"96 363 CURVE SMOOTH",
"96 238 LINE SMOOTH",
"96 127 OFFCURVE",
"94 71 OFFCURVE",
"91 51 CURVE",
"26 37 LINE",
"28 0 LINE"
);
}
);
width = 269;
}
);
leftKerningGroup = l;
note = l;
rightKerningGroup = l;
unicode = 006C;
},
{
glyphname = m;
lastChange = "2021-06-22 16:48:23 +0000";
layers = (
{
anchors = (
{
name = bottom;
position = "{453, 0}";
},
{
name = top;
position = "{453, 446}";
}
);
background = {
anchors = (
{
name = bottom;
position = "{454, 0}";
},
{
name = top;
position = "{454, 446}";
}
);
paths = (
{
closed = 1;
nodes = (
"298 0 LINE",
"301 52 LINE",
"245 70 LINE",
"243 81 OFFCURVE",
"241 129 OFFCURVE",
"241 163 CURVE SMOOTH",
"241 308 LINE",
"255 327 OFFCURVE",
"283 341 OFFCURVE",
"306 341 CURVE SMOOTH",
"347 341 OFFCURVE",
"373 319 OFFCURVE",
"373 257 CURVE",
"375 173 LINE",
"375 148 OFFCURVE",
"373 95 OFFCURVE",
"370 70 CURVE",
"318 52 LINE",
"322 0 LINE",
"590 0 LINE",
"593 52 LINE",
"540 70 LINE",
"537 79 OFFCURVE",
"536 127 OFFCURVE",
"536 169 CURVE",
"534 272 LINE",
"534 396 OFFCURVE",
"466 454 OFFCURVE",
"383 454 CURVE SMOOTH",
"330 454 OFFCURVE",
"281 428 OFFCURVE",
"239 376 CURVE",
"236 377 LINE",
"242 434 LINE",
"208 452 LINE",
"7 401 LINE",
"7 349 LINE",
"71 335 LINE",
"78 293 OFFCURVE",
"78 277 OFFCURVE",
"79 241 CURVE",
"78 167 LINE SMOOTH",
"77 135 OFFCURVE",
"74 80 OFFCURVE",
"73 70 CURVE",
"11 52 LINE",
"14 0 LINE"
);
},
{
closed = 1;
nodes = (
"890 0 LINE",
"894 52 LINE",
"832 70 LINE",
"829 79 OFFCURVE",
"828 127 OFFCURVE",
"828 169 CURVE",
"825 269 LINE",
"825 392 OFFCURVE",
"755 454 OFFCURVE",
"657 454 CURVE SMOOTH",
"592 454 OFFCURVE",
"537 418 OFFCURVE",
"488 354 CURVE",
"525 315 LINE",
"538 330 OFFCURVE",
"567 341 OFFCURVE",
"591 341 CURVE SMOOTH",
"637 341 OFFCURVE",
"664 315 OFFCURVE",
"664 241 CURVE",
"667 173 LINE",
"667 150 OFFCURVE",
"665 95 OFFCURVE",
"662 70 CURVE",
"612 52 LINE",
"616 0 LINE"
);
}
);
};
layerId = "722FC537-28B1-4F35-B842-D78FAAB5B143";
paths = (
{
closed = 1;
nodes = (
"293 0 LINE",
"296 52 LINE",
"244 70 LINE",
"242 81 OFFCURVE",
"240 129 OFFCURVE",
"240 163 CURVE SMOOTH",
"240 308 LINE",
"254 327 OFFCURVE",
"282 341 OFFCURVE",
"305 341 CURVE SMOOTH",
"346 341 OFFCURVE",
"372 319 OFFCURVE",
"372 257 CURVE",
"374 173 LINE",
"374 148 OFFCURVE",
"372 95 OFFCURVE",
"369 70 CURVE",
"321 52 LINE",
"324 0 LINE",
"586 0 LINE",
"589 52 LINE",
"539 70 LINE",
"536 79 OFFCURVE",
"535 127 OFFCURVE",
"535 169 CURVE",
"533 272 LINE",
"533 396 OFFCURVE",
"465 454 OFFCURVE",
"382 454 CURVE SMOOTH",
"329 454 OFFCURVE",
"280 428 OFFCURVE",
"238 371 CURVE",
"235 372 LINE",
"241 434 LINE",
"207 452 LINE",
"6 401 LINE",
"6 349 LINE",
"70 335 LINE",
"77 293 OFFCURVE",
"77 277 OFFCURVE",
"78 241 CURVE",
"77 167 LINE SMOOTH",
"76 135 OFFCURVE",
"73 80 OFFCURVE",
"72 70 CURVE",
"10 52 LINE",
"13 0 LINE"
);
},
{
closed = 1;
nodes = (
"890 0 LINE",
"893 52 LINE",
"831 70 LINE",
"828 79 OFFCURVE",
"827 127 OFFCURVE",
"827 169 CURVE",
"824 269 LINE",
"824 392 OFFCURVE",
"754 454 OFFCURVE",
"656 454 CURVE SMOOTH",
"591 454 OFFCURVE",
"536 418 OFFCURVE",
"487 349 CURVE",
"524 315 LINE",
"537 330 OFFCURVE",
"566 341 OFFCURVE",
"590 341 CURVE SMOOTH",
"636 341 OFFCURVE",
"663 315 OFFCURVE",
"663 241 CURVE",
"666 173 LINE",
"666 150 OFFCURVE",
"664 95 OFFCURVE",
"661 70 CURVE",
"614 52 LINE",
"617 0 LINE"
);
}
);
width = 898;
},
{
anchors = (
{
name = bottom;
position = "{414, 0}";
},
{
name = top;
position = "{414, 430}";
}
);
layerId = "A0F5A844-D88E-40D3-8473-9812906C4A28";
paths = (
{
closed = 1;
nodes = (
"234 0 LINE",
"237 36 LINE",
"178 51 LINE",
"175 65 OFFCURVE",
"173 104 OFFCURVE",
"173 165 CURVE SMOOTH",
"173 315 LINE",
"201 357 OFFCURVE",
"238 377 OFFCURVE",
"279 377 CURVE SMOOTH",
"329 377 OFFCURVE",
"375 343 OFFCURVE",
"375 258 CURVE",
"376 148 LINE",
"376 93 OFFCURVE",
"374 66 OFFCURVE",
"372 51 CURVE",
"317 36 LINE",
"320 0 LINE",
"515 0 LINE",
"518 36 LINE",
"458 51 LINE",
"454 65 OFFCURVE",
"452 107 OFFCURVE",
"452 155 CURVE",
"451 261 LINE",
"451 382 OFFCURVE",
"376 438 OFFCURVE",
"307 438 CURVE SMOOTH",
"260 438 OFFCURVE",
"215 417 OFFCURVE",
"174 365 CURVE",
"171 366 LINE",
"176 420 LINE",
"159 436 LINE",
"25 399 LINE",
"25 366 LINE",
"89 352 LINE",
"93 327 OFFCURVE",
"98 278 OFFCURVE",
"97 236 CURVE",
"96 158 LINE SMOOTH",
"95 86 OFFCURVE",
"93 64 OFFCURVE",
"92 51 CURVE",
"30 36 LINE",
"32 0 LINE"
);
},
{
closed = 1;
nodes = (
"795 0 LINE",
"797 36 LINE",
"735 51 LINE",
"732 65 OFFCURVE",
"730 107 OFFCURVE",
"730 155 CURVE",
"730 268 LINE",
"730 375 OFFCURVE",
"663 438 OFFCURVE",
"580 438 CURVE SMOOTH",
"521 438 OFFCURVE",
"468 409 OFFCURVE",
"422 345 CURVE",
"441 308 LINE",
"471 354 OFFCURVE",
"510 377 OFFCURVE",
"556 377 CURVE SMOOTH",
"602 377 OFFCURVE",
"654 344 OFFCURVE",
"654 257 CURVE",
"654 148 LINE",
"654 93 OFFCURVE",
"651 66 OFFCURVE",
"650 51 CURVE",
"593 36 LINE",
"596 0 LINE"
);
}
);
width = 823;
}
);
leftKerningGroup = n;
note = m;
rightKerningGroup = n;
unicode = 006D;
},
